  0
SECTION
  2
HEADER
  9
$ACADVER
  1
AC1014
  9
$HANDSEED
  5
FFFF
  9
$MEASUREMENT
 70
     1
  0
ENDSEC
  0
SECTION
  2
TABLES
  0
TABLE
  2
VPORT
  5
8
330
0
100
AcDbSymbolTable
 70
     4
  0
VPORT
  5
2E
330
8
100
AcDbSymbolTableRecord
100
AcDbViewportTableRecord
  2
*ACTIVE
 70
     0
 10
0.0
 20
0.0
 11
1.0
 21
1.0
 12
210.0
 22
148.5
 13
0.0
 23
0.0
 14
10.0
 24
10.0
 15
10.0
 25
10.0
 16
0.0
 26
0.0
 36
1.0
 17
0.0
 27
0.0
 37
0.0
 40
341.0
 41
1.24
 42
50.0
 43
0.0
 44
0.0
 50
0.0
 51
0.0
 71
     0
 72
   100
 73
     1
 74
     3
 75
     0
 76
     0
 77
     0
 78
     0
  0
ENDTAB
  0
TABLE
  2
LTYPE
  5
5
330
0
100
AcDbSymbolTable
 70
     1
  0
LTYPE
  5
14
330
5
100
AcDbSymbolTableRecord
100
AcDbLinetypeTableRecord
  2
BYBLOCK
 70
     0
  3

 72
    65
 73
     0
 40
0.0
  0
LTYPE
  5
15
330
5
100
AcDbSymbolTableRecord
100
AcDbLinetypeTableRecord
  2
BYLAYER
 70
     0
  3

 72
    65
 73
     0
 40
0.0
  0
LTYPE
  5
16
330
5
100
AcDbSymbolTableRecord
100
AcDbLinetypeTableRecord
  2
CONTINUOUS
 70
     0
  3
Solid line
 72
    65
 73
     0
 40
0.0
  0
ENDTAB
  0
TABLE
  2
LAYER
  5
2
100
AcDbSymbolTable
 70
2
  0
LAYER
  5
50
100
AcDbSymbolTableRecord
100
AcDbLayerTableRecord
  2
0
 70
0
  6
CONTINUOUS
  0
LAYER
  5
51
100
AcDbSymbolTableRecord
100
AcDbLayerTableRecord
  2
Laag_1
 70
0
  6
CONTINUOUS
  0
ENDTAB
  0
TABLE
  2
STYLE
  5
3
330
0
100
AcDbSymbolTable
 70
     1
  0
STYLE
  5
11
330
3
100
AcDbSymbolTableRecord
100
AcDbTextStyleTableRecord
  2
STANDARD
 70
     0
 40
0.0
 41
1.0
 50
0.0
 71
     0
 42
2.5
  3
txt
  4

  0
ENDTAB
  0
TABLE
  2
VIEW
  5
6
330
0
100
AcDbSymbolTable
 70
     0
  0
ENDTAB
  0
TABLE
  2
UCS
  5
7
330
0
100
AcDbSymbolTable
 70
     0
  0
ENDTAB
  0
TABLE
  2
APPID
  5
9
330
0
100
AcDbSymbolTable
 70
     2
  0
APPID
  5
12
330
9
100
AcDbSymbolTableRecord
100
AcDbRegAppTableRecord
  2
ACAD
 70
     0
  0
ENDTAB
  0
TABLE
  2
DIMSTYLE
  5
A
330
0
100
AcDbSymbolTable
 70
     1
  0
DIMSTYLE
105
27
330
A
100
AcDbSymbolTableRecord
100
AcDbDimStyleTableRecord
  2
ISO-25
 70
     0
  3

  4

  5

  6

  7

 40
1.0
 41
2.5
 42
0.625
 43
3.75
 44
1.25
 45
0.0
 46
0.0
 47
0.0
 48
0.0
140
2.5
141
2.5
142
0.0
143
0.03937007874016
144
1.0
145
0.0
146
1.0
147
0.625
 71
     0
 72
     0
 73
     0
 74
     0
 75
     0
 76
     0
 77
     1
 78
     8
170
     0
171
     3
172
     1
173
     0
174
     0
175
     0
176
     0
177
     0
178
     0
270
     2
271
     2
272
     2
273
     2
274
     3
340
11
275
     0
280
     0
281
     0
282
     0
283
     0
284
     8
285
     0
286
     0
287
     3
288
     0
  0
ENDTAB
  0
TABLE
  2
BLOCK_RECORD
  5
1
330
0
100
AcDbSymbolTable
 70
     1
  0
BLOCK_RECORD
  5
1F
330
1
100
AcDbSymbolTableRecord
100
AcDbBlockTableRecord
  2
*MODEL_SPACE
  0
BLOCK_RECORD
  5
1B
330
1
100
AcDbSymbolTableRecord
100
AcDbBlockTableRecord
  2
*PAPER_SPACE
  0
ENDTAB
  0
ENDSEC
  0
SECTION
  2
BLOCKS
  0
BLOCK
  5
20
330
1F
100
AcDbEntity
  8
0
100
AcDbBlockBegin
  2
*MODEL_SPACE
 70
     0
 10
0.0
 20
0.0
 30
0.0
  3
*MODEL_SPACE
  1

  0
ENDBLK
  5
21
330
1F
100
AcDbEntity
  8
0
100
AcDbBlockEnd
  0
BLOCK
  5
1C
330
1B
100
AcDbEntity
 67
     1
  8
0
100
AcDbBlockBegin
  2
*PAPER_SPACE
  1

  0
ENDBLK
  5
1D
330
1B
100
AcDbEntity
 67
     1
  8
0
100
AcDbBlockEnd
  0
ENDSEC
  0
SECTION
  2
ENTITIES
  0
SPLINE
  5
100
100
AcDbEntity
  8
Laag_1
 62
7
100
AcDbSpline
 70
8
 71
3
 72
8
 73
4
 74
0
 40
0
 40
0
 40
0
 40
0
 40
1
 40
1
 40
1
 40
1
 10
94.972028
 20
99.968925
 30
0.0
 10
96.297287
 20
99.968925
 30
0.0
 10
97.568267
 20
99.442468
 30
0.0
 10
98.505366
 20
98.505368
 30
0.0
  0
SPLINE
  5
101
100
AcDbEntity
  8
Laag_1
 62
7
100
AcDbSpline
 70
8
 71
3
 72
8
 73
4
 74
0
 40
0
 40
0
 40
0
 40
0
 40
1
 40
1
 40
1
 40
1
 10
98.505366
 20
98.505368
 30
0.0
 10
99.442466
 20
97.568269
 30
0.0
 10
99.968923
 20
96.297289
 30
0.0
 10
99.968923
 20
94.972030
 30
0.0
  0
LWPOLYLINE
  5
102
100
AcDbEntity
  8
Laag_1
 62
7
100
AcDbPolyline
 90
2
 70
0
 10
5.027906
 20
99.968925
 30
0.0
 10
94.972028
 20
99.968925
 30
0.0
  0
SPLINE
  5
103
100
AcDbEntity
  8
Laag_1
 62
7
100
AcDbSpline
 70
8
 71
3
 72
8
 73
4
 74
0
 40
0
 40
0
 40
0
 40
0
 40
1
 40
1
 40
1
 40
1
 10
99.968923
 20
5.027908
 30
0.0
 10
99.968923
 20
3.702649
 30
0.0
 10
99.442466
 20
2.431669
 30
0.0
 10
98.505366
 20
1.494570
 30
0.0
  0
SPLINE
  5
104
100
AcDbEntity
  8
Laag_1
 62
7
100
AcDbSpline
 70
8
 71
3
 72
8
 73
4
 74
0
 40
0
 40
0
 40
0
 40
0
 40
1
 40
1
 40
1
 40
1
 10
98.505366
 20
1.494570
 30
0.0
 10
97.568267
 20
0.557470
 30
0.0
 10
96.297287
 20
0.031013
 30
0.0
 10
94.972028
 20
0.031013
 30
0.0
  0
LWPOLYLINE
  5
105
100
AcDbEntity
  8
Laag_1
 62
7
100
AcDbPolyline
 90
2
 70
0
 10
99.968923
 20
94.972030
 30
0.0
 10
99.968923
 20
5.027908
 30
0.0
  0
SPLINE
  5
106
100
AcDbEntity
  8
Laag_1
 62
7
100
AcDbSpline
 70
8
 71
3
 72
8
 73
4
 74
0
 40
0
 40
0
 40
0
 40
0
 40
1
 40
1
 40
1
 40
1
 10
5.027906
 20
0.031013
 30
0.0
 10
3.702647
 20
0.031013
 30
0.0
 10
2.431667
 20
0.557470
 30
0.0
 10
1.494568
 20
1.494570
 30
0.0
  0
SPLINE
  5
107
100
AcDbEntity
  8
Laag_1
 62
7
100
AcDbSpline
 70
8
 71
3
 72
8
 73
4
 74
0
 40
0
 40
0
 40
0
 40
0
 40
1
 40
1
 40
1
 40
1
 10
1.494568
 20
1.494570
 30
0.0
 10
0.557468
 20
2.431669
 30
0.0
 10
0.031011
 20
3.702649
 30
0.0
 10
0.031011
 20
5.027908
 30
0.0
  0
LWPOLYLINE
  5
108
100
AcDbEntity
  8
Laag_1
 62
7
100
AcDbPolyline
 90
2
 70
0
 10
94.972028
 20
0.031013
 30
0.0
 10
5.027906
 20
0.031013
 30
0.0
  0
SPLINE
  5
109
100
AcDbEntity
  8
Laag_1
 62
7
100
AcDbSpline
 70
8
 71
3
 72
8
 73
4
 74
0
 40
0
 40
0
 40
0
 40
0
 40
1
 40
1
 40
1
 40
1
 10
0.031011
 20
94.972030
 30
0.0
 10
0.031011
 20
96.297289
 30
0.0
 10
0.557468
 20
97.568269
 30
0.0
 10
1.494568
 20
98.505368
 30
0.0
  0
SPLINE
  5
10a
100
AcDbEntity
  8
Laag_1
 62
7
100
AcDbSpline
 70
8
 71
3
 72
8
 73
4
 74
0
 40
0
 40
0
 40
0
 40
0
 40
1
 40
1
 40
1
 40
1
 10
1.494568
 20
98.505368
 30
0.0
 10
2.431667
 20
99.442468
 30
0.0
 10
3.702647
 20
99.968925
 30
0.0
 10
5.027906
 20
99.968925
 30
0.0
  0
LWPOLYLINE
  5
10b
100
AcDbEntity
  8
Laag_1
 62
7
100
AcDbPolyline
 90
2
 70
0
 10
0.031011
 20
5.027908
 30
0.0
 10
0.031011
 20
94.972030
 30
0.0
  0
SPLINE
  5
10c
100
AcDbEntity
  8
Laag_1
 62
7
100
AcDbSpline
 70
8
 71
3
 72
8
 73
4
 74
0
 40
0
 40
0
 40
0
 40
0
 40
1
 40
1
 40
1
 40
1
 10
4.999965
 20
96.573092
 30
0.0
 10
4.363698
 20
96.573092
 30
0.0
 10
3.790082
 20
96.189814
 30
0.0
 10
3.546593
 20
95.601979
 30
0.0
  0
SPLINE
  5
10d
100
AcDbEntity
  8
Laag_1
 62
7
100
AcDbSpline
 70
8
 71
3
 72
8
 73
4
 74
0
 40
0
 40
0
 40
0
 40
0
 40
1
 40
1
 40
1
 40
1
 10
3.546593
 20
95.601979
 30
0.0
 10
3.303104
 20
95.014145
 30
0.0
 10
3.437693
 20
94.337519
 30
0.0
 10
3.887602
 20
93.887610
 30
0.0
  0
SPLINE
  5
10e
100
AcDbEntity
  8
Laag_1
 62
7
100
AcDbSpline
 70
8
 71
3
 72
8
 73
4
 74
0
 40
0
 40
0
 40
0
 40
0
 40
1
 40
1
 40
1
 40
1
 10
3.887602
 20
93.887610
 30
0.0
 10
4.337511
 20
93.437701
 30
0.0
 10
5.014137
 20
93.303112
 30
0.0
 10
5.601971
 20
93.546601
 30
0.0
  0
SPLINE
  5
10f
100
AcDbEntity
  8
Laag_1
 62
7
100
AcDbSpline
 70
8
 71
3
 72
8
 73
4
 74
0
 40
0
 40
0
 40
0
 40
0
 40
1
 40
1
 40
1
 40
1
 10
5.601971
 20
93.546601
 30
0.0
 10
6.189806
 20
93.790090
 30
0.0
 10
6.573084
 20
94.363706
 30
0.0
 10
6.573084
 20
94.999973
 30
0.0
  0
SPLINE
  5
110
100
AcDbEntity
  8
Laag_1
 62
7
100
AcDbSpline
 70
8
 71
3
 72
8
 73
4
 74
0
 40
0
 40
0
 40
0
 40
0
 40
1
 40
1
 40
1
 40
1
 10
6.573084
 20
94.999973
 30
0.0
 10
6.573084
 20
95.417190
 30
0.0
 10
6.407345
 20
95.817319
 30
0.0
 10
6.112328
 20
96.112336
 30
0.0
  0
SPLINE
  5
111
100
AcDbEntity
  8
Laag_1
 62
7
100
AcDbSpline
 70
8
 71
3
 72
8
 73
4
 74
0
 40
0
 40
0
 40
0
 40
0
 40
1
 40
1
 40
1
 40
1
 10
6.112328
 20
96.112336
 30
0.0
 10
5.817311
 20
96.407353
 30
0.0
 10
5.417182
 20
96.573092
 30
0.0
 10
4.999965
 20
96.573092
 30
0.0
  0
LWPOLYLINE
  5
112
100
AcDbEntity
  8
Laag_1
 62
7
100
AcDbPolyline
 90
1
 70
1
 10
5.027906
 20
99.968925
 30
0.0
  0
SPLINE
  5
113
100
AcDbEntity
  8
Laag_1
 62
7
100
AcDbSpline
 70
8
 71
3
 72
8
 73
4
 74
0
 40
0
 40
0
 40
0
 40
0
 40
1
 40
1
 40
1
 40
1
 10
94.999970
 20
96.573092
 30
0.0
 10
94.363703
 20
96.573092
 30
0.0
 10
93.790087
 20
96.189814
 30
0.0
 10
93.546598
 20
95.601979
 30
0.0
  0
SPLINE
  5
114
100
AcDbEntity
  8
Laag_1
 62
7
100
AcDbSpline
 70
8
 71
3
 72
8
 73
4
 74
0
 40
0
 40
0
 40
0
 40
0
 40
1
 40
1
 40
1
 40
1
 10
93.546598
 20
95.601979
 30
0.0
 10
93.303109
 20
95.014145
 30
0.0
 10
93.437698
 20
94.337519
 30
0.0
 10
93.887607
 20
93.887610
 30
0.0
  0
SPLINE
  5
115
100
AcDbEntity
  8
Laag_1
 62
7
100
AcDbSpline
 70
8
 71
3
 72
8
 73
4
 74
0
 40
0
 40
0
 40
0
 40
0
 40
1
 40
1
 40
1
 40
1
 10
93.887607
 20
93.887610
 30
0.0
 10
94.337516
 20
93.437701
 30
0.0
 10
95.014142
 20
93.303112
 30
0.0
 10
95.601976
 20
93.546601
 30
0.0
  0
SPLINE
  5
116
100
AcDbEntity
  8
Laag_1
 62
7
100
AcDbSpline
 70
8
 71
3
 72
8
 73
4
 74
0
 40
0
 40
0
 40
0
 40
0
 40
1
 40
1
 40
1
 40
1
 10
95.601976
 20
93.546601
 30
0.0
 10
96.189811
 20
93.790090
 30
0.0
 10
96.573089
 20
94.363706
 30
0.0
 10
96.573089
 20
94.999973
 30
0.0
  0
SPLINE
  5
117
100
AcDbEntity
  8
Laag_1
 62
7
100
AcDbSpline
 70
8
 71
3
 72
8
 73
4
 74
0
 40
0
 40
0
 40
0
 40
0
 40
1
 40
1
 40
1
 40
1
 10
96.573089
 20
94.999973
 30
0.0
 10
96.573089
 20
95.417190
 30
0.0
 10
96.407350
 20
95.817319
 30
0.0
 10
96.112333
 20
96.112336
 30
0.0
  0
SPLINE
  5
118
100
AcDbEntity
  8
Laag_1
 62
7
100
AcDbSpline
 70
8
 71
3
 72
8
 73
4
 74
0
 40
0
 40
0
 40
0
 40
0
 40
1
 40
1
 40
1
 40
1
 10
96.112333
 20
96.112336
 30
0.0
 10
95.817316
 20
96.407353
 30
0.0
 10
95.417187
 20
96.573092
 30
0.0
 10
94.999970
 20
96.573092
 30
0.0
  0
LWPOLYLINE
  5
119
100
AcDbEntity
  8
Laag_1
 62
7
100
AcDbPolyline
 90
1
 70
1
 10
4.999965
 20
96.573092
 30
0.0
  0
SPLINE
  5
11a
100
AcDbEntity
  8
Laag_1
 62
7
100
AcDbSpline
 70
8
 71
3
 72
8
 73
4
 74
0
 40
0
 40
0
 40
0
 40
0
 40
1
 40
1
 40
1
 40
1
 10
4.999965
 20
6.573079
 30
0.0
 10
4.363698
 20
6.573079
 30
0.0
 10
3.790082
 20
6.189801
 30
0.0
 10
3.546593
 20
5.601966
 30
0.0
  0
SPLINE
  5
11b
100
AcDbEntity
  8
Laag_1
 62
7
100
AcDbSpline
 70
8
 71
3
 72
8
 73
4
 74
0
 40
0
 40
0
 40
0
 40
0
 40
1
 40
1
 40
1
 40
1
 10
3.546593
 20
5.601966
 30
0.0
 10
3.303104
 20
5.014132
 30
0.0
 10
3.437693
 20
4.337506
 30
0.0
 10
3.887602
 20
3.887597
 30
0.0
  0
SPLINE
  5
11c
100
AcDbEntity
  8
Laag_1
 62
7
100
AcDbSpline
 70
8
 71
3
 72
8
 73
4
 74
0
 40
0
 40
0
 40
0
 40
0
 40
1
 40
1
 40
1
 40
1
 10
3.887602
 20
3.887597
 30
0.0
 10
4.337511
 20
3.437688
 30
0.0
 10
5.014137
 20
3.303099
 30
0.0
 10
5.601971
 20
3.546588
 30
0.0
  0
SPLINE
  5
11d
100
AcDbEntity
  8
Laag_1
 62
7
100
AcDbSpline
 70
8
 71
3
 72
8
 73
4
 74
0
 40
0
 40
0
 40
0
 40
0
 40
1
 40
1
 40
1
 40
1
 10
5.601971
 20
3.546588
 30
0.0
 10
6.189806
 20
3.790077
 30
0.0
 10
6.573084
 20
4.363693
 30
0.0
 10
6.573084
 20
4.999960
 30
0.0
  0
SPLINE
  5
11e
100
AcDbEntity
  8
Laag_1
 62
7
100
AcDbSpline
 70
8
 71
3
 72
8
 73
4
 74
0
 40
0
 40
0
 40
0
 40
0
 40
1
 40
1
 40
1
 40
1
 10
6.573084
 20
4.999960
 30
0.0
 10
6.573084
 20
5.417177
 30
0.0
 10
6.407345
 20
5.817306
 30
0.0
 10
6.112328
 20
6.112323
 30
0.0
  0
SPLINE
  5
11f
100
AcDbEntity
  8
Laag_1
 62
7
100
AcDbSpline
 70
8
 71
3
 72
8
 73
4
 74
0
 40
0
 40
0
 40
0
 40
0
 40
1
 40
1
 40
1
 40
1
 10
6.112328
 20
6.112323
 30
0.0
 10
5.817311
 20
6.407340
 30
0.0
 10
5.417182
 20
6.573079
 30
0.0
 10
4.999965
 20
6.573079
 30
0.0
  0
LWPOLYLINE
  5
120
100
AcDbEntity
  8
Laag_1
 62
7
100
AcDbPolyline
 90
1
 70
1
 10
94.999970
 20
96.573092
 30
0.0
  0
SPLINE
  5
121
100
AcDbEntity
  8
Laag_1
 62
7
100
AcDbSpline
 70
8
 71
3
 72
8
 73
4
 74
0
 40
0
 40
0
 40
0
 40
0
 40
1
 40
1
 40
1
 40
1
 10
94.999970
 20
6.573079
 30
0.0
 10
94.363703
 20
6.573079
 30
0.0
 10
93.790087
 20
6.189801
 30
0.0
 10
93.546598
 20
5.601966
 30
0.0
  0
SPLINE
  5
122
100
AcDbEntity
  8
Laag_1
 62
7
100
AcDbSpline
 70
8
 71
3
 72
8
 73
4
 74
0
 40
0
 40
0
 40
0
 40
0
 40
1
 40
1
 40
1
 40
1
 10
93.546598
 20
5.601966
 30
0.0
 10
93.303109
 20
5.014132
 30
0.0
 10
93.437698
 20
4.337506
 30
0.0
 10
93.887607
 20
3.887597
 30
0.0
  0
SPLINE
  5
123
100
AcDbEntity
  8
Laag_1
 62
7
100
AcDbSpline
 70
8
 71
3
 72
8
 73
4
 74
0
 40
0
 40
0
 40
0
 40
0
 40
1
 40
1
 40
1
 40
1
 10
93.887607
 20
3.887597
 30
0.0
 10
94.337516
 20
3.437688
 30
0.0
 10
95.014142
 20
3.303099
 30
0.0
 10
95.601976
 20
3.546588
 30
0.0
  0
SPLINE
  5
124
100
AcDbEntity
  8
Laag_1
 62
7
100
AcDbSpline
 70
8
 71
3
 72
8
 73
4
 74
0
 40
0
 40
0
 40
0
 40
0
 40
1
 40
1
 40
1
 40
1
 10
95.601976
 20
3.546588
 30
0.0
 10
96.189811
 20
3.790077
 30
0.0
 10
96.573089
 20
4.363693
 30
0.0
 10
96.573089
 20
4.999960
 30
0.0
  0
SPLINE
  5
125
100
AcDbEntity
  8
Laag_1
 62
7
100
AcDbSpline
 70
8
 71
3
 72
8
 73
4
 74
0
 40
0
 40
0
 40
0
 40
0
 40
1
 40
1
 40
1
 40
1
 10
96.573089
 20
4.999960
 30
0.0
 10
96.573089
 20
5.417177
 30
0.0
 10
96.407350
 20
5.817306
 30
0.0
 10
96.112333
 20
6.112323
 30
0.0
  0
SPLINE
  5
126
100
AcDbEntity
  8
Laag_1
 62
7
100
AcDbSpline
 70
8
 71
3
 72
8
 73
4
 74
0
 40
0
 40
0
 40
0
 40
0
 40
1
 40
1
 40
1
 40
1
 10
96.112333
 20
6.112323
 30
0.0
 10
95.817316
 20
6.407340
 30
0.0
 10
95.417187
 20
6.573079
 30
0.0
 10
94.999970
 20
6.573079
 30
0.0
  0
LWPOLYLINE
  5
127
100
AcDbEntity
  8
Laag_1
 62
7
100
AcDbPolyline
 90
1
 70
1
 10
4.999965
 20
6.573079
 30
0.0
  0
SPLINE
  5
128
100
AcDbEntity
  8
Laag_1
 62
7
100
AcDbSpline
 70
8
 71
3
 72
8
 73
4
 74
0
 40
0
 40
0
 40
0
 40
0
 40
1
 40
1
 40
1
 40
1
 10
14.591271
 20
96.556277
 30
0.0
 10
14.072370
 20
96.556321
 30
0.0
 10
13.574708
 20
96.350208
 30
0.0
 10
13.207790
 20
95.983289
 30
0.0
  0
SPLINE
  5
129
100
AcDbEntity
  8
Laag_1
 62
7
100
AcDbSpline
 70
8
 71
3
 72
8
 73
4
 74
0
 40
0
 40
0
 40
0
 40
0
 40
1
 40
1
 40
1
 40
1
 10
13.207790
 20
95.983289
 30
0.0
 10
12.840871
 20
95.616370
 30
0.0
 10
12.634757
 20
95.118709
 30
0.0
 10
12.634801
 20
94.599808
 30
0.0
  0
SPLINE
  5
12a
100
AcDbEntity
  8
Laag_1
 62
7
100
AcDbSpline
 70
8
 71
3
 72
8
 73
4
 74
0
 40
0
 40
0
 40
0
 40
0
 40
1
 40
1
 40
1
 40
1
 10
12.634801
 20
94.599808
 30
0.0
 10
12.634985
 20
94.585851
 30
0.0
 10
12.635318
 20
94.571897
 30
0.0
 10
12.635801
 20
94.557948
 30
0.0
  0
LWPOLYLINE
  5
12b
100
AcDbEntity
  8
Laag_1
 62
7
100
AcDbPolyline
 90
1
 70
1
 10
94.999970
 20
6.573079
 30
0.0
  0
SPLINE
  5
12c
100
AcDbEntity
  8
Laag_1
 62
7
100
AcDbSpline
 70
8
 71
3
 72
8
 73
4
 74
0
 40
0
 40
0
 40
0
 40
0
 40
1
 40
1
 40
1
 40
1
 10
12.633201
 20
92.026837
 30
0.0
 10
11.403128
 20
91.324174
 30
0.0
 10
10.643869
 20
90.016277
 30
0.0
 10
10.643659
 20
88.599656
 30
0.0
  0
SPLINE
  5
12d
100
AcDbEntity
  8
Laag_1
 62
7
100
AcDbSpline
 70
8
 71
3
 72
8
 73
4
 74
0
 40
0
 40
0
 40
0
 40
0
 40
1
 40
1
 40
1
 40
1
 10
10.643659
 20
88.599656
 30
0.0
 10
10.643684
 20
86.419488
 30
0.0
 10
12.411053
 20
84.652118
 30
0.0
 10
14.591221
 20
84.652093
 30
0.0
  0
SPLINE
  5
12e
100
AcDbEntity
  8
Laag_1
 62
7
100
AcDbSpline
 70
8
 71
3
 72
8
 73
4
 74
0
 40
0
 40
0
 40
0
 40
0
 40
1
 40
1
 40
1
 40
1
 10
14.591221
 20
84.652093
 30
0.0
 10
16.771390
 20
84.652118
 30
0.0
 10
18.538759
 20
86.419487
 30
0.0
 10
18.538784
 20
88.599656
 30
0.0
  0
SPLINE
  5
12f
100
AcDbEntity
  8
Laag_1
 62
7
100
AcDbSpline
 70
8
 71
3
 72
8
 73
4
 74
0
 40
0
 40
0
 40
0
 40
0
 40
1
 40
1
 40
1
 40
1
 10
18.538784
 20
88.599656
 30
0.0
 10
18.538680
 20
90.016170
 30
0.0
 10
17.779632
 20
91.324042
 30
0.0
 10
16.549758
 20
92.026837
 30
0.0
  0
LWPOLYLINE
  5
130
100
AcDbEntity
  8
Laag_1
 62
7
100
AcDbPolyline
 90
3
 70
0
 10
12.635801
 20
94.557948
 30
0.0
 10
12.633201
 20
94.557948
 30
0.0
 10
12.633201
 20
92.026837
 30
0.0
  0
SPLINE
  5
131
100
AcDbEntity
  8
Laag_1
 62
7
100
AcDbSpline
 70
8
 71
3
 72
8
 73
4
 74
0
 40
0
 40
0
 40
0
 40
0
 40
1
 40
1
 40
1
 40
1
 10
16.547158
 20
94.557948
 30
0.0
 10
16.547480
 20
94.571899
 30
0.0
 10
16.547652
 20
94.585853
 30
0.0
 10
16.547675
 20
94.599808
 30
0.0
  0
SPLINE
  5
132
100
AcDbEntity
  8
Laag_1
 62
7
100
AcDbSpline
 70
8
 71
3
 72
8
 73
4
 74
0
 40
0
 40
0
 40
0
 40
0
 40
1
 40
1
 40
1
 40
1
 10
16.547675
 20
94.599808
 30
0.0
 10
16.547719
 20
95.118709
 30
0.0
 10
16.341605
 20
95.616370
 30
0.0
 10
15.974686
 20
95.983289
 30
0.0
  0
SPLINE
  5
133
100
AcDbEntity
  8
Laag_1
 62
7
100
AcDbSpline
 70
8
 71
3
 72
8
 73
4
 74
0
 40
0
 40
0
 40
0
 40
0
 40
1
 40
1
 40
1
 40
1
 10
15.974686
 20
95.983289
 30
0.0
 10
15.607768
 20
96.350208
 30
0.0
 10
15.110106
 20
96.556321
 30
0.0
 10
14.591205
 20
96.556277
 30
0.0
  0
LWPOLYLINE
  5
134
100
AcDbEntity
  8
Laag_1
 62
7
100
AcDbPolyline
 90
3
 70
0
 10
16.549758
 20
92.026837
 30
0.0
 10
16.549758
 20
94.557948
 30
0.0
 10
16.547158
 20
94.557948
 30
0.0
  0
SPLINE
  5
135
100
AcDbEntity
  8
Laag_1
 62
7
100
AcDbSpline
 70
8
 71
3
 72
8
 73
4
 74
0
 40
0
 40
0
 40
0
 40
0
 40
1
 40
1
 40
1
 40
1
 10
85.408760
 20
96.556277
 30
0.0
 10
84.889859
 20
96.556321
 30
0.0
 10
84.392197
 20
96.350208
 30
0.0
 10
84.025279
 20
95.983289
 30
0.0
  0
SPLINE
  5
136
100
AcDbEntity
  8
Laag_1
 62
7
100
AcDbSpline
 70
8
 71
3
 72
8
 73
4
 74
0
 40
0
 40
0
 40
0
 40
0
 40
1
 40
1
 40
1
 40
1
 10
84.025279
 20
95.983289
 30
0.0
 10
83.658360
 20
95.616370
 30
0.0
 10
83.452246
 20
95.118709
 30
0.0
 10
83.452290
 20
94.599808
 30
0.0
  0
SPLINE
  5
137
100
AcDbEntity
  8
Laag_1
 62
7
100
AcDbSpline
 70
8
 71
3
 72
8
 73
4
 74
0
 40
0
 40
0
 40
0
 40
0
 40
1
 40
1
 40
1
 40
1
 10
83.452290
 20
94.599808
 30
0.0
 10
83.452474
 20
94.585851
 30
0.0
 10
83.452807
 20
94.571897
 30
0.0
 10
83.453290
 20
94.557948
 30
0.0
  0
LWPOLYLINE
  5
138
100
AcDbEntity
  8
Laag_1
 62
7
100
AcDbPolyline
 90
1
 70
1
 10
14.591205
 20
96.556277
 30
0.0
  0
SPLINE
  5
139
100
AcDbEntity
  8
Laag_1
 62
7
100
AcDbSpline
 70
8
 71
3
 72
8
 73
4
 74
0
 40
0
 40
0
 40
0
 40
0
 40
1
 40
1
 40
1
 40
1
 10
83.450290
 20
92.026837
 30
0.0
 10
82.220214
 20
91.324176
 30
0.0
 10
81.460952
 20
90.016279
 30
0.0
 10
81.460740
 20
88.599656
 30
0.0
  0
SPLINE
  5
13a
100
AcDbEntity
  8
Laag_1
 62
7
100
AcDbSpline
 70
8
 71
3
 72
8
 73
4
 74
0
 40
0
 40
0
 40
0
 40
0
 40
1
 40
1
 40
1
 40
1
 10
81.460740
 20
88.599656
 30
0.0
 10
81.460765
 20
86.419485
 30
0.0
 10
83.228139
 20
84.652114
 30
0.0
 10
85.408310
 20
84.652093
 30
0.0
  0
SPLINE
  5
13b
100
AcDbEntity
  8
Laag_1
 62
7
100
AcDbSpline
 70
8
 71
3
 72
8
 73
4
 74
0
 40
0
 40
0
 40
0
 40
0
 40
1
 40
1
 40
1
 40
1
 10
85.408310
 20
84.652093
 30
0.0
 10
87.588478
 20
84.652119
 30
0.0
 10
89.355845
 20
86.419488
 30
0.0
 10
89.355870
 20
88.599656
 30
0.0
  0
SPLINE
  5
13c
100
AcDbEntity
  8
Laag_1
 62
7
100
AcDbSpline
 70
8
 71
3
 72
8
 73
4
 74
0
 40
0
 40
0
 40
0
 40
0
 40
1
 40
1
 40
1
 40
1
 10
89.355870
 20
88.599656
 30
0.0
 10
89.355765
 20
90.016171
 30
0.0
 10
88.596716
 20
91.324043
 30
0.0
 10
87.366840
 20
92.026837
 30
0.0
  0
LWPOLYLINE
  5
13d
100
AcDbEntity
  8
Laag_1
 62
7
100
AcDbPolyline
 90
3
 70
0
 10
83.453290
 20
94.557948
 30
0.0
 10
83.450290
 20
94.557948
 30
0.0
 10
83.450290
 20
92.026837
 30
0.0
  0
SPLINE
  5
13e
100
AcDbEntity
  8
Laag_1
 62
7
100
AcDbSpline
 70
8
 71
3
 72
8
 73
4
 74
0
 40
0
 40
0
 40
0
 40
0
 40
1
 40
1
 40
1
 40
1
 10
87.363840
 20
94.557948
 30
0.0
 10
87.364163
 20
94.571899
 30
0.0
 10
87.364336
 20
94.585853
 30
0.0
 10
87.364360
 20
94.599808
 30
0.0
  0
SPLINE
  5
13f
100
AcDbEntity
  8
Laag_1
 62
7
100
AcDbSpline
 70
8
 71
3
 72
8
 73
4
 74
0
 40
0
 40
0
 40
0
 40
0
 40
1
 40
1
 40
1
 40
1
 10
87.364360
 20
94.599808
 30
0.0
 10
87.364404
 20
95.118709
 30
0.0
 10
87.158290
 20
95.616370
 30
0.0
 10
86.791371
 20
95.983289
 30
0.0
  0
SPLINE
  5
140
100
AcDbEntity
  8
Laag_1
 62
7
100
AcDbSpline
 70
8
 71
3
 72
8
 73
4
 74
0
 40
0
 40
0
 40
0
 40
0
 40
1
 40
1
 40
1
 40
1
 10
86.791371
 20
95.983289
 30
0.0
 10
86.424453
 20
96.350208
 30
0.0
 10
85.926791
 20
96.556321
 30
0.0
 10
85.407890
 20
96.556277
 30
0.0
  0
LWPOLYLINE
  5
141
100
AcDbEntity
  8
Laag_1
 62
7
100
AcDbPolyline
 90
3
 70
0
 10
87.366840
 20
92.026837
 30
0.0
 10
87.366840
 20
94.557948
 30
0.0
 10
87.363840
 20
94.557948
 30
0.0
  0
LWPOLYLINE
  5
142
100
AcDbEntity
  8
Laag_1
 62
7
100
AcDbPolyline
 90
2
 70
0
 10
85.407890
 20
96.556277
 30
0.0
 10
85.408760
 20
96.556277
 30
0.0
  0
ENDSEC
  0
SECTION
  2
OBJECTS
  0
DICTIONARY
  5
C
330
0
100
AcDbDictionary
  3
ACAD_GROUP
350
D
  3
ACAD_MLINESTYLE
350
17
  0
DICTIONARY
  5
D
330
C
100
AcDbDictionary
  0
DICTIONARY
  5
1A
330
C
100
AcDbDictionary
  0
DICTIONARY
  5
17
330
C
100
AcDbDictionary
  3
STANDARD
350
18
  0
DICTIONARY
  5
19
330
C
100
AcDbDictionary
  0
ENDSEC
  0
EOF
