%TF.GenerationSoftware,KiCad,Pcbnew,(5.1.6-0-10_14)*%
%TF.CreationDate,2020-08-27T22:21:12+02:00*%
%TF.ProjectId,airquality,61697271-7561-46c6-9974-792e6b696361,rev?*%
%TF.SameCoordinates,Original*%
%TF.FileFunction,Copper,L2,Bot*%
%TF.FilePolarity,Positive*%
%FSLAX46Y46*%
G04 Gerber Fmt 4.6, Leading zero omitted, Abs format (unit mm)*
G04 Created by KiCad (PCBNEW (5.1.6-0-10_14)) date 2020-08-27 22:21:12*
%MOMM*%
%LPD*%
G01*
G04 APERTURE LIST*
%TA.AperFunction,EtchedComponent*%
%ADD10C,1.000000*%
%TD*%
%TA.AperFunction,WasherPad*%
%ADD11O,3.600000X7.100000*%
%TD*%
%TA.AperFunction,WasherPad*%
%ADD12O,7.100000X7.100000*%
%TD*%
%TA.AperFunction,ComponentPad*%
%ADD13R,1.500000X1.050000*%
%TD*%
%TA.AperFunction,ComponentPad*%
%ADD14O,1.500000X1.050000*%
%TD*%
%TA.AperFunction,ComponentPad*%
%ADD15O,1.200000X1.750000*%
%TD*%
%TA.AperFunction,ViaPad*%
%ADD16C,1.000000*%
%TD*%
%TA.AperFunction,ComponentPad*%
%ADD17O,1.700000X1.700000*%
%TD*%
%TA.AperFunction,ComponentPad*%
%ADD18R,1.700000X1.700000*%
%TD*%
%TA.AperFunction,ComponentPad*%
%ADD19R,1.050000X1.500000*%
%TD*%
%TA.AperFunction,ComponentPad*%
%ADD20O,1.050000X1.500000*%
%TD*%
%TA.AperFunction,ComponentPad*%
%ADD21C,1.000000*%
%TD*%
%TA.AperFunction,ComponentPad*%
%ADD22C,1.524000*%
%TD*%
%TA.AperFunction,ViaPad*%
%ADD23C,0.800000*%
%TD*%
%TA.AperFunction,Conductor*%
%ADD24C,0.330000*%
%TD*%
%TA.AperFunction,Conductor*%
%ADD25C,0.250000*%
%TD*%
%TA.AperFunction,Conductor*%
%ADD26C,0.500000*%
%TD*%
G04 APERTURE END LIST*
D10*
%TO.C,AE1*%
X170830000Y-59478000D02*
X171830000Y-60478000D01*
X171830000Y-63478000D02*
X172830000Y-64478000D01*
X171830000Y-60478000D02*
X171830000Y-63478000D01*
X168830000Y-59478000D02*
X169830000Y-60478000D01*
X169830000Y-63478000D02*
X170830000Y-64478000D01*
X169830000Y-60478000D02*
X169830000Y-63478000D01*
X166830000Y-59478000D02*
X167830000Y-60478000D01*
X167830000Y-63478000D02*
X168830000Y-64478000D01*
X167830000Y-60478000D02*
X167830000Y-63478000D01*
X164830000Y-59478000D02*
X165830000Y-60478000D01*
X165830000Y-63478000D02*
X166830000Y-64478000D01*
X165830000Y-60478000D02*
X165830000Y-63478000D01*
X162830000Y-59478000D02*
X163830000Y-60478000D01*
X163830000Y-63478000D02*
X164830000Y-64478000D01*
X163830000Y-60478000D02*
X163830000Y-63478000D01*
X160830000Y-59478000D02*
X161830000Y-60478000D01*
X161830000Y-63478000D02*
X162830000Y-64478000D01*
X161830000Y-60478000D02*
X161830000Y-63478000D01*
X159830000Y-60478000D02*
X159830000Y-63478000D01*
X158830000Y-59478000D02*
X159830000Y-60478000D01*
X159830000Y-63478000D02*
X160830000Y-64478000D01*
X157830000Y-60478000D02*
X157830000Y-63478000D01*
X156830000Y-59478000D02*
X157830000Y-60478000D01*
X157830000Y-63478000D02*
X158830000Y-64478000D01*
X154830000Y-59478000D02*
X155830000Y-60478000D01*
X155830000Y-60478000D02*
X155830000Y-63478000D01*
X155830000Y-63478000D02*
X156830000Y-64478000D01*
%TD*%
D11*
%TO.P,G\u002A\u002A\u002A,*%
%TO.N,*%
X184454800Y-64820800D03*
D12*
X184454800Y-68249800D03*
%TD*%
%TO.P,G\u002A\u002A\u002A,*%
%TO.N,*%
X117703600Y-68249800D03*
D11*
X117703600Y-64820800D03*
%TD*%
D13*
%TO.P,U5,1*%
%TO.N,GND*%
X110439200Y-124256800D03*
D14*
%TO.P,U5,3*%
%TO.N,3.3V*%
X110439200Y-126796800D03*
%TO.P,U5,2*%
%TO.N,1wire*%
X110439200Y-125526800D03*
%TD*%
D15*
%TO.P,J8,4*%
%TO.N,I2C_SCL*%
X149154400Y-141427200D03*
%TO.P,J8,3*%
%TO.N,I2C_SDA*%
X147154400Y-141427200D03*
%TO.P,J8,2*%
%TO.N,3.3V*%
X145154400Y-141427200D03*
%TO.P,J8,1*%
%TO.N,GND*%
%TA.AperFunction,ComponentPad*%
G36*
G01*
X142554400Y-142052201D02*
X142554400Y-140802199D01*
G75*
G02*
X142804399Y-140552200I249999J0D01*
G01*
X143504401Y-140552200D01*
G75*
G02*
X143754400Y-140802199I0J-249999D01*
G01*
X143754400Y-142052201D01*
G75*
G02*
X143504401Y-142302200I-249999J0D01*
G01*
X142804399Y-142302200D01*
G75*
G02*
X142554400Y-142052201I0J249999D01*
G01*
G37*
%TD.AperFunction*%
%TD*%
D13*
%TO.P,U4,1*%
%TO.N,GND*%
X109778800Y-96926400D03*
D14*
%TO.P,U4,3*%
%TO.N,3.3V*%
X109778800Y-99466400D03*
%TO.P,U4,2*%
%TO.N,1wire*%
X109778800Y-98196400D03*
%TD*%
D16*
%TO.N,*%
%TO.C,AE1*%
X154830000Y-59478000D03*
X156830000Y-64478000D03*
X156830000Y-59478000D03*
X158830000Y-59478000D03*
X158830000Y-64478000D03*
X160830000Y-64478000D03*
X160830000Y-59478000D03*
X162830000Y-59478000D03*
X162830000Y-64478000D03*
X164830000Y-64478000D03*
X164830000Y-59478000D03*
X166830000Y-59478000D03*
X166830000Y-64478000D03*
X168830000Y-59478000D03*
X168830000Y-64478000D03*
X170830000Y-64478000D03*
X170830000Y-59478000D03*
X172830000Y-59478000D03*
X172830000Y-64478000D03*
%TD*%
D15*
%TO.P,J7,4*%
%TO.N,I2C_SCL*%
X136454400Y-141427200D03*
%TO.P,J7,3*%
%TO.N,I2C_SDA*%
X134454400Y-141427200D03*
%TO.P,J7,2*%
%TO.N,3.3V*%
X132454400Y-141427200D03*
%TO.P,J7,1*%
%TO.N,GND*%
%TA.AperFunction,ComponentPad*%
G36*
G01*
X129854400Y-142052201D02*
X129854400Y-140802199D01*
G75*
G02*
X130104399Y-140552200I249999J0D01*
G01*
X130804401Y-140552200D01*
G75*
G02*
X131054400Y-140802199I0J-249999D01*
G01*
X131054400Y-142052201D01*
G75*
G02*
X130804401Y-142302200I-249999J0D01*
G01*
X130104399Y-142302200D01*
G75*
G02*
X129854400Y-142052201I0J249999D01*
G01*
G37*
%TD.AperFunction*%
%TD*%
D17*
%TO.P,J6,4*%
%TO.N,I2C_SDA*%
X117398800Y-81280000D03*
%TO.P,J6,3*%
%TO.N,I2C_SCL*%
X119938800Y-81280000D03*
%TO.P,J6,2*%
%TO.N,GND*%
X122478800Y-81280000D03*
D18*
%TO.P,J6,1*%
%TO.N,3.3V*%
X125018800Y-81280000D03*
%TD*%
D19*
%TO.P,U1,1*%
%TO.N,GND*%
X133959600Y-65938400D03*
D20*
%TO.P,U1,3*%
%TO.N,3.3V*%
X131419600Y-65938400D03*
%TO.P,U1,2*%
%TO.N,1wire*%
X132689600Y-65938400D03*
%TD*%
D17*
%TO.P,J4,4*%
%TO.N,I2C_SDA*%
X140309600Y-81280000D03*
%TO.P,J4,3*%
%TO.N,I2C_SCL*%
X142849600Y-81280000D03*
%TO.P,J4,2*%
%TO.N,GND*%
X145389600Y-81280000D03*
D18*
%TO.P,J4,1*%
%TO.N,3.3V*%
X147929600Y-81280000D03*
%TD*%
D15*
%TO.P,J5,4*%
%TO.N,I2C_SCL*%
X124084600Y-141427200D03*
%TO.P,J5,3*%
%TO.N,I2C_SDA*%
X122084600Y-141427200D03*
%TO.P,J5,2*%
%TO.N,3.3V*%
X120084600Y-141427200D03*
%TO.P,J5,1*%
%TO.N,GND*%
%TA.AperFunction,ComponentPad*%
G36*
G01*
X117484600Y-142052201D02*
X117484600Y-140802199D01*
G75*
G02*
X117734599Y-140552200I249999J0D01*
G01*
X118434601Y-140552200D01*
G75*
G02*
X118684600Y-140802199I0J-249999D01*
G01*
X118684600Y-142052201D01*
G75*
G02*
X118434601Y-142302200I-249999J0D01*
G01*
X117734599Y-142302200D01*
G75*
G02*
X117484600Y-142052201I0J249999D01*
G01*
G37*
%TD.AperFunction*%
%TD*%
D17*
%TO.P,J3,20*%
%TO.N,SD0*%
X188747400Y-140728700D03*
%TO.P,J3,19*%
%TO.N,CLK*%
X191287400Y-140728700D03*
%TO.P,J3,18*%
%TO.N,IO15*%
X188747400Y-138188700D03*
%TO.P,J3,17*%
%TO.N,SDI*%
X191287400Y-138188700D03*
%TO.P,J3,16*%
%TO.N,5V*%
X188747400Y-135648700D03*
%TO.P,J3,15*%
%TO.N,IO2*%
X191287400Y-135648700D03*
%TO.P,J3,14*%
%TO.N,GND*%
X188747400Y-133108700D03*
%TO.P,J3,13*%
%TO.N,IO0*%
X191287400Y-133108700D03*
%TO.P,J3,12*%
%TO.N,IO16*%
X188747400Y-130568700D03*
%TO.P,J3,11*%
%TO.N,1wire*%
X191287400Y-130568700D03*
%TO.P,J3,10*%
%TO.N,IO17*%
X188747400Y-128028700D03*
%TO.P,J3,9*%
%TO.N,TDI*%
X191287400Y-128028700D03*
%TO.P,J3,8*%
%TO.N,IO21*%
X188747400Y-125488700D03*
%TO.P,J3,7*%
%TO.N,IO32*%
X191287400Y-125488700D03*
%TO.P,J3,6*%
%TO.N,IO22*%
X188747400Y-122948700D03*
%TO.P,J3,5*%
%TO.N,IO25*%
X191287400Y-122948700D03*
%TO.P,J3,4*%
%TO.N,ESP_RXD*%
X188747400Y-120408700D03*
%TO.P,J3,3*%
%TO.N,IO27*%
X191287400Y-120408700D03*
%TO.P,J3,2*%
%TO.N,ESP_TXD*%
X188747400Y-117868700D03*
D18*
%TO.P,J3,1*%
%TO.N,GND*%
X191287400Y-117868700D03*
%TD*%
D17*
%TO.P,J2,20*%
%TO.N,CMD*%
X163347400Y-140728700D03*
%TO.P,J2,19*%
%TO.N,SD3*%
X165887400Y-140728700D03*
%TO.P,J2,18*%
%TO.N,SD2*%
X163347400Y-138188700D03*
%TO.P,J2,17*%
%TO.N,I2C_SCL*%
X165887400Y-138188700D03*
%TO.P,J2,16*%
%TO.N,NC*%
X163347400Y-135648700D03*
%TO.P,J2,15*%
%TO.N,3.3V*%
X165887400Y-135648700D03*
%TO.P,J2,14*%
%TO.N,IO14*%
X163347400Y-133108700D03*
%TO.P,J2,13*%
%TO.N,IO5*%
X165887400Y-133108700D03*
%TO.P,J2,12*%
%TO.N,IO34*%
X163347400Y-130568700D03*
%TO.P,J2,11*%
%TO.N,I2C_SDA*%
X165887400Y-130568700D03*
%TO.P,J2,10*%
%TO.N,IO33*%
X163347400Y-128028700D03*
%TO.P,J2,9*%
%TO.N,IO19*%
X165887400Y-128028700D03*
%TO.P,J2,8*%
%TO.N,IO35*%
X163347400Y-125488700D03*
%TO.P,J2,7*%
%TO.N,IO18*%
X165887400Y-125488700D03*
%TO.P,J2,6*%
%TO.N,SVN*%
X163347400Y-122948700D03*
%TO.P,J2,5*%
%TO.N,IO26*%
X165887400Y-122948700D03*
%TO.P,J2,4*%
%TO.N,NC*%
X163347400Y-120408700D03*
%TO.P,J2,3*%
%TO.N,SVP*%
X165887400Y-120408700D03*
%TO.P,J2,2*%
%TO.N,GND*%
X163347400Y-117868700D03*
D18*
%TO.P,J2,1*%
%TO.N,RST*%
X165887400Y-117868700D03*
%TD*%
D21*
%TO.P,U2,2*%
%TO.N,5V*%
X120729100Y-95732200D03*
%TO.P,U2,4*%
%TO.N,GND*%
X121999100Y-95732200D03*
%TO.P,U2,6*%
%TO.N,Net-(U2-Pad6)*%
X123269100Y-95732200D03*
%TO.P,U2,8*%
%TO.N,Net-(U2-Pad8)*%
X124539100Y-95732200D03*
%TO.P,U2,10*%
%TO.N,Net-(U2-Pad10)*%
X125809100Y-95732200D03*
%TO.P,U2,9*%
%TO.N,IO25*%
X125809100Y-94572200D03*
%TO.P,U2,7*%
%TO.N,IO32*%
X124539100Y-94572200D03*
%TO.P,U2,5*%
%TO.N,Net-(U2-Pad5)*%
X123269100Y-94572200D03*
%TO.P,U2,3*%
%TO.N,GND*%
X121999100Y-94572200D03*
%TO.P,U2,1*%
%TO.N,5V*%
X120729100Y-94572200D03*
%TD*%
D22*
%TO.P,J1,5*%
%TO.N,Net-(J1-Pad5)*%
X179730400Y-74350200D03*
%TO.P,J1,*%
%TO.N,*%
X182270400Y-74350200D03*
%TO.P,J1,7*%
%TO.N,IO22*%
X184810400Y-74350200D03*
%TO.P,J1,6*%
%TO.N,IO21*%
X187350400Y-74350200D03*
%TO.P,J1,3*%
%TO.N,5V*%
X189890400Y-74350200D03*
%TO.P,J1,4*%
%TO.N,Net-(J1-Pad4)*%
X182270400Y-103835200D03*
%TO.P,J1,*%
%TO.N,*%
X184810400Y-103835200D03*
%TO.P,J1,2*%
%TO.N,GND*%
X187350400Y-103835200D03*
%TO.P,J1,1*%
%TO.N,Net-(J1-Pad1)*%
X189890400Y-103835200D03*
%TD*%
D23*
%TO.N,3.3V*%
X130606800Y-76149200D03*
X120751600Y-78638400D03*
%TO.N,IO5*%
X166878000Y-85344000D03*
X168046400Y-88138000D03*
%TO.N,IO18*%
X173837600Y-83769200D03*
X173939200Y-86563200D03*
X168910000Y-125069600D03*
%TO.N,GND*%
X169621200Y-89865200D03*
X176733200Y-89865200D03*
X163271200Y-91541600D03*
%TO.N,5V*%
X153720800Y-93167200D03*
%TO.N,IO32*%
X129692400Y-94183200D03*
X131165600Y-96469200D03*
%TO.N,I2C_SDA*%
X126542800Y-142595600D03*
X139547600Y-94691200D03*
X139750800Y-91135200D03*
%TO.N,I2C_SCL*%
X136448800Y-138734800D03*
X141376400Y-94538800D03*
X141528800Y-90982800D03*
%TO.N,1wire*%
X112725200Y-99517200D03*
%TO.N,IO14*%
X160121600Y-84023200D03*
X158953200Y-89052400D03*
X160274000Y-122478800D03*
X158597600Y-124561602D03*
%TD*%
D24*
%TO.N,3.3V*%
X126233801Y-80064999D02*
X125018800Y-81280000D01*
X147929600Y-81280000D02*
X146714599Y-80064999D01*
X128062601Y-78693399D02*
X130606800Y-76149200D01*
X128062601Y-80064999D02*
X128062601Y-78693399D01*
X146714599Y-80064999D02*
X128062601Y-80064999D01*
X128062601Y-80064999D02*
X126233801Y-80064999D01*
X125018800Y-81280000D02*
X122377200Y-78638400D01*
X122377200Y-78638400D02*
X120751600Y-78638400D01*
X130066800Y-143814800D02*
X132454400Y-141427200D01*
X122472200Y-143814800D02*
X130066800Y-143814800D01*
X120084600Y-141427200D02*
X122472200Y-143814800D01*
X145154400Y-142221200D02*
X145154400Y-141427200D01*
X143459200Y-143916400D02*
X145154400Y-142221200D01*
X133858000Y-143916400D02*
X143459200Y-143916400D01*
X132454400Y-142512800D02*
X133858000Y-143916400D01*
X132454400Y-141427200D02*
X132454400Y-142512800D01*
X145514670Y-141427200D02*
X145154400Y-141427200D01*
X164562401Y-136973699D02*
X149968171Y-136973699D01*
X149968171Y-136973699D02*
X145514670Y-141427200D01*
X165887400Y-135648700D02*
X164562401Y-136973699D01*
D25*
%TO.N,IO5*%
X166878000Y-86969600D02*
X168046400Y-88138000D01*
X166878000Y-85344000D02*
X166878000Y-86969600D01*
%TO.N,IO18*%
X173837600Y-86461600D02*
X173939200Y-86563200D01*
X173837600Y-83769200D02*
X173837600Y-86461600D01*
X168490900Y-125488700D02*
X165887400Y-125488700D01*
X168910000Y-125069600D02*
X168490900Y-125488700D01*
D26*
%TO.N,GND*%
X173380400Y-89865200D02*
X169621200Y-89865200D01*
X176733200Y-89865200D02*
X173380400Y-89865200D01*
X164947600Y-89865200D02*
X169621200Y-89865200D01*
X163271200Y-91541600D02*
X164947600Y-89865200D01*
D24*
X155651200Y-91541600D02*
X145389600Y-81280000D01*
X163271200Y-91541600D02*
X155651200Y-91541600D01*
X124409200Y-83210400D02*
X122478800Y-81280000D01*
X145389600Y-81280000D02*
X143459200Y-83210400D01*
X124409200Y-83210400D02*
X124409200Y-89306400D01*
X121999100Y-91716500D02*
X121999100Y-94572200D01*
X124409200Y-89306400D02*
X121999100Y-91716500D01*
X121999100Y-95732200D02*
X121999100Y-94572200D01*
X121999100Y-95742402D02*
X121999100Y-95732200D01*
X120815102Y-96926400D02*
X121999100Y-95742402D01*
X109778800Y-96926400D02*
X120815102Y-96926400D01*
X119324610Y-140187190D02*
X118084600Y-141427200D01*
X129214390Y-140187190D02*
X119324610Y-140187190D01*
X130454400Y-141427200D02*
X129214390Y-140187190D01*
X118084600Y-130822200D02*
X118084600Y-141427200D01*
X111519200Y-124256800D02*
X118084600Y-130822200D01*
X110439200Y-124256800D02*
X111519200Y-124256800D01*
X134054680Y-142667210D02*
X141914390Y-142667210D01*
X141914390Y-142667210D02*
X143154400Y-141427200D01*
X133489390Y-140752480D02*
X133489390Y-142101920D01*
X132924100Y-140187190D02*
X133489390Y-140752480D01*
X133489390Y-142101920D02*
X134054680Y-142667210D01*
X131694410Y-140187190D02*
X132924100Y-140187190D01*
X130454400Y-141427200D02*
X131694410Y-140187190D01*
X130454400Y-83210400D02*
X130759200Y-83210400D01*
X143459200Y-83210400D02*
X130454400Y-83210400D01*
X130454400Y-83210400D02*
X124409200Y-83210400D01*
X192502401Y-119083701D02*
X191287400Y-117868700D01*
X192502401Y-133691901D02*
X192502401Y-119083701D01*
X191870601Y-134323701D02*
X192502401Y-133691901D01*
X189962401Y-134323701D02*
X191870601Y-134323701D01*
X188747400Y-133108700D02*
X189962401Y-134323701D01*
D25*
X161340800Y-119875300D02*
X163347400Y-117868700D01*
X161340800Y-123240800D02*
X161340800Y-119875300D01*
D24*
X161340800Y-123407802D02*
X161340800Y-123240800D01*
X157898001Y-126850601D02*
X161340800Y-123407802D01*
X143154400Y-141427200D02*
X157730999Y-126850601D01*
X157730999Y-126850601D02*
X157898001Y-126850601D01*
%TO.N,5V*%
X176428400Y-93167200D02*
X153720800Y-93167200D01*
X189118999Y-80476601D02*
X176428400Y-93167200D01*
D25*
X189118999Y-75121601D02*
X189890400Y-74350200D01*
X189118999Y-80476601D02*
X189118999Y-75121601D01*
D24*
%TO.N,IO32*%
X125404101Y-93707199D02*
X129216399Y-93707199D01*
X129216399Y-93707199D02*
X129692400Y-94183200D01*
X124539100Y-94572200D02*
X125404101Y-93707199D01*
X185775600Y-116573546D02*
X185775600Y-122631200D01*
X166230054Y-97028000D02*
X185775600Y-116573546D01*
X131724400Y-97028000D02*
X166230054Y-97028000D01*
X131165600Y-96469200D02*
X131724400Y-97028000D01*
X189962401Y-124163701D02*
X191287400Y-125488700D01*
X187308101Y-124163701D02*
X189962401Y-124163701D01*
X185775600Y-122631200D02*
X187308101Y-124163701D01*
%TO.N,IO25*%
X126516206Y-94572200D02*
X125809100Y-94572200D01*
X165407801Y-95456201D02*
X127400207Y-95456201D01*
X187968501Y-119083701D02*
X186305610Y-117420810D01*
X189220603Y-119083701D02*
X187968501Y-119083701D01*
X127400207Y-95456201D02*
X126516206Y-94572200D01*
X189962401Y-119825499D02*
X189220603Y-119083701D01*
X186305610Y-117420810D02*
X186305610Y-116354010D01*
X189962401Y-121623701D02*
X189962401Y-119825499D01*
X186305610Y-116354010D02*
X165407801Y-95456201D01*
X191287400Y-122948700D02*
X189962401Y-121623701D01*
D25*
%TO.N,I2C_SDA*%
X123652999Y-142995599D02*
X122084600Y-141427200D01*
X126142801Y-142995599D02*
X123652999Y-142995599D01*
X126542800Y-142595600D02*
X126142801Y-142995599D01*
D24*
X139547600Y-91338400D02*
X139750800Y-91135200D01*
X139547600Y-94691200D02*
X139547600Y-91338400D01*
%TO.N,I2C_SCL*%
X136454400Y-141427200D02*
X136448800Y-141427200D01*
X136448800Y-141427200D02*
X136448800Y-138734800D01*
X141376400Y-91135200D02*
X141528800Y-90982800D01*
X141376400Y-94538800D02*
X141376400Y-91135200D01*
%TO.N,1wire*%
X111404400Y-98196400D02*
X109778800Y-98196400D01*
X112725200Y-99517200D02*
X111404400Y-98196400D01*
X132689600Y-67018400D02*
X129146800Y-70561200D01*
X132689600Y-65938400D02*
X132689600Y-67018400D01*
X109116798Y-98196400D02*
X109778800Y-98196400D01*
X108663799Y-97743401D02*
X109116798Y-98196400D01*
X126319398Y-70561200D02*
X108663799Y-88216799D01*
X108663799Y-88216799D02*
X108663799Y-97743401D01*
X129146800Y-70561200D02*
X126319398Y-70561200D01*
X190072399Y-131783701D02*
X176630601Y-131783701D01*
X191287400Y-130568700D02*
X190072399Y-131783701D01*
D25*
X109364190Y-134494980D02*
X120970010Y-146100800D01*
X109364190Y-125601810D02*
X109364190Y-134494980D01*
X109439200Y-125526800D02*
X109364190Y-125601810D01*
X110439200Y-125526800D02*
X109439200Y-125526800D01*
X162313502Y-146100800D02*
X176630601Y-131783701D01*
X120970010Y-146100800D02*
X162313502Y-146100800D01*
%TO.N,IO14*%
X160121600Y-84023200D02*
X160121600Y-87884000D01*
X160121600Y-87884000D02*
X158953200Y-89052400D01*
X160274000Y-122478800D02*
X158597600Y-124155200D01*
X158597600Y-124155200D02*
X158597600Y-124561602D01*
%TD*%
M02*
