%TF.GenerationSoftware,KiCad,Pcbnew,(5.1.6-0-10_14)*%
%TF.CreationDate,2020-08-27T22:21:12+02:00*%
%TF.ProjectId,airquality,61697271-7561-46c6-9974-792e6b696361,rev?*%
%TF.SameCoordinates,Original*%
%TF.FileFunction,Profile,NP*%
%FSLAX46Y46*%
G04 Gerber Fmt 4.6, Leading zero omitted, Abs format (unit mm)*
G04 Created by KiCad (PCBNEW (5.1.6-0-10_14)) date 2020-08-27 22:21:12*
%MOMM*%
%LPD*%
G01*
G04 APERTURE LIST*
%TA.AperFunction,Profile*%
%ADD10C,0.100000*%
%TD*%
G04 APERTURE END LIST*
D10*
X100995645Y-63293171D02*
X100997740Y-63124234D01*
X100997740Y-63124234D02*
X101004006Y-62955801D01*
X101004006Y-62955801D02*
X101014415Y-62787940D01*
X101014415Y-62787940D02*
X101028937Y-62620721D01*
X101028937Y-62620721D02*
X101047543Y-62454214D01*
X101047543Y-62454214D02*
X101070205Y-62288489D01*
X101070205Y-62288489D02*
X101096894Y-62123615D01*
X101096894Y-62123615D02*
X101127581Y-61959662D01*
X101127581Y-61959662D02*
X101162237Y-61796699D01*
X101162237Y-61796699D02*
X101200833Y-61634797D01*
X101200833Y-61634797D02*
X101243340Y-61474025D01*
X101243340Y-61474025D02*
X101289730Y-61314453D01*
X101289730Y-61314453D02*
X101339973Y-61156151D01*
X101339973Y-61156151D02*
X101394041Y-60999187D01*
X101394041Y-60999187D02*
X101451905Y-60843633D01*
X101451905Y-60843633D02*
X101513536Y-60689557D01*
X101513536Y-60689557D02*
X101578904Y-60537030D01*
X101578904Y-60537030D02*
X101647982Y-60386120D01*
X101647982Y-60386120D02*
X101720740Y-60236899D01*
X101720740Y-60236899D02*
X101797150Y-60089435D01*
X101797150Y-60089435D02*
X101877182Y-59943798D01*
X101877182Y-59943798D02*
X101960808Y-59800058D01*
X101960808Y-59800058D02*
X102047998Y-59658284D01*
X102047998Y-59658284D02*
X102138725Y-59518547D01*
X102138725Y-59518547D02*
X102232958Y-59380916D01*
X102232958Y-59380916D02*
X102330670Y-59245460D01*
X102330670Y-59245460D02*
X102431831Y-59112250D01*
X102431831Y-59112250D02*
X102536412Y-58981355D01*
X102536412Y-58981355D02*
X102644385Y-58852845D01*
X102644385Y-58852845D02*
X102755721Y-58726789D01*
X102755721Y-58726789D02*
X102870390Y-58603258D01*
X102870390Y-58603258D02*
X102988365Y-58482321D01*
X194106800Y-156404326D02*
X107799216Y-156404326D01*
X102988365Y-154411606D02*
X102870390Y-154290668D01*
X102870390Y-154290668D02*
X102755721Y-154167137D01*
X102755721Y-154167137D02*
X102644385Y-154041081D01*
X102644385Y-154041081D02*
X102536412Y-153912571D01*
X102536412Y-153912571D02*
X102431831Y-153781676D01*
X102431831Y-153781676D02*
X102330670Y-153648466D01*
X102330670Y-153648466D02*
X102232958Y-153513010D01*
X102232958Y-153513010D02*
X102138725Y-153375379D01*
X102138725Y-153375379D02*
X102047998Y-153235642D01*
X102047998Y-153235642D02*
X101960808Y-153093868D01*
X101960808Y-153093868D02*
X101877182Y-152950128D01*
X101877182Y-152950128D02*
X101797150Y-152804491D01*
X101797150Y-152804491D02*
X101720740Y-152657027D01*
X101720740Y-152657027D02*
X101647982Y-152507805D01*
X101647982Y-152507805D02*
X101578904Y-152356896D01*
X101578904Y-152356896D02*
X101513536Y-152204368D01*
X101513536Y-152204368D02*
X101451905Y-152050292D01*
X101451905Y-152050292D02*
X101394041Y-151894738D01*
X101394041Y-151894738D02*
X101339973Y-151737775D01*
X101339973Y-151737775D02*
X101289730Y-151579472D01*
X101289730Y-151579472D02*
X101243340Y-151419900D01*
X101243340Y-151419900D02*
X101200833Y-151259128D01*
X101200833Y-151259128D02*
X101162237Y-151097226D01*
X101162237Y-151097226D02*
X101127581Y-150934263D01*
X101127581Y-150934263D02*
X101096894Y-150770310D01*
X101096894Y-150770310D02*
X101070205Y-150605436D01*
X101070205Y-150605436D02*
X101047543Y-150439711D01*
X101047543Y-150439711D02*
X101028937Y-150273204D01*
X101028937Y-150273204D02*
X101014415Y-150105985D01*
X101014415Y-150105985D02*
X101004006Y-149938124D01*
X101004006Y-149938124D02*
X100997740Y-149769691D01*
X100997740Y-149769691D02*
X100995645Y-149600755D01*
X107799216Y-156404326D02*
X107630279Y-156402230D01*
X107630279Y-156402230D02*
X107461846Y-156395964D01*
X107461846Y-156395964D02*
X107293985Y-156385555D01*
X107293985Y-156385555D02*
X107126766Y-156371033D01*
X107126766Y-156371033D02*
X106960259Y-156352427D01*
X106960259Y-156352427D02*
X106794534Y-156329765D01*
X106794534Y-156329765D02*
X106629660Y-156303076D01*
X106629660Y-156303076D02*
X106465707Y-156272389D01*
X106465707Y-156272389D02*
X106302744Y-156237733D01*
X106302744Y-156237733D02*
X106140842Y-156199137D01*
X106140842Y-156199137D02*
X105980070Y-156156630D01*
X105980070Y-156156630D02*
X105820498Y-156110240D01*
X105820498Y-156110240D02*
X105662195Y-156059997D01*
X105662195Y-156059997D02*
X105505232Y-156005929D01*
X105505232Y-156005929D02*
X105349678Y-155948065D01*
X105349678Y-155948065D02*
X105195602Y-155886434D01*
X105195602Y-155886434D02*
X105043074Y-155821066D01*
X105043074Y-155821066D02*
X104892165Y-155751988D01*
X104892165Y-155751988D02*
X104742943Y-155679230D01*
X104742943Y-155679230D02*
X104595479Y-155602820D01*
X104595479Y-155602820D02*
X104449842Y-155522788D01*
X104449842Y-155522788D02*
X104306102Y-155439162D01*
X104306102Y-155439162D02*
X104164328Y-155351972D01*
X104164328Y-155351972D02*
X104024591Y-155261245D01*
X104024591Y-155261245D02*
X103886960Y-155167012D01*
X103886960Y-155167012D02*
X103751504Y-155069300D01*
X103751504Y-155069300D02*
X103618294Y-154968139D01*
X103618294Y-154968139D02*
X103487399Y-154863558D01*
X103487399Y-154863558D02*
X103358889Y-154755585D01*
X103358889Y-154755585D02*
X103232833Y-154644249D01*
X103232833Y-154644249D02*
X103109302Y-154529580D01*
X103109302Y-154529580D02*
X102988365Y-154411606D01*
X200910371Y-63293171D02*
X200910371Y-149600755D01*
X198917651Y-154411606D02*
X198796713Y-154529580D01*
X198796713Y-154529580D02*
X198673182Y-154644249D01*
X198673182Y-154644249D02*
X198547126Y-154755585D01*
X198547126Y-154755585D02*
X198418616Y-154863558D01*
X198418616Y-154863558D02*
X198287721Y-154968139D01*
X198287721Y-154968139D02*
X198154511Y-155069300D01*
X198154511Y-155069300D02*
X198019055Y-155167012D01*
X198019055Y-155167012D02*
X197881424Y-155261245D01*
X197881424Y-155261245D02*
X197741687Y-155351972D01*
X197741687Y-155351972D02*
X197599913Y-155439162D01*
X197599913Y-155439162D02*
X197456173Y-155522788D01*
X197456173Y-155522788D02*
X197310536Y-155602820D01*
X197310536Y-155602820D02*
X197163072Y-155679230D01*
X197163072Y-155679230D02*
X197013850Y-155751988D01*
X197013850Y-155751988D02*
X196862941Y-155821066D01*
X196862941Y-155821066D02*
X196710413Y-155886434D01*
X196710413Y-155886434D02*
X196556337Y-155948065D01*
X196556337Y-155948065D02*
X196400783Y-156005929D01*
X196400783Y-156005929D02*
X196243820Y-156059997D01*
X196243820Y-156059997D02*
X196085517Y-156110240D01*
X196085517Y-156110240D02*
X195925945Y-156156630D01*
X195925945Y-156156630D02*
X195765173Y-156199137D01*
X195765173Y-156199137D02*
X195603271Y-156237733D01*
X195603271Y-156237733D02*
X195440308Y-156272389D01*
X195440308Y-156272389D02*
X195276355Y-156303076D01*
X195276355Y-156303076D02*
X195111481Y-156329765D01*
X195111481Y-156329765D02*
X194945756Y-156352427D01*
X194945756Y-156352427D02*
X194779249Y-156371033D01*
X194779249Y-156371033D02*
X194612030Y-156385555D01*
X194612030Y-156385555D02*
X194444169Y-156395964D01*
X194444169Y-156395964D02*
X194275736Y-156402230D01*
X194275736Y-156402230D02*
X194106800Y-156404326D01*
X200910371Y-149600755D02*
X200908275Y-149769691D01*
X200908275Y-149769691D02*
X200902009Y-149938124D01*
X200902009Y-149938124D02*
X200891600Y-150105985D01*
X200891600Y-150105985D02*
X200877078Y-150273204D01*
X200877078Y-150273204D02*
X200858472Y-150439711D01*
X200858472Y-150439711D02*
X200835810Y-150605436D01*
X200835810Y-150605436D02*
X200809121Y-150770310D01*
X200809121Y-150770310D02*
X200778434Y-150934263D01*
X200778434Y-150934263D02*
X200743778Y-151097226D01*
X200743778Y-151097226D02*
X200705182Y-151259128D01*
X200705182Y-151259128D02*
X200662675Y-151419900D01*
X200662675Y-151419900D02*
X200616285Y-151579472D01*
X200616285Y-151579472D02*
X200566042Y-151737775D01*
X200566042Y-151737775D02*
X200511974Y-151894738D01*
X200511974Y-151894738D02*
X200454110Y-152050292D01*
X200454110Y-152050292D02*
X200392479Y-152204368D01*
X200392479Y-152204368D02*
X200327111Y-152356896D01*
X200327111Y-152356896D02*
X200258033Y-152507805D01*
X200258033Y-152507805D02*
X200185275Y-152657027D01*
X200185275Y-152657027D02*
X200108865Y-152804491D01*
X200108865Y-152804491D02*
X200028833Y-152950128D01*
X200028833Y-152950128D02*
X199945207Y-153093868D01*
X199945207Y-153093868D02*
X199858017Y-153235642D01*
X199858017Y-153235642D02*
X199767290Y-153375379D01*
X199767290Y-153375379D02*
X199673057Y-153513010D01*
X199673057Y-153513010D02*
X199575345Y-153648466D01*
X199575345Y-153648466D02*
X199474184Y-153781676D01*
X199474184Y-153781676D02*
X199369603Y-153912571D01*
X199369603Y-153912571D02*
X199261630Y-154041081D01*
X199261630Y-154041081D02*
X199150294Y-154167137D01*
X199150294Y-154167137D02*
X199035625Y-154290668D01*
X199035625Y-154290668D02*
X198917651Y-154411606D01*
X107799216Y-56489600D02*
X194106800Y-56489600D01*
X198917651Y-58482321D02*
X199035625Y-58603258D01*
X199035625Y-58603258D02*
X199150294Y-58726789D01*
X199150294Y-58726789D02*
X199261630Y-58852845D01*
X199261630Y-58852845D02*
X199369603Y-58981355D01*
X199369603Y-58981355D02*
X199474184Y-59112250D01*
X199474184Y-59112250D02*
X199575345Y-59245460D01*
X199575345Y-59245460D02*
X199673057Y-59380916D01*
X199673057Y-59380916D02*
X199767290Y-59518547D01*
X199767290Y-59518547D02*
X199858017Y-59658284D01*
X199858017Y-59658284D02*
X199945207Y-59800058D01*
X199945207Y-59800058D02*
X200028833Y-59943798D01*
X200028833Y-59943798D02*
X200108865Y-60089435D01*
X200108865Y-60089435D02*
X200185275Y-60236899D01*
X200185275Y-60236899D02*
X200258033Y-60386120D01*
X200258033Y-60386120D02*
X200327111Y-60537030D01*
X200327111Y-60537030D02*
X200392479Y-60689557D01*
X200392479Y-60689557D02*
X200454110Y-60843633D01*
X200454110Y-60843633D02*
X200511974Y-60999187D01*
X200511974Y-60999187D02*
X200566042Y-61156151D01*
X200566042Y-61156151D02*
X200616285Y-61314453D01*
X200616285Y-61314453D02*
X200662675Y-61474025D01*
X200662675Y-61474025D02*
X200705182Y-61634797D01*
X200705182Y-61634797D02*
X200743778Y-61796699D01*
X200743778Y-61796699D02*
X200778434Y-61959662D01*
X200778434Y-61959662D02*
X200809121Y-62123615D01*
X200809121Y-62123615D02*
X200835810Y-62288489D01*
X200835810Y-62288489D02*
X200858472Y-62454214D01*
X200858472Y-62454214D02*
X200877078Y-62620721D01*
X200877078Y-62620721D02*
X200891600Y-62787940D01*
X200891600Y-62787940D02*
X200902009Y-62955801D01*
X200902009Y-62955801D02*
X200908275Y-63124234D01*
X200908275Y-63124234D02*
X200910371Y-63293171D01*
X107799216Y-56489600D02*
X107799216Y-56489600D01*
X100995645Y-149600755D02*
X100995645Y-63293171D01*
X102988365Y-58482321D02*
X103109302Y-58364346D01*
X103109302Y-58364346D02*
X103232833Y-58249677D01*
X103232833Y-58249677D02*
X103358889Y-58138341D01*
X103358889Y-58138341D02*
X103487399Y-58030368D01*
X103487399Y-58030368D02*
X103618294Y-57925786D01*
X103618294Y-57925786D02*
X103751504Y-57824625D01*
X103751504Y-57824625D02*
X103886960Y-57726913D01*
X103886960Y-57726913D02*
X104024591Y-57632680D01*
X104024591Y-57632680D02*
X104164328Y-57541953D01*
X104164328Y-57541953D02*
X104306102Y-57454763D01*
X104306102Y-57454763D02*
X104449842Y-57371137D01*
X104449842Y-57371137D02*
X104595479Y-57291105D01*
X104595479Y-57291105D02*
X104742943Y-57214695D01*
X104742943Y-57214695D02*
X104892165Y-57141937D01*
X104892165Y-57141937D02*
X105043074Y-57072859D01*
X105043074Y-57072859D02*
X105195602Y-57007491D01*
X105195602Y-57007491D02*
X105349678Y-56945860D01*
X105349678Y-56945860D02*
X105505232Y-56887996D01*
X105505232Y-56887996D02*
X105662195Y-56833928D01*
X105662195Y-56833928D02*
X105820498Y-56783685D01*
X105820498Y-56783685D02*
X105980070Y-56737295D01*
X105980070Y-56737295D02*
X106140842Y-56694788D01*
X106140842Y-56694788D02*
X106302744Y-56656192D01*
X106302744Y-56656192D02*
X106465707Y-56621536D01*
X106465707Y-56621536D02*
X106629660Y-56590849D01*
X106629660Y-56590849D02*
X106794534Y-56564160D01*
X106794534Y-56564160D02*
X106960259Y-56541498D01*
X106960259Y-56541498D02*
X107126766Y-56522892D01*
X107126766Y-56522892D02*
X107293985Y-56508370D01*
X107293985Y-56508370D02*
X107461846Y-56497961D01*
X107461846Y-56497961D02*
X107630279Y-56491695D01*
X107630279Y-56491695D02*
X107799216Y-56489600D01*
X194106800Y-56489600D02*
X194275736Y-56491695D01*
X194275736Y-56491695D02*
X194444169Y-56497961D01*
X194444169Y-56497961D02*
X194612030Y-56508370D01*
X194612030Y-56508370D02*
X194779249Y-56522892D01*
X194779249Y-56522892D02*
X194945756Y-56541498D01*
X194945756Y-56541498D02*
X195111481Y-56564160D01*
X195111481Y-56564160D02*
X195276355Y-56590849D01*
X195276355Y-56590849D02*
X195440308Y-56621536D01*
X195440308Y-56621536D02*
X195603271Y-56656192D01*
X195603271Y-56656192D02*
X195765173Y-56694788D01*
X195765173Y-56694788D02*
X195925945Y-56737295D01*
X195925945Y-56737295D02*
X196085517Y-56783685D01*
X196085517Y-56783685D02*
X196243820Y-56833928D01*
X196243820Y-56833928D02*
X196400783Y-56887996D01*
X196400783Y-56887996D02*
X196556337Y-56945860D01*
X196556337Y-56945860D02*
X196710413Y-57007491D01*
X196710413Y-57007491D02*
X196862941Y-57072859D01*
X196862941Y-57072859D02*
X197013850Y-57141937D01*
X197013850Y-57141937D02*
X197163072Y-57214695D01*
X197163072Y-57214695D02*
X197310536Y-57291105D01*
X197310536Y-57291105D02*
X197456173Y-57371137D01*
X197456173Y-57371137D02*
X197599913Y-57454763D01*
X197599913Y-57454763D02*
X197741687Y-57541953D01*
X197741687Y-57541953D02*
X197881424Y-57632680D01*
X197881424Y-57632680D02*
X198019055Y-57726913D01*
X198019055Y-57726913D02*
X198154511Y-57824625D01*
X198154511Y-57824625D02*
X198287721Y-57925786D01*
X198287721Y-57925786D02*
X198418616Y-58030368D01*
X198418616Y-58030368D02*
X198547126Y-58138341D01*
X198547126Y-58138341D02*
X198673182Y-58249677D01*
X198673182Y-58249677D02*
X198796713Y-58364346D01*
X198796713Y-58364346D02*
X198917651Y-58482321D01*
M02*
