%TF.GenerationSoftware,KiCad,Pcbnew,(5.1.6-0-10_14)*%
%TF.CreationDate,2020-09-22T10:55:38+02:00*%
%TF.ProjectId,airquality,61697271-7561-46c6-9974-792e6b696361,rev?*%
%TF.SameCoordinates,Original*%
%TF.FileFunction,Copper,L2,Bot*%
%TF.FilePolarity,Positive*%
%FSLAX46Y46*%
G04 Gerber Fmt 4.6, Leading zero omitted, Abs format (unit mm)*
G04 Created by KiCad (PCBNEW (5.1.6-0-10_14)) date 2020-09-22 10:55:38*
%MOMM*%
%LPD*%
G01*
G04 APERTURE LIST*
%TA.AperFunction,ComponentPad*%
%ADD10C,1.000000*%
%TD*%
%TA.AperFunction,ComponentPad*%
%ADD11C,1.700000*%
%TD*%
%TA.AperFunction,WasherPad*%
%ADD12O,7.100000X7.100000*%
%TD*%
%TA.AperFunction,WasherPad*%
%ADD13O,3.600000X7.100000*%
%TD*%
%TA.AperFunction,ComponentPad*%
%ADD14O,1.700000X1.700000*%
%TD*%
%TA.AperFunction,ComponentPad*%
%ADD15R,1.700000X1.700000*%
%TD*%
%TA.AperFunction,ComponentPad*%
%ADD16R,1.500000X1.050000*%
%TD*%
%TA.AperFunction,ComponentPad*%
%ADD17O,1.500000X1.050000*%
%TD*%
%TA.AperFunction,ComponentPad*%
%ADD18O,1.200000X1.750000*%
%TD*%
%TA.AperFunction,ComponentPad*%
%ADD19R,1.050000X1.500000*%
%TD*%
%TA.AperFunction,ComponentPad*%
%ADD20O,1.050000X1.500000*%
%TD*%
%TA.AperFunction,ComponentPad*%
%ADD21C,1.524000*%
%TD*%
%TA.AperFunction,ViaPad*%
%ADD22C,0.800000*%
%TD*%
%TA.AperFunction,Conductor*%
%ADD23C,0.250000*%
%TD*%
%TA.AperFunction,Conductor*%
%ADD24C,0.330000*%
%TD*%
G04 APERTURE END LIST*
D10*
%TO.P,U1,2*%
%TO.N,5V*%
X108435500Y-83591000D03*
%TO.P,U1,4*%
%TO.N,GND*%
X109705500Y-83591000D03*
%TO.P,U1,6*%
%TO.N,Net-(U1-Pad6)*%
X110975500Y-83591000D03*
%TO.P,U1,8*%
%TO.N,Net-(U1-Pad8)*%
X112245500Y-83591000D03*
%TO.P,U1,10*%
%TO.N,Net-(U1-Pad10)*%
X113515500Y-83591000D03*
%TO.P,U1,9*%
%TO.N,IO25*%
X113515500Y-82431000D03*
%TO.P,U1,7*%
%TO.N,IO32*%
X112245500Y-82431000D03*
%TO.P,U1,5*%
%TO.N,Net-(U1-Pad5)*%
X110975500Y-82431000D03*
%TO.P,U1,3*%
%TO.N,GND*%
X109705500Y-82431000D03*
%TO.P,U1,1*%
%TO.N,5V*%
X108435500Y-82431000D03*
%TD*%
D11*
%TO.P,J22,1*%
%TO.N,1wire*%
X189166500Y-118249700D03*
%TD*%
D12*
%TO.P,H4,*%
%TO.N,*%
X110172500Y-57594500D03*
D13*
X110172500Y-54165500D03*
%TD*%
D12*
%TO.P,H3,*%
%TO.N,*%
X180975000Y-57594500D03*
D13*
X180975000Y-54165500D03*
%TD*%
D11*
%TO.P,J25,1*%
%TO.N,Net-(D1-Pad4)*%
X145669000Y-109093000D03*
%TD*%
%TO.P,J14,1*%
%TO.N,GND*%
X189141100Y-125907800D03*
%TD*%
%TO.P,J15,1*%
%TO.N,GND*%
X189141100Y-128460500D03*
%TD*%
%TO.P,J4,1*%
%TO.N,IO16*%
X189166500Y-115709700D03*
%TD*%
%TO.P,J3,1*%
%TO.N,IO17*%
X189166500Y-113169700D03*
%TD*%
D14*
%TO.P,J23,4*%
%TO.N,I2C_SDA*%
X144310100Y-64249300D03*
%TO.P,J23,3*%
%TO.N,I2C_SCL*%
X141770100Y-64249300D03*
%TO.P,J23,2*%
%TO.N,3.3V*%
X139230100Y-64249300D03*
D15*
%TO.P,J23,1*%
%TO.N,GND*%
X136690100Y-64249300D03*
%TD*%
D14*
%TO.P,J24,4*%
%TO.N,I2C_SCL*%
X125641100Y-64249300D03*
%TO.P,J24,3*%
%TO.N,I2C_SDA*%
X123101100Y-64249300D03*
%TO.P,J24,2*%
%TO.N,GND*%
X120561100Y-64249300D03*
D15*
%TO.P,J24,1*%
%TO.N,3.3V*%
X118021100Y-64249300D03*
%TD*%
D11*
%TO.P,J16,1*%
%TO.N,5V*%
X189166500Y-120789700D03*
%TD*%
%TO.P,J13,1*%
%TO.N,3.3V*%
X189166500Y-123329700D03*
%TD*%
%TO.P,J11,1*%
%TO.N,IO33*%
X152882600Y-115709700D03*
%TD*%
%TO.P,J10,1*%
%TO.N,IO34*%
X152882600Y-120789700D03*
%TD*%
%TO.P,J9,1*%
%TO.N,IO35*%
X152882600Y-113169700D03*
%TD*%
%TO.P,J8,1*%
%TO.N,IO14*%
X152882600Y-123329700D03*
%TD*%
%TO.P,J7,1*%
%TO.N,IO18*%
X152882600Y-110629700D03*
%TD*%
%TO.P,J6,1*%
%TO.N,IO5*%
X152882600Y-125869700D03*
%TD*%
%TO.P,J5,1*%
%TO.N,IO19*%
X152882600Y-118249700D03*
%TD*%
%TO.P,J2,1*%
%TO.N,IO27*%
X189166500Y-105549700D03*
%TD*%
D16*
%TO.P,U3,1*%
%TO.N,GND*%
X98552000Y-116776500D03*
D17*
%TO.P,U3,3*%
%TO.N,3.3V*%
X98552000Y-119316500D03*
%TO.P,U3,2*%
%TO.N,1wire*%
X98552000Y-118046500D03*
%TD*%
D18*
%TO.P,J21,4*%
%TO.N,I2C_SCL*%
X127246900Y-128409700D03*
%TO.P,J21,3*%
%TO.N,I2C_SDA*%
X125246900Y-128409700D03*
%TO.P,J21,2*%
%TO.N,3.3V*%
X123246900Y-128409700D03*
%TO.P,J21,1*%
%TO.N,GND*%
%TA.AperFunction,ComponentPad*%
G36*
G01*
X120646900Y-129034701D02*
X120646900Y-127784699D01*
G75*
G02*
X120896899Y-127534700I249999J0D01*
G01*
X121596901Y-127534700D01*
G75*
G02*
X121846900Y-127784699I0J-249999D01*
G01*
X121846900Y-129034701D01*
G75*
G02*
X121596901Y-129284700I-249999J0D01*
G01*
X120896899Y-129284700D01*
G75*
G02*
X120646900Y-129034701I0J249999D01*
G01*
G37*
%TD.AperFunction*%
%TD*%
D14*
%TO.P,J19,4*%
%TO.N,I2C_SDA*%
X125641100Y-67868800D03*
%TO.P,J19,3*%
%TO.N,I2C_SCL*%
X123101100Y-67868800D03*
%TO.P,J19,2*%
%TO.N,GND*%
X120561100Y-67868800D03*
D15*
%TO.P,J19,1*%
%TO.N,3.3V*%
X118021100Y-67868800D03*
%TD*%
D19*
%TO.P,U2,1*%
%TO.N,GND*%
X102273100Y-62318900D03*
D20*
%TO.P,U2,3*%
%TO.N,3.3V*%
X99733100Y-62318900D03*
%TO.P,U2,2*%
%TO.N,1wire*%
X101003100Y-62318900D03*
%TD*%
D14*
%TO.P,J18,4*%
%TO.N,I2C_SDA*%
X144310100Y-67932300D03*
%TO.P,J18,3*%
%TO.N,I2C_SCL*%
X141770100Y-67932300D03*
%TO.P,J18,2*%
%TO.N,GND*%
X139230100Y-67932300D03*
D15*
%TO.P,J18,1*%
%TO.N,3.3V*%
X136690100Y-67932300D03*
%TD*%
D18*
%TO.P,J20,4*%
%TO.N,I2C_SCL*%
X114877100Y-128409700D03*
%TO.P,J20,3*%
%TO.N,I2C_SDA*%
X112877100Y-128409700D03*
%TO.P,J20,2*%
%TO.N,3.3V*%
X110877100Y-128409700D03*
%TO.P,J20,1*%
%TO.N,GND*%
%TA.AperFunction,ComponentPad*%
G36*
G01*
X108277100Y-129034701D02*
X108277100Y-127784699D01*
G75*
G02*
X108527099Y-127534700I249999J0D01*
G01*
X109227101Y-127534700D01*
G75*
G02*
X109477100Y-127784699I0J-249999D01*
G01*
X109477100Y-129034701D01*
G75*
G02*
X109227101Y-129284700I-249999J0D01*
G01*
X108527099Y-129284700D01*
G75*
G02*
X108277100Y-129034701I0J249999D01*
G01*
G37*
%TD.AperFunction*%
%TD*%
D14*
%TO.P,J12,20*%
%TO.N,SD0*%
X182841900Y-125869700D03*
%TO.P,J12,19*%
%TO.N,CLK*%
X185381900Y-125869700D03*
%TO.P,J12,18*%
%TO.N,IO15*%
X182841900Y-123329700D03*
%TO.P,J12,17*%
%TO.N,SDI*%
X185381900Y-123329700D03*
%TO.P,J12,16*%
%TO.N,5V*%
X182841900Y-120789700D03*
%TO.P,J12,15*%
%TO.N,IO2*%
X185381900Y-120789700D03*
%TO.P,J12,14*%
%TO.N,GND*%
X182841900Y-118249700D03*
%TO.P,J12,13*%
%TO.N,IO0*%
X185381900Y-118249700D03*
%TO.P,J12,12*%
%TO.N,IO16*%
X182841900Y-115709700D03*
%TO.P,J12,11*%
%TO.N,1wire*%
X185381900Y-115709700D03*
%TO.P,J12,10*%
%TO.N,IO17*%
X182841900Y-113169700D03*
%TO.P,J12,9*%
%TO.N,TDI*%
X185381900Y-113169700D03*
%TO.P,J12,8*%
%TO.N,IO21*%
X182841900Y-110629700D03*
%TO.P,J12,7*%
%TO.N,IO32*%
X185381900Y-110629700D03*
%TO.P,J12,6*%
%TO.N,IO22*%
X182841900Y-108089700D03*
%TO.P,J12,5*%
%TO.N,IO25*%
X185381900Y-108089700D03*
%TO.P,J12,4*%
%TO.N,ESP_RXD*%
X182841900Y-105549700D03*
%TO.P,J12,3*%
%TO.N,IO27*%
X185381900Y-105549700D03*
%TO.P,J12,2*%
%TO.N,ESP_TXD*%
X182841900Y-103009700D03*
D11*
%TO.P,J12,1*%
%TO.N,GND*%
X185381900Y-103009700D03*
%TD*%
D14*
%TO.P,J1,20*%
%TO.N,CMD*%
X157441900Y-125869700D03*
%TO.P,J1,19*%
%TO.N,SD3*%
X159981900Y-125869700D03*
%TO.P,J1,18*%
%TO.N,SD2*%
X157441900Y-123329700D03*
%TO.P,J1,17*%
%TO.N,I2C_SCL*%
X159981900Y-123329700D03*
%TO.P,J1,16*%
%TO.N,Net-(J1-Pad16)*%
X157441900Y-120789700D03*
%TO.P,J1,15*%
%TO.N,3.3V*%
X159981900Y-120789700D03*
%TO.P,J1,14*%
%TO.N,IO14*%
X157441900Y-118249700D03*
%TO.P,J1,13*%
%TO.N,IO5*%
X159981900Y-118249700D03*
%TO.P,J1,12*%
%TO.N,IO34*%
X157441900Y-115709700D03*
%TO.P,J1,11*%
%TO.N,I2C_SDA*%
X159981900Y-115709700D03*
%TO.P,J1,10*%
%TO.N,IO33*%
X157441900Y-113169700D03*
%TO.P,J1,9*%
%TO.N,IO19*%
X159981900Y-113169700D03*
%TO.P,J1,8*%
%TO.N,IO35*%
X157441900Y-110629700D03*
%TO.P,J1,7*%
%TO.N,IO18*%
X159981900Y-110629700D03*
%TO.P,J1,6*%
%TO.N,SVN*%
X157441900Y-108089700D03*
%TO.P,J1,5*%
%TO.N,IO26*%
X159981900Y-108089700D03*
%TO.P,J1,4*%
%TO.N,Net-(J1-Pad4)*%
X157441900Y-105549700D03*
%TO.P,J1,3*%
%TO.N,SVP*%
X159981900Y-105549700D03*
%TO.P,J1,2*%
%TO.N,GND*%
X157441900Y-103009700D03*
D11*
%TO.P,J1,1*%
%TO.N,RST*%
X159981900Y-103009700D03*
%TD*%
D21*
%TO.P,J17,5*%
%TO.N,Net-(J17-Pad5)*%
X158942100Y-78917800D03*
%TO.P,J17,*%
%TO.N,*%
X158942100Y-76377800D03*
%TO.P,J17,7*%
%TO.N,IO22*%
X158942100Y-73837800D03*
%TO.P,J17,6*%
%TO.N,IO21*%
X158942100Y-71297800D03*
%TO.P,J17,3*%
%TO.N,Net-(J17-Pad3)*%
X158942100Y-68757800D03*
%TO.P,J17,4*%
%TO.N,Net-(J17-Pad4)*%
X188427100Y-76377800D03*
%TO.P,J17,*%
%TO.N,*%
X188427100Y-73837800D03*
%TO.P,J17,2*%
%TO.N,GND*%
X188427100Y-71297800D03*
%TO.P,J17,1*%
%TO.N,5V*%
X188427100Y-68757800D03*
%TD*%
D22*
%TO.N,GND*%
X176022000Y-108648500D03*
X184213500Y-129603500D03*
%TO.N,5V*%
X142494000Y-88328500D03*
X142494000Y-99187000D03*
X156019500Y-88392000D03*
%TO.N,IO21*%
X180149500Y-105727500D03*
%TO.N,IO22*%
X178816000Y-105917996D03*
%TO.N,I2C_SDA*%
X133273550Y-120383050D03*
X133286500Y-80554990D03*
%TO.N,I2C_SCL*%
X134425301Y-122114699D03*
X134904556Y-77881556D03*
%TO.N,Net-(D1-Pad4)*%
X147168999Y-101092000D03*
%TD*%
D23*
%TO.N,3.3V*%
X136690100Y-67932300D02*
X136690100Y-67779900D01*
X139230100Y-65239900D02*
X139230100Y-64249300D01*
X136690100Y-67779900D02*
X139230100Y-65239900D01*
D24*
%TO.N,GND*%
X158656901Y-101794699D02*
X157441900Y-103009700D01*
X169168199Y-101794699D02*
X158656901Y-101794699D01*
X176022000Y-108648500D02*
X169168199Y-101794699D01*
X184056901Y-119464701D02*
X182841900Y-118249700D01*
X184056901Y-126342903D02*
X184056901Y-119464701D01*
X184213500Y-126499502D02*
X184056901Y-126342903D01*
X187286900Y-127762000D02*
X189141100Y-125907800D01*
X184213500Y-127762000D02*
X187286900Y-127762000D01*
X184213500Y-129603500D02*
X184213500Y-127762000D01*
X184213500Y-127762000D02*
X184213500Y-126499502D01*
X189141100Y-125907800D02*
X189141100Y-128460500D01*
D23*
%TO.N,5V*%
X108435500Y-82431000D02*
X108435500Y-83591000D01*
X142494000Y-88328500D02*
X142494000Y-99187000D01*
D24*
X142494000Y-88328500D02*
X155956000Y-88328500D01*
X155956000Y-88328500D02*
X156019500Y-88392000D01*
D23*
X112077500Y-88328500D02*
X142494000Y-88328500D01*
X108435500Y-84686500D02*
X112077500Y-88328500D01*
X108435500Y-83591000D02*
X108435500Y-84686500D01*
%TO.N,IO21*%
X180149500Y-92646500D02*
X180149500Y-105727500D01*
X158942100Y-71439100D02*
X180149500Y-92646500D01*
X158942100Y-71297800D02*
X158942100Y-71439100D01*
%TO.N,IO32*%
X186556901Y-109454699D02*
X185381900Y-110629700D01*
X184817899Y-106724701D02*
X186030102Y-106724701D01*
X186030102Y-106724701D02*
X186556901Y-107251500D01*
X184799100Y-106743500D02*
X184817899Y-106724701D01*
X184086500Y-106743500D02*
X184799100Y-106743500D01*
X184067701Y-106724701D02*
X184086500Y-106743500D01*
X152654000Y-81280000D02*
X178098701Y-106724701D01*
X112839500Y-81280000D02*
X152654000Y-81280000D01*
X112245500Y-81874000D02*
X112839500Y-81280000D01*
X178098701Y-106724701D02*
X184067701Y-106724701D01*
X112245500Y-82431000D02*
X112245500Y-81874000D01*
X186556901Y-107251500D02*
X186556901Y-109454699D01*
%TO.N,IO22*%
X178816000Y-93980000D02*
X178816000Y-105917996D01*
X161036000Y-76200000D02*
X178816000Y-93980000D01*
X161036000Y-75931700D02*
X161036000Y-76200000D01*
X158942100Y-73837800D02*
X161036000Y-75931700D01*
%TO.N,IO25*%
X184188100Y-109283500D02*
X185381900Y-108089700D01*
X178562000Y-109283500D02*
X184188100Y-109283500D01*
X151709500Y-82431000D02*
X178562000Y-109283500D01*
X113515500Y-82431000D02*
X151709500Y-82431000D01*
D24*
%TO.N,I2C_SDA*%
X124426099Y-69083801D02*
X125641100Y-67868800D01*
X121886099Y-68452001D02*
X122517899Y-69083801D01*
X122517899Y-69083801D02*
X124426099Y-69083801D01*
X121886099Y-65464301D02*
X121886099Y-68452001D01*
X123101100Y-64249300D02*
X121886099Y-65464301D01*
X158656901Y-117034699D02*
X136621901Y-117034699D01*
X159981900Y-115709700D02*
X158656901Y-117034699D01*
D23*
X138494910Y-66611500D02*
X142989300Y-66611500D01*
X138049000Y-67057410D02*
X138494910Y-66611500D01*
X137800101Y-69107301D02*
X138049000Y-68858402D01*
X142989300Y-66611500D02*
X144310100Y-67932300D01*
X134639301Y-69107301D02*
X137800101Y-69107301D01*
X138049000Y-68858402D02*
X138049000Y-67057410D01*
X133350000Y-67818000D02*
X134639301Y-69107301D01*
X125691900Y-67818000D02*
X133350000Y-67818000D01*
X125641100Y-67868800D02*
X125691900Y-67818000D01*
D24*
X133273550Y-120383050D02*
X125246900Y-128409700D01*
X136621901Y-117034699D02*
X133273550Y-120383050D01*
X144310100Y-70097075D02*
X133852185Y-80554990D01*
X144310100Y-67932300D02*
X144310100Y-70097075D01*
X133852185Y-80554990D02*
X133286500Y-80554990D01*
%TO.N,I2C_SCL*%
X125641100Y-65328800D02*
X125641100Y-64249300D01*
X123101100Y-67868800D02*
X125641100Y-65328800D01*
X158766899Y-122114699D02*
X159981900Y-123329700D01*
X127246900Y-127204700D02*
X132336901Y-122114699D01*
X127246900Y-128409700D02*
X127246900Y-127204700D01*
D23*
X127266112Y-62624288D02*
X140145088Y-62624288D01*
X140145088Y-62624288D02*
X141770100Y-64249300D01*
X125641100Y-64249300D02*
X127266112Y-62624288D01*
D24*
X134425301Y-122114699D02*
X158766899Y-122114699D01*
X132336901Y-122114699D02*
X134425301Y-122114699D01*
X141770100Y-71016012D02*
X134904556Y-77881556D01*
X141770100Y-67932300D02*
X141770100Y-71016012D01*
D23*
%TO.N,1wire*%
X97476999Y-106485001D02*
X97476999Y-117561501D01*
X97961998Y-118046500D02*
X98552000Y-118046500D01*
X97476999Y-117561501D02*
X97961998Y-118046500D01*
X101003100Y-102958900D02*
X97476999Y-106485001D01*
X101003100Y-62318900D02*
X101003100Y-102958900D01*
D24*
X102765803Y-114494699D02*
X99214002Y-118046500D01*
X184166899Y-114494699D02*
X102765803Y-114494699D01*
X99214002Y-118046500D02*
X98552000Y-118046500D01*
X185381900Y-115709700D02*
X184166899Y-114494699D01*
X186626500Y-115709700D02*
X189166500Y-118249700D01*
X185381900Y-115709700D02*
X186626500Y-115709700D01*
D23*
%TO.N,Net-(D1-Pad4)*%
X145669000Y-102591999D02*
X145669000Y-109093000D01*
X147168999Y-101092000D02*
X145669000Y-102591999D01*
%TD*%
M02*
