%TF.GenerationSoftware,KiCad,Pcbnew,(5.1.6-0-10_14)*%
%TF.CreationDate,2020-08-27T22:21:12+02:00*%
%TF.ProjectId,airquality,61697271-7561-46c6-9974-792e6b696361,rev?*%
%TF.SameCoordinates,Original*%
%TF.FileFunction,Legend,Top*%
%TF.FilePolarity,Positive*%
%FSLAX46Y46*%
G04 Gerber Fmt 4.6, Leading zero omitted, Abs format (unit mm)*
G04 Created by KiCad (PCBNEW (5.1.6-0-10_14)) date 2020-08-27 22:21:12*
%MOMM*%
%LPD*%
G01*
G04 APERTURE LIST*
%ADD10C,0.300000*%
%ADD11C,0.150000*%
%ADD12C,0.120000*%
%ADD13C,0.200000*%
%ADD14C,0.127000*%
%ADD15C,0.100000*%
%ADD16C,0.015000*%
G04 APERTURE END LIST*
D10*
X129294571Y-101629171D02*
X129651714Y-102629171D01*
X130008857Y-101629171D01*
X131151714Y-102557742D02*
X131008857Y-102629171D01*
X130723142Y-102629171D01*
X130580285Y-102557742D01*
X130508857Y-102414885D01*
X130508857Y-101843457D01*
X130580285Y-101700600D01*
X130723142Y-101629171D01*
X131008857Y-101629171D01*
X131151714Y-101700600D01*
X131223142Y-101843457D01*
X131223142Y-101986314D01*
X130508857Y-102129171D01*
X131866000Y-102629171D02*
X131866000Y-101629171D01*
X131866000Y-101914885D02*
X131937428Y-101772028D01*
X132008857Y-101700600D01*
X132151714Y-101629171D01*
X132294571Y-101629171D01*
X132723142Y-102557742D02*
X132866000Y-102629171D01*
X133151714Y-102629171D01*
X133294571Y-102557742D01*
X133366000Y-102414885D01*
X133366000Y-102343457D01*
X133294571Y-102200600D01*
X133151714Y-102129171D01*
X132937428Y-102129171D01*
X132794571Y-102057742D01*
X132723142Y-101914885D01*
X132723142Y-101843457D01*
X132794571Y-101700600D01*
X132937428Y-101629171D01*
X133151714Y-101629171D01*
X133294571Y-101700600D01*
X134008857Y-102629171D02*
X134008857Y-101629171D01*
X134008857Y-101129171D02*
X133937428Y-101200600D01*
X134008857Y-101272028D01*
X134080285Y-101200600D01*
X134008857Y-101129171D01*
X134008857Y-101272028D01*
X134937428Y-102629171D02*
X134794571Y-102557742D01*
X134723142Y-102486314D01*
X134651714Y-102343457D01*
X134651714Y-101914885D01*
X134723142Y-101772028D01*
X134794571Y-101700600D01*
X134937428Y-101629171D01*
X135151714Y-101629171D01*
X135294571Y-101700600D01*
X135366000Y-101772028D01*
X135437428Y-101914885D01*
X135437428Y-102343457D01*
X135366000Y-102486314D01*
X135294571Y-102557742D01*
X135151714Y-102629171D01*
X134937428Y-102629171D01*
X136080285Y-101629171D02*
X136080285Y-102629171D01*
X136080285Y-101772028D02*
X136151714Y-101700600D01*
X136294571Y-101629171D01*
X136508857Y-101629171D01*
X136651714Y-101700600D01*
X136723142Y-101843457D01*
X136723142Y-102629171D01*
X139366000Y-102629171D02*
X138508857Y-102629171D01*
X138937428Y-102629171D02*
X138937428Y-101129171D01*
X138794571Y-101343457D01*
X138651714Y-101486314D01*
X138508857Y-101557742D01*
X127080285Y-103822028D02*
X127151714Y-103750600D01*
X127294571Y-103679171D01*
X127651714Y-103679171D01*
X127794571Y-103750600D01*
X127866000Y-103822028D01*
X127937428Y-103964885D01*
X127937428Y-104107742D01*
X127866000Y-104322028D01*
X127008857Y-105179171D01*
X127937428Y-105179171D01*
X128866000Y-103679171D02*
X129008857Y-103679171D01*
X129151714Y-103750600D01*
X129223142Y-103822028D01*
X129294571Y-103964885D01*
X129366000Y-104250600D01*
X129366000Y-104607742D01*
X129294571Y-104893457D01*
X129223142Y-105036314D01*
X129151714Y-105107742D01*
X129008857Y-105179171D01*
X128866000Y-105179171D01*
X128723142Y-105107742D01*
X128651714Y-105036314D01*
X128580285Y-104893457D01*
X128508857Y-104607742D01*
X128508857Y-104250600D01*
X128580285Y-103964885D01*
X128651714Y-103822028D01*
X128723142Y-103750600D01*
X128866000Y-103679171D01*
X129937428Y-103822028D02*
X130008857Y-103750600D01*
X130151714Y-103679171D01*
X130508857Y-103679171D01*
X130651714Y-103750600D01*
X130723142Y-103822028D01*
X130794571Y-103964885D01*
X130794571Y-104107742D01*
X130723142Y-104322028D01*
X129866000Y-105179171D01*
X130794571Y-105179171D01*
X131723142Y-103679171D02*
X131866000Y-103679171D01*
X132008857Y-103750600D01*
X132080285Y-103822028D01*
X132151714Y-103964885D01*
X132223142Y-104250600D01*
X132223142Y-104607742D01*
X132151714Y-104893457D01*
X132080285Y-105036314D01*
X132008857Y-105107742D01*
X131866000Y-105179171D01*
X131723142Y-105179171D01*
X131580285Y-105107742D01*
X131508857Y-105036314D01*
X131437428Y-104893457D01*
X131366000Y-104607742D01*
X131366000Y-104250600D01*
X131437428Y-103964885D01*
X131508857Y-103822028D01*
X131580285Y-103750600D01*
X131723142Y-103679171D01*
X132866000Y-104607742D02*
X134008857Y-104607742D01*
X135008857Y-103679171D02*
X135151714Y-103679171D01*
X135294571Y-103750600D01*
X135366000Y-103822028D01*
X135437428Y-103964885D01*
X135508857Y-104250600D01*
X135508857Y-104607742D01*
X135437428Y-104893457D01*
X135366000Y-105036314D01*
X135294571Y-105107742D01*
X135151714Y-105179171D01*
X135008857Y-105179171D01*
X134866000Y-105107742D01*
X134794571Y-105036314D01*
X134723142Y-104893457D01*
X134651714Y-104607742D01*
X134651714Y-104250600D01*
X134723142Y-103964885D01*
X134794571Y-103822028D01*
X134866000Y-103750600D01*
X135008857Y-103679171D01*
X136366000Y-104322028D02*
X136223142Y-104250600D01*
X136151714Y-104179171D01*
X136080285Y-104036314D01*
X136080285Y-103964885D01*
X136151714Y-103822028D01*
X136223142Y-103750600D01*
X136366000Y-103679171D01*
X136651714Y-103679171D01*
X136794571Y-103750600D01*
X136866000Y-103822028D01*
X136937428Y-103964885D01*
X136937428Y-104036314D01*
X136866000Y-104179171D01*
X136794571Y-104250600D01*
X136651714Y-104322028D01*
X136366000Y-104322028D01*
X136223142Y-104393457D01*
X136151714Y-104464885D01*
X136080285Y-104607742D01*
X136080285Y-104893457D01*
X136151714Y-105036314D01*
X136223142Y-105107742D01*
X136366000Y-105179171D01*
X136651714Y-105179171D01*
X136794571Y-105107742D01*
X136866000Y-105036314D01*
X136937428Y-104893457D01*
X136937428Y-104607742D01*
X136866000Y-104464885D01*
X136794571Y-104393457D01*
X136651714Y-104322028D01*
X137580285Y-104607742D02*
X138723142Y-104607742D01*
X139366000Y-103822028D02*
X139437428Y-103750600D01*
X139580285Y-103679171D01*
X139937428Y-103679171D01*
X140080285Y-103750600D01*
X140151714Y-103822028D01*
X140223142Y-103964885D01*
X140223142Y-104107742D01*
X140151714Y-104322028D01*
X139294571Y-105179171D01*
X140223142Y-105179171D01*
X140723142Y-103679171D02*
X141723142Y-103679171D01*
X141080285Y-105179171D01*
X155966790Y-148112400D02*
X157157266Y-148112400D01*
X155728695Y-148969542D02*
X156562028Y-145969542D01*
X157395361Y-148969542D01*
X158228695Y-148969542D02*
X158228695Y-146969542D01*
X158228695Y-145969542D02*
X158109647Y-146112400D01*
X158228695Y-146255257D01*
X158347742Y-146112400D01*
X158228695Y-145969542D01*
X158228695Y-146255257D01*
X159419171Y-148969542D02*
X159419171Y-146969542D01*
X159419171Y-147540971D02*
X159538219Y-147255257D01*
X159657266Y-147112400D01*
X159895361Y-146969542D01*
X160133457Y-146969542D01*
X164538219Y-149255257D02*
X164300123Y-149112400D01*
X164062028Y-148826685D01*
X163704885Y-148398114D01*
X163466790Y-148255257D01*
X163228695Y-148255257D01*
X163347742Y-148969542D02*
X163109647Y-148826685D01*
X162871552Y-148540971D01*
X162752504Y-147969542D01*
X162752504Y-146969542D01*
X162871552Y-146398114D01*
X163109647Y-146112400D01*
X163347742Y-145969542D01*
X163823933Y-145969542D01*
X164062028Y-146112400D01*
X164300123Y-146398114D01*
X164419171Y-146969542D01*
X164419171Y-147969542D01*
X164300123Y-148540971D01*
X164062028Y-148826685D01*
X163823933Y-148969542D01*
X163347742Y-148969542D01*
X166562028Y-146969542D02*
X166562028Y-148969542D01*
X165490600Y-146969542D02*
X165490600Y-148540971D01*
X165609647Y-148826685D01*
X165847742Y-148969542D01*
X166204885Y-148969542D01*
X166442980Y-148826685D01*
X166562028Y-148683828D01*
X168823933Y-148969542D02*
X168823933Y-147398114D01*
X168704885Y-147112400D01*
X168466790Y-146969542D01*
X167990600Y-146969542D01*
X167752504Y-147112400D01*
X168823933Y-148826685D02*
X168585838Y-148969542D01*
X167990600Y-148969542D01*
X167752504Y-148826685D01*
X167633457Y-148540971D01*
X167633457Y-148255257D01*
X167752504Y-147969542D01*
X167990600Y-147826685D01*
X168585838Y-147826685D01*
X168823933Y-147683828D01*
X170371552Y-148969542D02*
X170133457Y-148826685D01*
X170014409Y-148540971D01*
X170014409Y-145969542D01*
X171323933Y-148969542D02*
X171323933Y-146969542D01*
X171323933Y-145969542D02*
X171204885Y-146112400D01*
X171323933Y-146255257D01*
X171442980Y-146112400D01*
X171323933Y-145969542D01*
X171323933Y-146255257D01*
X172157266Y-146969542D02*
X173109647Y-146969542D01*
X172514409Y-145969542D02*
X172514409Y-148540971D01*
X172633457Y-148826685D01*
X172871552Y-148969542D01*
X173109647Y-148969542D01*
X173704885Y-146969542D02*
X174300123Y-148969542D01*
X174895361Y-146969542D02*
X174300123Y-148969542D01*
X174062028Y-149683828D01*
X173942980Y-149826685D01*
X173704885Y-149969542D01*
X177633457Y-148826685D02*
X177990600Y-148969542D01*
X178585838Y-148969542D01*
X178823933Y-148826685D01*
X178942980Y-148683828D01*
X179062028Y-148398114D01*
X179062028Y-148112400D01*
X178942980Y-147826685D01*
X178823933Y-147683828D01*
X178585838Y-147540971D01*
X178109647Y-147398114D01*
X177871552Y-147255257D01*
X177752504Y-147112400D01*
X177633457Y-146826685D01*
X177633457Y-146540971D01*
X177752504Y-146255257D01*
X177871552Y-146112400D01*
X178109647Y-145969542D01*
X178704885Y-145969542D01*
X179062028Y-146112400D01*
X181085838Y-148826685D02*
X180847742Y-148969542D01*
X180371552Y-148969542D01*
X180133457Y-148826685D01*
X180014409Y-148540971D01*
X180014409Y-147398114D01*
X180133457Y-147112400D01*
X180371552Y-146969542D01*
X180847742Y-146969542D01*
X181085838Y-147112400D01*
X181204885Y-147398114D01*
X181204885Y-147683828D01*
X180014409Y-147969542D01*
X182276314Y-146969542D02*
X182276314Y-148969542D01*
X182276314Y-147255257D02*
X182395361Y-147112400D01*
X182633457Y-146969542D01*
X182990600Y-146969542D01*
X183228695Y-147112400D01*
X183347742Y-147398114D01*
X183347742Y-148969542D01*
X184419171Y-148826685D02*
X184657266Y-148969542D01*
X185133457Y-148969542D01*
X185371552Y-148826685D01*
X185490600Y-148540971D01*
X185490600Y-148398114D01*
X185371552Y-148112400D01*
X185133457Y-147969542D01*
X184776314Y-147969542D01*
X184538219Y-147826685D01*
X184419171Y-147540971D01*
X184419171Y-147398114D01*
X184538219Y-147112400D01*
X184776314Y-146969542D01*
X185133457Y-146969542D01*
X185371552Y-147112400D01*
X186919171Y-148969542D02*
X186681076Y-148826685D01*
X186562028Y-148683828D01*
X186442980Y-148398114D01*
X186442980Y-147540971D01*
X186562028Y-147255257D01*
X186681076Y-147112400D01*
X186919171Y-146969542D01*
X187276314Y-146969542D01*
X187514409Y-147112400D01*
X187633457Y-147255257D01*
X187752504Y-147540971D01*
X187752504Y-148398114D01*
X187633457Y-148683828D01*
X187514409Y-148826685D01*
X187276314Y-148969542D01*
X186919171Y-148969542D01*
X188823933Y-148969542D02*
X188823933Y-146969542D01*
X188823933Y-147540971D02*
X188942980Y-147255257D01*
X189062028Y-147112400D01*
X189300123Y-146969542D01*
X189538219Y-146969542D01*
X157157266Y-151769542D02*
X157157266Y-154198114D01*
X157038219Y-154483828D01*
X156919171Y-154626685D01*
X156681076Y-154769542D01*
X156323933Y-154769542D01*
X156085838Y-154626685D01*
X157157266Y-153626685D02*
X156919171Y-153769542D01*
X156442980Y-153769542D01*
X156204885Y-153626685D01*
X156085838Y-153483828D01*
X155966790Y-153198114D01*
X155966790Y-152340971D01*
X156085838Y-152055257D01*
X156204885Y-151912400D01*
X156442980Y-151769542D01*
X156919171Y-151769542D01*
X157157266Y-151912400D01*
X158347742Y-153769542D02*
X158347742Y-151769542D01*
X158347742Y-150769542D02*
X158228695Y-150912400D01*
X158347742Y-151055257D01*
X158466790Y-150912400D01*
X158347742Y-150769542D01*
X158347742Y-151055257D01*
X159181076Y-151769542D02*
X160133457Y-151769542D01*
X159538219Y-150769542D02*
X159538219Y-153340971D01*
X159657266Y-153626685D01*
X159895361Y-153769542D01*
X160133457Y-153769542D01*
X160966790Y-153483828D02*
X161085838Y-153626685D01*
X160966790Y-153769542D01*
X160847742Y-153626685D01*
X160966790Y-153483828D01*
X160966790Y-153769542D01*
X162157266Y-153769542D02*
X162157266Y-151769542D01*
X162157266Y-150769542D02*
X162038219Y-150912400D01*
X162157266Y-151055257D01*
X162276314Y-150912400D01*
X162157266Y-150769542D01*
X162157266Y-151055257D01*
X163704885Y-153769542D02*
X163466790Y-153626685D01*
X163347742Y-153483828D01*
X163228695Y-153198114D01*
X163228695Y-152340971D01*
X163347742Y-152055257D01*
X163466790Y-151912400D01*
X163704885Y-151769542D01*
X164062028Y-151769542D01*
X164300123Y-151912400D01*
X164419171Y-152055257D01*
X164538219Y-152340971D01*
X164538219Y-153198114D01*
X164419171Y-153483828D01*
X164300123Y-153626685D01*
X164062028Y-153769542D01*
X163704885Y-153769542D01*
X167395361Y-150626685D02*
X165252504Y-154483828D01*
X168942980Y-150769542D02*
X168942980Y-152912400D01*
X168823933Y-153340971D01*
X168585838Y-153626685D01*
X168228695Y-153769542D01*
X167990600Y-153769542D01*
X170133457Y-150769542D02*
X170133457Y-153198114D01*
X170252504Y-153483828D01*
X170371552Y-153626685D01*
X170609647Y-153769542D01*
X171085838Y-153769542D01*
X171323933Y-153626685D01*
X171442980Y-153483828D01*
X171562028Y-153198114D01*
X171562028Y-150769542D01*
X172752504Y-153769542D02*
X172752504Y-150769542D01*
X173704885Y-150769542D02*
X174300123Y-153769542D01*
X174776314Y-151626685D01*
X175252504Y-153769542D01*
X175847742Y-150769542D01*
X176800123Y-153769542D02*
X176800123Y-150769542D01*
X177633457Y-152912400D01*
X178466790Y-150769542D01*
X178466790Y-153769542D01*
D11*
X176334895Y-143775180D02*
X176334895Y-144584704D01*
X176382514Y-144679942D01*
X176430133Y-144727561D01*
X176525371Y-144775180D01*
X176715847Y-144775180D01*
X176811085Y-144727561D01*
X176858704Y-144679942D01*
X176906323Y-144584704D01*
X176906323Y-143775180D01*
X177334895Y-144727561D02*
X177477752Y-144775180D01*
X177715847Y-144775180D01*
X177811085Y-144727561D01*
X177858704Y-144679942D01*
X177906323Y-144584704D01*
X177906323Y-144489466D01*
X177858704Y-144394228D01*
X177811085Y-144346609D01*
X177715847Y-144298990D01*
X177525371Y-144251371D01*
X177430133Y-144203752D01*
X177382514Y-144156133D01*
X177334895Y-144060895D01*
X177334895Y-143965657D01*
X177382514Y-143870419D01*
X177430133Y-143822800D01*
X177525371Y-143775180D01*
X177763466Y-143775180D01*
X177906323Y-143822800D01*
X178668228Y-144251371D02*
X178811085Y-144298990D01*
X178858704Y-144346609D01*
X178906323Y-144441847D01*
X178906323Y-144584704D01*
X178858704Y-144679942D01*
X178811085Y-144727561D01*
X178715847Y-144775180D01*
X178334895Y-144775180D01*
X178334895Y-143775180D01*
X178668228Y-143775180D01*
X178763466Y-143822800D01*
X178811085Y-143870419D01*
X178858704Y-143965657D01*
X178858704Y-144060895D01*
X178811085Y-144156133D01*
X178763466Y-144203752D01*
X178668228Y-144251371D01*
X178334895Y-144251371D01*
X127191333Y-123669561D02*
X127191333Y-125098133D01*
X127096095Y-125383847D01*
X126905619Y-125574323D01*
X126619904Y-125669561D01*
X126429428Y-125669561D01*
X129096095Y-125669561D02*
X128143714Y-125669561D01*
X128143714Y-123669561D01*
X130905619Y-125479085D02*
X130810380Y-125574323D01*
X130524666Y-125669561D01*
X130334190Y-125669561D01*
X130048476Y-125574323D01*
X129858000Y-125383847D01*
X129762761Y-125193371D01*
X129667523Y-124812419D01*
X129667523Y-124526704D01*
X129762761Y-124145752D01*
X129858000Y-123955276D01*
X130048476Y-123764800D01*
X130334190Y-123669561D01*
X130524666Y-123669561D01*
X130810380Y-123764800D01*
X130905619Y-123860038D01*
X132334190Y-123669561D02*
X132334190Y-125098133D01*
X132238952Y-125383847D01*
X132048476Y-125574323D01*
X131762761Y-125669561D01*
X131572285Y-125669561D01*
X134238952Y-125669561D02*
X133286571Y-125669561D01*
X133286571Y-123669561D01*
X136048476Y-125479085D02*
X135953238Y-125574323D01*
X135667523Y-125669561D01*
X135477047Y-125669561D01*
X135191333Y-125574323D01*
X135000857Y-125383847D01*
X134905619Y-125193371D01*
X134810380Y-124812419D01*
X134810380Y-124526704D01*
X134905619Y-124145752D01*
X135000857Y-123955276D01*
X135191333Y-123764800D01*
X135477047Y-123669561D01*
X135667523Y-123669561D01*
X135953238Y-123764800D01*
X136048476Y-123860038D01*
X137477047Y-123669561D02*
X137477047Y-125098133D01*
X137381809Y-125383847D01*
X137191333Y-125574323D01*
X136905619Y-125669561D01*
X136715142Y-125669561D01*
X139381809Y-125669561D02*
X138429428Y-125669561D01*
X138429428Y-123669561D01*
X141191333Y-125479085D02*
X141096095Y-125574323D01*
X140810380Y-125669561D01*
X140619904Y-125669561D01*
X140334190Y-125574323D01*
X140143714Y-125383847D01*
X140048476Y-125193371D01*
X139953238Y-124812419D01*
X139953238Y-124526704D01*
X140048476Y-124145752D01*
X140143714Y-123955276D01*
X140334190Y-123764800D01*
X140619904Y-123669561D01*
X140810380Y-123669561D01*
X141096095Y-123764800D01*
X141191333Y-123860038D01*
X127531028Y-111394761D02*
X127531028Y-109394761D01*
X128292933Y-109394761D01*
X128483409Y-109490000D01*
X128578647Y-109585238D01*
X128673885Y-109775714D01*
X128673885Y-110061428D01*
X128578647Y-110251904D01*
X128483409Y-110347142D01*
X128292933Y-110442380D01*
X127531028Y-110442380D01*
X129531028Y-111394761D02*
X129531028Y-109394761D01*
X130197695Y-110823333D01*
X130864361Y-109394761D01*
X130864361Y-111394761D01*
X131721504Y-111299523D02*
X132007219Y-111394761D01*
X132483409Y-111394761D01*
X132673885Y-111299523D01*
X132769123Y-111204285D01*
X132864361Y-111013809D01*
X132864361Y-110823333D01*
X132769123Y-110632857D01*
X132673885Y-110537619D01*
X132483409Y-110442380D01*
X132102457Y-110347142D01*
X131911980Y-110251904D01*
X131816742Y-110156666D01*
X131721504Y-109966190D01*
X131721504Y-109775714D01*
X131816742Y-109585238D01*
X131911980Y-109490000D01*
X132102457Y-109394761D01*
X132578647Y-109394761D01*
X132864361Y-109490000D01*
X133531028Y-109394761D02*
X134864361Y-109394761D01*
X134007219Y-111394761D01*
X136007219Y-109394761D02*
X136197695Y-109394761D01*
X136388171Y-109490000D01*
X136483409Y-109585238D01*
X136578647Y-109775714D01*
X136673885Y-110156666D01*
X136673885Y-110632857D01*
X136578647Y-111013809D01*
X136483409Y-111204285D01*
X136388171Y-111299523D01*
X136197695Y-111394761D01*
X136007219Y-111394761D01*
X135816742Y-111299523D01*
X135721504Y-111204285D01*
X135626266Y-111013809D01*
X135531028Y-110632857D01*
X135531028Y-110156666D01*
X135626266Y-109775714D01*
X135721504Y-109585238D01*
X135816742Y-109490000D01*
X136007219Y-109394761D01*
X137911980Y-109394761D02*
X138102457Y-109394761D01*
X138292933Y-109490000D01*
X138388171Y-109585238D01*
X138483409Y-109775714D01*
X138578647Y-110156666D01*
X138578647Y-110632857D01*
X138483409Y-111013809D01*
X138388171Y-111204285D01*
X138292933Y-111299523D01*
X138102457Y-111394761D01*
X137911980Y-111394761D01*
X137721504Y-111299523D01*
X137626266Y-111204285D01*
X137531028Y-111013809D01*
X137435790Y-110632857D01*
X137435790Y-110156666D01*
X137531028Y-109775714D01*
X137626266Y-109585238D01*
X137721504Y-109490000D01*
X137911980Y-109394761D01*
X139245314Y-109394761D02*
X140483409Y-109394761D01*
X139816742Y-110156666D01*
X140102457Y-110156666D01*
X140292933Y-110251904D01*
X140388171Y-110347142D01*
X140483409Y-110537619D01*
X140483409Y-111013809D01*
X140388171Y-111204285D01*
X140292933Y-111299523D01*
X140102457Y-111394761D01*
X139531028Y-111394761D01*
X139340552Y-111299523D01*
X139245314Y-111204285D01*
X180797771Y-91277961D02*
X180797771Y-89277961D01*
X181464438Y-90706533D01*
X182131104Y-89277961D01*
X182131104Y-91277961D01*
X183083485Y-91277961D02*
X183083485Y-89277961D01*
X183083485Y-90230342D02*
X184226342Y-90230342D01*
X184226342Y-91277961D02*
X184226342Y-89277961D01*
X184988247Y-89277961D02*
X186321580Y-89277961D01*
X184988247Y-91277961D01*
X186321580Y-91277961D01*
X188131104Y-91277961D02*
X186988247Y-91277961D01*
X187559676Y-91277961D02*
X187559676Y-89277961D01*
X187369200Y-89563676D01*
X187178723Y-89754152D01*
X186988247Y-89849390D01*
X189083485Y-91277961D02*
X189464438Y-91277961D01*
X189654914Y-91182723D01*
X189750152Y-91087485D01*
X189940628Y-90801771D01*
X190035866Y-90420819D01*
X190035866Y-89658914D01*
X189940628Y-89468438D01*
X189845390Y-89373200D01*
X189654914Y-89277961D01*
X189273961Y-89277961D01*
X189083485Y-89373200D01*
X188988247Y-89468438D01*
X188893009Y-89658914D01*
X188893009Y-90135104D01*
X188988247Y-90325580D01*
X189083485Y-90420819D01*
X189273961Y-90516057D01*
X189654914Y-90516057D01*
X189845390Y-90420819D01*
X189940628Y-90325580D01*
X190035866Y-90135104D01*
X165141161Y-85251371D02*
X164188780Y-85918038D01*
X165141161Y-86394228D02*
X163141161Y-86394228D01*
X163141161Y-85632323D01*
X163236400Y-85441847D01*
X163331638Y-85346609D01*
X163522114Y-85251371D01*
X163807828Y-85251371D01*
X163998304Y-85346609D01*
X164093542Y-85441847D01*
X164188780Y-85632323D01*
X164188780Y-86394228D01*
X164093542Y-83727561D02*
X164093542Y-84394228D01*
X165141161Y-84394228D02*
X163141161Y-84394228D01*
X163141161Y-83441847D01*
X165141161Y-82679942D02*
X163141161Y-82679942D01*
X164569733Y-82013276D01*
X163141161Y-81346609D01*
X165141161Y-81346609D01*
X165141161Y-80298990D02*
X165141161Y-79918038D01*
X165045923Y-79727561D01*
X164950685Y-79632323D01*
X164664971Y-79441847D01*
X164284019Y-79346609D01*
X163522114Y-79346609D01*
X163331638Y-79441847D01*
X163236400Y-79537085D01*
X163141161Y-79727561D01*
X163141161Y-80108514D01*
X163236400Y-80298990D01*
X163331638Y-80394228D01*
X163522114Y-80489466D01*
X163998304Y-80489466D01*
X164188780Y-80394228D01*
X164284019Y-80298990D01*
X164379257Y-80108514D01*
X164379257Y-79727561D01*
X164284019Y-79537085D01*
X164188780Y-79441847D01*
X163998304Y-79346609D01*
X163141161Y-77537085D02*
X163141161Y-78489466D01*
X164093542Y-78584704D01*
X163998304Y-78489466D01*
X163903066Y-78298990D01*
X163903066Y-77822800D01*
X163998304Y-77632323D01*
X164093542Y-77537085D01*
X164284019Y-77441847D01*
X164760209Y-77441847D01*
X164950685Y-77537085D01*
X165045923Y-77632323D01*
X165141161Y-77822800D01*
X165141161Y-78298990D01*
X165045923Y-78489466D01*
X164950685Y-78584704D01*
X163141161Y-76775180D02*
X165141161Y-76298990D01*
X163712590Y-75918038D01*
X165141161Y-75537085D01*
X163141161Y-75060895D01*
X135311485Y-71052571D02*
X135311485Y-72052571D01*
X134954342Y-70481142D02*
X134597200Y-71552571D01*
X135525771Y-71552571D01*
X136097200Y-72052571D02*
X136097200Y-70552571D01*
X136240057Y-71481142D02*
X136668628Y-72052571D01*
X136668628Y-71052571D02*
X136097200Y-71624000D01*
X137168628Y-70552571D02*
X138168628Y-70552571D01*
X137525771Y-72052571D01*
X129910971Y-78199371D02*
X129053828Y-78199371D01*
X129482400Y-78199371D02*
X129482400Y-76699371D01*
X129339542Y-76913657D01*
X129196685Y-77056514D01*
X129053828Y-77127942D01*
X130839542Y-76699371D02*
X130982400Y-76699371D01*
X131125257Y-76770800D01*
X131196685Y-76842228D01*
X131268114Y-76985085D01*
X131339542Y-77270800D01*
X131339542Y-77627942D01*
X131268114Y-77913657D01*
X131196685Y-78056514D01*
X131125257Y-78127942D01*
X130982400Y-78199371D01*
X130839542Y-78199371D01*
X130696685Y-78127942D01*
X130625257Y-78056514D01*
X130553828Y-77913657D01*
X130482400Y-77627942D01*
X130482400Y-77270800D01*
X130553828Y-76985085D01*
X130625257Y-76842228D01*
X130696685Y-76770800D01*
X130839542Y-76699371D01*
X132268114Y-76699371D02*
X132410971Y-76699371D01*
X132553828Y-76770800D01*
X132625257Y-76842228D01*
X132696685Y-76985085D01*
X132768114Y-77270800D01*
X132768114Y-77627942D01*
X132696685Y-77913657D01*
X132625257Y-78056514D01*
X132553828Y-78127942D01*
X132410971Y-78199371D01*
X132268114Y-78199371D01*
X132125257Y-78127942D01*
X132053828Y-78056514D01*
X131982400Y-77913657D01*
X131910971Y-77627942D01*
X131910971Y-77270800D01*
X131982400Y-76985085D01*
X132053828Y-76842228D01*
X132125257Y-76770800D01*
X132268114Y-76699371D01*
X133410971Y-77199371D02*
X133410971Y-78199371D01*
X133410971Y-77342228D02*
X133482400Y-77270800D01*
X133625257Y-77199371D01*
X133839542Y-77199371D01*
X133982400Y-77270800D01*
X134053828Y-77413657D01*
X134053828Y-78199371D01*
X135268114Y-77413657D02*
X134768114Y-77413657D01*
X134768114Y-78199371D02*
X134768114Y-76699371D01*
X135482400Y-76699371D01*
X103139371Y-118331371D02*
X102282228Y-118331371D01*
X102710800Y-118331371D02*
X102710800Y-116831371D01*
X102567942Y-117045657D01*
X102425085Y-117188514D01*
X102282228Y-117259942D01*
X104067942Y-116831371D02*
X104210800Y-116831371D01*
X104353657Y-116902800D01*
X104425085Y-116974228D01*
X104496514Y-117117085D01*
X104567942Y-117402800D01*
X104567942Y-117759942D01*
X104496514Y-118045657D01*
X104425085Y-118188514D01*
X104353657Y-118259942D01*
X104210800Y-118331371D01*
X104067942Y-118331371D01*
X103925085Y-118259942D01*
X103853657Y-118188514D01*
X103782228Y-118045657D01*
X103710800Y-117759942D01*
X103710800Y-117402800D01*
X103782228Y-117117085D01*
X103853657Y-116974228D01*
X103925085Y-116902800D01*
X104067942Y-116831371D01*
X105496514Y-116831371D02*
X105639371Y-116831371D01*
X105782228Y-116902800D01*
X105853657Y-116974228D01*
X105925085Y-117117085D01*
X105996514Y-117402800D01*
X105996514Y-117759942D01*
X105925085Y-118045657D01*
X105853657Y-118188514D01*
X105782228Y-118259942D01*
X105639371Y-118331371D01*
X105496514Y-118331371D01*
X105353657Y-118259942D01*
X105282228Y-118188514D01*
X105210800Y-118045657D01*
X105139371Y-117759942D01*
X105139371Y-117402800D01*
X105210800Y-117117085D01*
X105282228Y-116974228D01*
X105353657Y-116902800D01*
X105496514Y-116831371D01*
X106639371Y-117331371D02*
X106639371Y-118331371D01*
X106639371Y-117474228D02*
X106710800Y-117402800D01*
X106853657Y-117331371D01*
X107067942Y-117331371D01*
X107210800Y-117402800D01*
X107282228Y-117545657D01*
X107282228Y-118331371D01*
X108496514Y-117545657D02*
X107996514Y-117545657D01*
X107996514Y-118331371D02*
X107996514Y-116831371D01*
X108710800Y-116831371D01*
X107812971Y-91458171D02*
X106955828Y-91458171D01*
X107384400Y-91458171D02*
X107384400Y-89958171D01*
X107241542Y-90172457D01*
X107098685Y-90315314D01*
X106955828Y-90386742D01*
X108741542Y-89958171D02*
X108884400Y-89958171D01*
X109027257Y-90029600D01*
X109098685Y-90101028D01*
X109170114Y-90243885D01*
X109241542Y-90529600D01*
X109241542Y-90886742D01*
X109170114Y-91172457D01*
X109098685Y-91315314D01*
X109027257Y-91386742D01*
X108884400Y-91458171D01*
X108741542Y-91458171D01*
X108598685Y-91386742D01*
X108527257Y-91315314D01*
X108455828Y-91172457D01*
X108384400Y-90886742D01*
X108384400Y-90529600D01*
X108455828Y-90243885D01*
X108527257Y-90101028D01*
X108598685Y-90029600D01*
X108741542Y-89958171D01*
X110170114Y-89958171D02*
X110312971Y-89958171D01*
X110455828Y-90029600D01*
X110527257Y-90101028D01*
X110598685Y-90243885D01*
X110670114Y-90529600D01*
X110670114Y-90886742D01*
X110598685Y-91172457D01*
X110527257Y-91315314D01*
X110455828Y-91386742D01*
X110312971Y-91458171D01*
X110170114Y-91458171D01*
X110027257Y-91386742D01*
X109955828Y-91315314D01*
X109884400Y-91172457D01*
X109812971Y-90886742D01*
X109812971Y-90529600D01*
X109884400Y-90243885D01*
X109955828Y-90101028D01*
X110027257Y-90029600D01*
X110170114Y-89958171D01*
X111312971Y-90458171D02*
X111312971Y-91458171D01*
X111312971Y-90601028D02*
X111384400Y-90529600D01*
X111527257Y-90458171D01*
X111741542Y-90458171D01*
X111884400Y-90529600D01*
X111955828Y-90672457D01*
X111955828Y-91458171D01*
X113170114Y-90672457D02*
X112670114Y-90672457D01*
X112670114Y-91458171D02*
X112670114Y-89958171D01*
X113384400Y-89958171D01*
X128127714Y-63010171D02*
X128127714Y-61510171D01*
X128484857Y-61510171D01*
X128699142Y-61581600D01*
X128842000Y-61724457D01*
X128913428Y-61867314D01*
X128984857Y-62153028D01*
X128984857Y-62367314D01*
X128913428Y-62653028D01*
X128842000Y-62795885D01*
X128699142Y-62938742D01*
X128484857Y-63010171D01*
X128127714Y-63010171D01*
X129556285Y-62938742D02*
X129770571Y-63010171D01*
X130127714Y-63010171D01*
X130270571Y-62938742D01*
X130342000Y-62867314D01*
X130413428Y-62724457D01*
X130413428Y-62581600D01*
X130342000Y-62438742D01*
X130270571Y-62367314D01*
X130127714Y-62295885D01*
X129842000Y-62224457D01*
X129699142Y-62153028D01*
X129627714Y-62081600D01*
X129556285Y-61938742D01*
X129556285Y-61795885D01*
X129627714Y-61653028D01*
X129699142Y-61581600D01*
X129842000Y-61510171D01*
X130199142Y-61510171D01*
X130413428Y-61581600D01*
X131842000Y-63010171D02*
X130984857Y-63010171D01*
X131413428Y-63010171D02*
X131413428Y-61510171D01*
X131270571Y-61724457D01*
X131127714Y-61867314D01*
X130984857Y-61938742D01*
X132699142Y-62153028D02*
X132556285Y-62081600D01*
X132484857Y-62010171D01*
X132413428Y-61867314D01*
X132413428Y-61795885D01*
X132484857Y-61653028D01*
X132556285Y-61581600D01*
X132699142Y-61510171D01*
X132984857Y-61510171D01*
X133127714Y-61581600D01*
X133199142Y-61653028D01*
X133270571Y-61795885D01*
X133270571Y-61867314D01*
X133199142Y-62010171D01*
X133127714Y-62081600D01*
X132984857Y-62153028D01*
X132699142Y-62153028D01*
X132556285Y-62224457D01*
X132484857Y-62295885D01*
X132413428Y-62438742D01*
X132413428Y-62724457D01*
X132484857Y-62867314D01*
X132556285Y-62938742D01*
X132699142Y-63010171D01*
X132984857Y-63010171D01*
X133127714Y-62938742D01*
X133199142Y-62867314D01*
X133270571Y-62724457D01*
X133270571Y-62438742D01*
X133199142Y-62295885D01*
X133127714Y-62224457D01*
X132984857Y-62153028D01*
X134413428Y-62224457D02*
X134627714Y-62295885D01*
X134699142Y-62367314D01*
X134770571Y-62510171D01*
X134770571Y-62724457D01*
X134699142Y-62867314D01*
X134627714Y-62938742D01*
X134484857Y-63010171D01*
X133913428Y-63010171D01*
X133913428Y-61510171D01*
X134413428Y-61510171D01*
X134556285Y-61581600D01*
X134627714Y-61653028D01*
X134699142Y-61795885D01*
X134699142Y-61938742D01*
X134627714Y-62081600D01*
X134556285Y-62153028D01*
X134413428Y-62224457D01*
X133913428Y-62224457D01*
X135342000Y-61653028D02*
X135413428Y-61581600D01*
X135556285Y-61510171D01*
X135913428Y-61510171D01*
X136056285Y-61581600D01*
X136127714Y-61653028D01*
X136199142Y-61795885D01*
X136199142Y-61938742D01*
X136127714Y-62153028D01*
X135270571Y-63010171D01*
X136199142Y-63010171D01*
X137127714Y-61510171D02*
X137270571Y-61510171D01*
X137413428Y-61581600D01*
X137484857Y-61653028D01*
X137556285Y-61795885D01*
X137627714Y-62081600D01*
X137627714Y-62438742D01*
X137556285Y-62724457D01*
X137484857Y-62867314D01*
X137413428Y-62938742D01*
X137270571Y-63010171D01*
X137127714Y-63010171D01*
X136984857Y-62938742D01*
X136913428Y-62867314D01*
X136842000Y-62724457D01*
X136770571Y-62438742D01*
X136770571Y-62081600D01*
X136842000Y-61795885D01*
X136913428Y-61653028D01*
X136984857Y-61581600D01*
X137127714Y-61510171D01*
X104361371Y-102758285D02*
X102861371Y-102758285D01*
X102861371Y-102401142D01*
X102932800Y-102186857D01*
X103075657Y-102044000D01*
X103218514Y-101972571D01*
X103504228Y-101901142D01*
X103718514Y-101901142D01*
X104004228Y-101972571D01*
X104147085Y-102044000D01*
X104289942Y-102186857D01*
X104361371Y-102401142D01*
X104361371Y-102758285D01*
X104289942Y-101329714D02*
X104361371Y-101115428D01*
X104361371Y-100758285D01*
X104289942Y-100615428D01*
X104218514Y-100544000D01*
X104075657Y-100472571D01*
X103932800Y-100472571D01*
X103789942Y-100544000D01*
X103718514Y-100615428D01*
X103647085Y-100758285D01*
X103575657Y-101044000D01*
X103504228Y-101186857D01*
X103432800Y-101258285D01*
X103289942Y-101329714D01*
X103147085Y-101329714D01*
X103004228Y-101258285D01*
X102932800Y-101186857D01*
X102861371Y-101044000D01*
X102861371Y-100686857D01*
X102932800Y-100472571D01*
X104361371Y-99044000D02*
X104361371Y-99901142D01*
X104361371Y-99472571D02*
X102861371Y-99472571D01*
X103075657Y-99615428D01*
X103218514Y-99758285D01*
X103289942Y-99901142D01*
X103504228Y-98186857D02*
X103432800Y-98329714D01*
X103361371Y-98401142D01*
X103218514Y-98472571D01*
X103147085Y-98472571D01*
X103004228Y-98401142D01*
X102932800Y-98329714D01*
X102861371Y-98186857D01*
X102861371Y-97901142D01*
X102932800Y-97758285D01*
X103004228Y-97686857D01*
X103147085Y-97615428D01*
X103218514Y-97615428D01*
X103361371Y-97686857D01*
X103432800Y-97758285D01*
X103504228Y-97901142D01*
X103504228Y-98186857D01*
X103575657Y-98329714D01*
X103647085Y-98401142D01*
X103789942Y-98472571D01*
X104075657Y-98472571D01*
X104218514Y-98401142D01*
X104289942Y-98329714D01*
X104361371Y-98186857D01*
X104361371Y-97901142D01*
X104289942Y-97758285D01*
X104218514Y-97686857D01*
X104075657Y-97615428D01*
X103789942Y-97615428D01*
X103647085Y-97686857D01*
X103575657Y-97758285D01*
X103504228Y-97901142D01*
X103575657Y-96472571D02*
X103647085Y-96258285D01*
X103718514Y-96186857D01*
X103861371Y-96115428D01*
X104075657Y-96115428D01*
X104218514Y-96186857D01*
X104289942Y-96258285D01*
X104361371Y-96401142D01*
X104361371Y-96972571D01*
X102861371Y-96972571D01*
X102861371Y-96472571D01*
X102932800Y-96329714D01*
X103004228Y-96258285D01*
X103147085Y-96186857D01*
X103289942Y-96186857D01*
X103432800Y-96258285D01*
X103504228Y-96329714D01*
X103575657Y-96472571D01*
X103575657Y-96972571D01*
X103004228Y-95544000D02*
X102932800Y-95472571D01*
X102861371Y-95329714D01*
X102861371Y-94972571D01*
X102932800Y-94829714D01*
X103004228Y-94758285D01*
X103147085Y-94686857D01*
X103289942Y-94686857D01*
X103504228Y-94758285D01*
X104361371Y-95615428D01*
X104361371Y-94686857D01*
X102861371Y-93758285D02*
X102861371Y-93615428D01*
X102932800Y-93472571D01*
X103004228Y-93401142D01*
X103147085Y-93329714D01*
X103432800Y-93258285D01*
X103789942Y-93258285D01*
X104075657Y-93329714D01*
X104218514Y-93401142D01*
X104289942Y-93472571D01*
X104361371Y-93615428D01*
X104361371Y-93758285D01*
X104289942Y-93901142D01*
X104218514Y-93972571D01*
X104075657Y-94044000D01*
X103789942Y-94115428D01*
X103432800Y-94115428D01*
X103147085Y-94044000D01*
X103004228Y-93972571D01*
X102932800Y-93901142D01*
X102861371Y-93758285D01*
X105936171Y-130698285D02*
X104436171Y-130698285D01*
X104436171Y-130341142D01*
X104507600Y-130126857D01*
X104650457Y-129984000D01*
X104793314Y-129912571D01*
X105079028Y-129841142D01*
X105293314Y-129841142D01*
X105579028Y-129912571D01*
X105721885Y-129984000D01*
X105864742Y-130126857D01*
X105936171Y-130341142D01*
X105936171Y-130698285D01*
X105864742Y-129269714D02*
X105936171Y-129055428D01*
X105936171Y-128698285D01*
X105864742Y-128555428D01*
X105793314Y-128484000D01*
X105650457Y-128412571D01*
X105507600Y-128412571D01*
X105364742Y-128484000D01*
X105293314Y-128555428D01*
X105221885Y-128698285D01*
X105150457Y-128984000D01*
X105079028Y-129126857D01*
X105007600Y-129198285D01*
X104864742Y-129269714D01*
X104721885Y-129269714D01*
X104579028Y-129198285D01*
X104507600Y-129126857D01*
X104436171Y-128984000D01*
X104436171Y-128626857D01*
X104507600Y-128412571D01*
X105936171Y-126984000D02*
X105936171Y-127841142D01*
X105936171Y-127412571D02*
X104436171Y-127412571D01*
X104650457Y-127555428D01*
X104793314Y-127698285D01*
X104864742Y-127841142D01*
X105079028Y-126126857D02*
X105007600Y-126269714D01*
X104936171Y-126341142D01*
X104793314Y-126412571D01*
X104721885Y-126412571D01*
X104579028Y-126341142D01*
X104507600Y-126269714D01*
X104436171Y-126126857D01*
X104436171Y-125841142D01*
X104507600Y-125698285D01*
X104579028Y-125626857D01*
X104721885Y-125555428D01*
X104793314Y-125555428D01*
X104936171Y-125626857D01*
X105007600Y-125698285D01*
X105079028Y-125841142D01*
X105079028Y-126126857D01*
X105150457Y-126269714D01*
X105221885Y-126341142D01*
X105364742Y-126412571D01*
X105650457Y-126412571D01*
X105793314Y-126341142D01*
X105864742Y-126269714D01*
X105936171Y-126126857D01*
X105936171Y-125841142D01*
X105864742Y-125698285D01*
X105793314Y-125626857D01*
X105650457Y-125555428D01*
X105364742Y-125555428D01*
X105221885Y-125626857D01*
X105150457Y-125698285D01*
X105079028Y-125841142D01*
X105150457Y-124412571D02*
X105221885Y-124198285D01*
X105293314Y-124126857D01*
X105436171Y-124055428D01*
X105650457Y-124055428D01*
X105793314Y-124126857D01*
X105864742Y-124198285D01*
X105936171Y-124341142D01*
X105936171Y-124912571D01*
X104436171Y-124912571D01*
X104436171Y-124412571D01*
X104507600Y-124269714D01*
X104579028Y-124198285D01*
X104721885Y-124126857D01*
X104864742Y-124126857D01*
X105007600Y-124198285D01*
X105079028Y-124269714D01*
X105150457Y-124412571D01*
X105150457Y-124912571D01*
X104579028Y-123484000D02*
X104507600Y-123412571D01*
X104436171Y-123269714D01*
X104436171Y-122912571D01*
X104507600Y-122769714D01*
X104579028Y-122698285D01*
X104721885Y-122626857D01*
X104864742Y-122626857D01*
X105079028Y-122698285D01*
X105936171Y-123555428D01*
X105936171Y-122626857D01*
X104436171Y-121698285D02*
X104436171Y-121555428D01*
X104507600Y-121412571D01*
X104579028Y-121341142D01*
X104721885Y-121269714D01*
X105007600Y-121198285D01*
X105364742Y-121198285D01*
X105650457Y-121269714D01*
X105793314Y-121341142D01*
X105864742Y-121412571D01*
X105936171Y-121555428D01*
X105936171Y-121698285D01*
X105864742Y-121841142D01*
X105793314Y-121912571D01*
X105650457Y-121984000D01*
X105364742Y-122055428D01*
X105007600Y-122055428D01*
X104721885Y-121984000D01*
X104579028Y-121912571D01*
X104507600Y-121841142D01*
X104436171Y-121698285D01*
X140305723Y-77928795D02*
X140400961Y-77643080D01*
X140400961Y-77166890D01*
X140305723Y-76976414D01*
X140210485Y-76881176D01*
X140020009Y-76785938D01*
X139829533Y-76785938D01*
X139639057Y-76881176D01*
X139543819Y-76976414D01*
X139448580Y-77166890D01*
X139353342Y-77547842D01*
X139258104Y-77738319D01*
X139162866Y-77833557D01*
X138972390Y-77928795D01*
X138781914Y-77928795D01*
X138591438Y-77833557D01*
X138496200Y-77738319D01*
X138400961Y-77547842D01*
X138400961Y-77071652D01*
X138496200Y-76785938D01*
X140400961Y-75928795D02*
X138400961Y-75928795D01*
X138400961Y-75452604D01*
X138496200Y-75166890D01*
X138686676Y-74976414D01*
X138877152Y-74881176D01*
X139258104Y-74785938D01*
X139543819Y-74785938D01*
X139924771Y-74881176D01*
X140115247Y-74976414D01*
X140305723Y-75166890D01*
X140400961Y-75452604D01*
X140400961Y-75928795D01*
X139829533Y-74024033D02*
X139829533Y-73071652D01*
X140400961Y-74214509D02*
X138400961Y-73547842D01*
X140400961Y-72881176D01*
X143455723Y-77833557D02*
X143550961Y-77547842D01*
X143550961Y-77071652D01*
X143455723Y-76881176D01*
X143360485Y-76785938D01*
X143170009Y-76690700D01*
X142979533Y-76690700D01*
X142789057Y-76785938D01*
X142693819Y-76881176D01*
X142598580Y-77071652D01*
X142503342Y-77452604D01*
X142408104Y-77643080D01*
X142312866Y-77738319D01*
X142122390Y-77833557D01*
X141931914Y-77833557D01*
X141741438Y-77738319D01*
X141646200Y-77643080D01*
X141550961Y-77452604D01*
X141550961Y-76976414D01*
X141646200Y-76690700D01*
X143360485Y-74690700D02*
X143455723Y-74785938D01*
X143550961Y-75071652D01*
X143550961Y-75262128D01*
X143455723Y-75547842D01*
X143265247Y-75738319D01*
X143074771Y-75833557D01*
X142693819Y-75928795D01*
X142408104Y-75928795D01*
X142027152Y-75833557D01*
X141836676Y-75738319D01*
X141646200Y-75547842D01*
X141550961Y-75262128D01*
X141550961Y-75071652D01*
X141646200Y-74785938D01*
X141741438Y-74690700D01*
X143550961Y-72881176D02*
X143550961Y-73833557D01*
X141550961Y-73833557D01*
X144796200Y-77262128D02*
X144700961Y-77452604D01*
X144700961Y-77738319D01*
X144796200Y-78024033D01*
X144986676Y-78214509D01*
X145177152Y-78309747D01*
X145558104Y-78404985D01*
X145843819Y-78404985D01*
X146224771Y-78309747D01*
X146415247Y-78214509D01*
X146605723Y-78024033D01*
X146700961Y-77738319D01*
X146700961Y-77547842D01*
X146605723Y-77262128D01*
X146510485Y-77166890D01*
X145843819Y-77166890D01*
X145843819Y-77547842D01*
X146700961Y-76309747D02*
X144700961Y-76309747D01*
X146700961Y-75166890D01*
X144700961Y-75166890D01*
X146700961Y-74214509D02*
X144700961Y-74214509D01*
X144700961Y-73738319D01*
X144796200Y-73452604D01*
X144986676Y-73262128D01*
X145177152Y-73166890D01*
X145558104Y-73071652D01*
X145843819Y-73071652D01*
X146224771Y-73166890D01*
X146415247Y-73262128D01*
X146605723Y-73452604D01*
X146700961Y-73738319D01*
X146700961Y-74214509D01*
X147850961Y-78881176D02*
X147850961Y-77643080D01*
X148612866Y-78309747D01*
X148612866Y-78024033D01*
X148708104Y-77833557D01*
X148803342Y-77738319D01*
X148993819Y-77643080D01*
X149470009Y-77643080D01*
X149660485Y-77738319D01*
X149755723Y-77833557D01*
X149850961Y-78024033D01*
X149850961Y-78595461D01*
X149755723Y-78785938D01*
X149660485Y-78881176D01*
X149660485Y-76785938D02*
X149755723Y-76690700D01*
X149850961Y-76785938D01*
X149755723Y-76881176D01*
X149660485Y-76785938D01*
X149850961Y-76785938D01*
X147850961Y-76024033D02*
X147850961Y-74785938D01*
X148612866Y-75452604D01*
X148612866Y-75166890D01*
X148708104Y-74976414D01*
X148803342Y-74881176D01*
X148993819Y-74785938D01*
X149470009Y-74785938D01*
X149660485Y-74881176D01*
X149755723Y-74976414D01*
X149850961Y-75166890D01*
X149850961Y-75738319D01*
X149755723Y-75928795D01*
X149660485Y-76024033D01*
X147850961Y-74214509D02*
X149850961Y-73547842D01*
X147850961Y-72881176D01*
X117242523Y-78182795D02*
X117337761Y-77897080D01*
X117337761Y-77420890D01*
X117242523Y-77230414D01*
X117147285Y-77135176D01*
X116956809Y-77039938D01*
X116766333Y-77039938D01*
X116575857Y-77135176D01*
X116480619Y-77230414D01*
X116385380Y-77420890D01*
X116290142Y-77801842D01*
X116194904Y-77992319D01*
X116099666Y-78087557D01*
X115909190Y-78182795D01*
X115718714Y-78182795D01*
X115528238Y-78087557D01*
X115433000Y-77992319D01*
X115337761Y-77801842D01*
X115337761Y-77325652D01*
X115433000Y-77039938D01*
X117337761Y-76182795D02*
X115337761Y-76182795D01*
X115337761Y-75706604D01*
X115433000Y-75420890D01*
X115623476Y-75230414D01*
X115813952Y-75135176D01*
X116194904Y-75039938D01*
X116480619Y-75039938D01*
X116861571Y-75135176D01*
X117052047Y-75230414D01*
X117242523Y-75420890D01*
X117337761Y-75706604D01*
X117337761Y-76182795D01*
X116766333Y-74278033D02*
X116766333Y-73325652D01*
X117337761Y-74468509D02*
X115337761Y-73801842D01*
X117337761Y-73135176D01*
X120392523Y-78087557D02*
X120487761Y-77801842D01*
X120487761Y-77325652D01*
X120392523Y-77135176D01*
X120297285Y-77039938D01*
X120106809Y-76944700D01*
X119916333Y-76944700D01*
X119725857Y-77039938D01*
X119630619Y-77135176D01*
X119535380Y-77325652D01*
X119440142Y-77706604D01*
X119344904Y-77897080D01*
X119249666Y-77992319D01*
X119059190Y-78087557D01*
X118868714Y-78087557D01*
X118678238Y-77992319D01*
X118583000Y-77897080D01*
X118487761Y-77706604D01*
X118487761Y-77230414D01*
X118583000Y-76944700D01*
X120297285Y-74944700D02*
X120392523Y-75039938D01*
X120487761Y-75325652D01*
X120487761Y-75516128D01*
X120392523Y-75801842D01*
X120202047Y-75992319D01*
X120011571Y-76087557D01*
X119630619Y-76182795D01*
X119344904Y-76182795D01*
X118963952Y-76087557D01*
X118773476Y-75992319D01*
X118583000Y-75801842D01*
X118487761Y-75516128D01*
X118487761Y-75325652D01*
X118583000Y-75039938D01*
X118678238Y-74944700D01*
X120487761Y-73135176D02*
X120487761Y-74087557D01*
X118487761Y-74087557D01*
X121733000Y-77516128D02*
X121637761Y-77706604D01*
X121637761Y-77992319D01*
X121733000Y-78278033D01*
X121923476Y-78468509D01*
X122113952Y-78563747D01*
X122494904Y-78658985D01*
X122780619Y-78658985D01*
X123161571Y-78563747D01*
X123352047Y-78468509D01*
X123542523Y-78278033D01*
X123637761Y-77992319D01*
X123637761Y-77801842D01*
X123542523Y-77516128D01*
X123447285Y-77420890D01*
X122780619Y-77420890D01*
X122780619Y-77801842D01*
X123637761Y-76563747D02*
X121637761Y-76563747D01*
X123637761Y-75420890D01*
X121637761Y-75420890D01*
X123637761Y-74468509D02*
X121637761Y-74468509D01*
X121637761Y-73992319D01*
X121733000Y-73706604D01*
X121923476Y-73516128D01*
X122113952Y-73420890D01*
X122494904Y-73325652D01*
X122780619Y-73325652D01*
X123161571Y-73420890D01*
X123352047Y-73516128D01*
X123542523Y-73706604D01*
X123637761Y-73992319D01*
X123637761Y-74468509D01*
X124787761Y-79135176D02*
X124787761Y-77897080D01*
X125549666Y-78563747D01*
X125549666Y-78278033D01*
X125644904Y-78087557D01*
X125740142Y-77992319D01*
X125930619Y-77897080D01*
X126406809Y-77897080D01*
X126597285Y-77992319D01*
X126692523Y-78087557D01*
X126787761Y-78278033D01*
X126787761Y-78849461D01*
X126692523Y-79039938D01*
X126597285Y-79135176D01*
X126597285Y-77039938D02*
X126692523Y-76944700D01*
X126787761Y-77039938D01*
X126692523Y-77135176D01*
X126597285Y-77039938D01*
X126787761Y-77039938D01*
X124787761Y-76278033D02*
X124787761Y-75039938D01*
X125549666Y-75706604D01*
X125549666Y-75420890D01*
X125644904Y-75230414D01*
X125740142Y-75135176D01*
X125930619Y-75039938D01*
X126406809Y-75039938D01*
X126597285Y-75135176D01*
X126692523Y-75230414D01*
X126787761Y-75420890D01*
X126787761Y-75992319D01*
X126692523Y-76182795D01*
X126597285Y-76278033D01*
X124787761Y-74468509D02*
X126787761Y-73801842D01*
X124787761Y-73135176D01*
X140680600Y-153614528D02*
X140585361Y-153805004D01*
X140585361Y-154090719D01*
X140680600Y-154376433D01*
X140871076Y-154566909D01*
X141061552Y-154662147D01*
X141442504Y-154757385D01*
X141728219Y-154757385D01*
X142109171Y-154662147D01*
X142299647Y-154566909D01*
X142490123Y-154376433D01*
X142585361Y-154090719D01*
X142585361Y-153900242D01*
X142490123Y-153614528D01*
X142394885Y-153519290D01*
X141728219Y-153519290D01*
X141728219Y-153900242D01*
X142585361Y-152662147D02*
X140585361Y-152662147D01*
X142585361Y-151519290D01*
X140585361Y-151519290D01*
X142585361Y-150566909D02*
X140585361Y-150566909D01*
X140585361Y-150090719D01*
X140680600Y-149805004D01*
X140871076Y-149614528D01*
X141061552Y-149519290D01*
X141442504Y-149424052D01*
X141728219Y-149424052D01*
X142109171Y-149519290D01*
X142299647Y-149614528D01*
X142490123Y-149805004D01*
X142585361Y-150090719D01*
X142585361Y-150566909D01*
X143735361Y-155233576D02*
X143735361Y-153995480D01*
X144497266Y-154662147D01*
X144497266Y-154376433D01*
X144592504Y-154185957D01*
X144687742Y-154090719D01*
X144878219Y-153995480D01*
X145354409Y-153995480D01*
X145544885Y-154090719D01*
X145640123Y-154185957D01*
X145735361Y-154376433D01*
X145735361Y-154947861D01*
X145640123Y-155138338D01*
X145544885Y-155233576D01*
X145544885Y-153138338D02*
X145640123Y-153043100D01*
X145735361Y-153138338D01*
X145640123Y-153233576D01*
X145544885Y-153138338D01*
X145735361Y-153138338D01*
X143735361Y-152376433D02*
X143735361Y-151138338D01*
X144497266Y-151805004D01*
X144497266Y-151519290D01*
X144592504Y-151328814D01*
X144687742Y-151233576D01*
X144878219Y-151138338D01*
X145354409Y-151138338D01*
X145544885Y-151233576D01*
X145640123Y-151328814D01*
X145735361Y-151519290D01*
X145735361Y-152090719D01*
X145640123Y-152281195D01*
X145544885Y-152376433D01*
X143735361Y-150566909D02*
X145735361Y-149900242D01*
X143735361Y-149233576D01*
X148790123Y-154281195D02*
X148885361Y-153995480D01*
X148885361Y-153519290D01*
X148790123Y-153328814D01*
X148694885Y-153233576D01*
X148504409Y-153138338D01*
X148313933Y-153138338D01*
X148123457Y-153233576D01*
X148028219Y-153328814D01*
X147932980Y-153519290D01*
X147837742Y-153900242D01*
X147742504Y-154090719D01*
X147647266Y-154185957D01*
X147456790Y-154281195D01*
X147266314Y-154281195D01*
X147075838Y-154185957D01*
X146980600Y-154090719D01*
X146885361Y-153900242D01*
X146885361Y-153424052D01*
X146980600Y-153138338D01*
X148885361Y-152281195D02*
X146885361Y-152281195D01*
X146885361Y-151805004D01*
X146980600Y-151519290D01*
X147171076Y-151328814D01*
X147361552Y-151233576D01*
X147742504Y-151138338D01*
X148028219Y-151138338D01*
X148409171Y-151233576D01*
X148599647Y-151328814D01*
X148790123Y-151519290D01*
X148885361Y-151805004D01*
X148885361Y-152281195D01*
X148313933Y-150376433D02*
X148313933Y-149424052D01*
X148885361Y-150566909D02*
X146885361Y-149900242D01*
X148885361Y-149233576D01*
X151940123Y-154185957D02*
X152035361Y-153900242D01*
X152035361Y-153424052D01*
X151940123Y-153233576D01*
X151844885Y-153138338D01*
X151654409Y-153043100D01*
X151463933Y-153043100D01*
X151273457Y-153138338D01*
X151178219Y-153233576D01*
X151082980Y-153424052D01*
X150987742Y-153805004D01*
X150892504Y-153995480D01*
X150797266Y-154090719D01*
X150606790Y-154185957D01*
X150416314Y-154185957D01*
X150225838Y-154090719D01*
X150130600Y-153995480D01*
X150035361Y-153805004D01*
X150035361Y-153328814D01*
X150130600Y-153043100D01*
X151844885Y-151043100D02*
X151940123Y-151138338D01*
X152035361Y-151424052D01*
X152035361Y-151614528D01*
X151940123Y-151900242D01*
X151749647Y-152090719D01*
X151559171Y-152185957D01*
X151178219Y-152281195D01*
X150892504Y-152281195D01*
X150511552Y-152185957D01*
X150321076Y-152090719D01*
X150130600Y-151900242D01*
X150035361Y-151614528D01*
X150035361Y-151424052D01*
X150130600Y-151138338D01*
X150225838Y-151043100D01*
X152035361Y-149233576D02*
X152035361Y-150185957D01*
X150035361Y-150185957D01*
X130934152Y-150231600D02*
X130743676Y-150136361D01*
X130457961Y-150136361D01*
X130172247Y-150231600D01*
X129981771Y-150422076D01*
X129886533Y-150612552D01*
X129791295Y-150993504D01*
X129791295Y-151279219D01*
X129886533Y-151660171D01*
X129981771Y-151850647D01*
X130172247Y-152041123D01*
X130457961Y-152136361D01*
X130648438Y-152136361D01*
X130934152Y-152041123D01*
X131029390Y-151945885D01*
X131029390Y-151279219D01*
X130648438Y-151279219D01*
X131886533Y-152136361D02*
X131886533Y-150803028D01*
X131886533Y-151183980D02*
X131981771Y-150993504D01*
X132077009Y-150898266D01*
X132267485Y-150803028D01*
X132457961Y-150803028D01*
X133410342Y-152136361D02*
X133219866Y-152041123D01*
X133124628Y-151945885D01*
X133029390Y-151755409D01*
X133029390Y-151183980D01*
X133124628Y-150993504D01*
X133219866Y-150898266D01*
X133410342Y-150803028D01*
X133696057Y-150803028D01*
X133886533Y-150898266D01*
X133981771Y-150993504D01*
X134077009Y-151183980D01*
X134077009Y-151755409D01*
X133981771Y-151945885D01*
X133886533Y-152041123D01*
X133696057Y-152136361D01*
X133410342Y-152136361D01*
X134743676Y-150803028D02*
X135219866Y-152136361D01*
X135696057Y-150803028D01*
X137219866Y-152041123D02*
X137029390Y-152136361D01*
X136648438Y-152136361D01*
X136457961Y-152041123D01*
X136362723Y-151850647D01*
X136362723Y-151088742D01*
X136457961Y-150898266D01*
X136648438Y-150803028D01*
X137029390Y-150803028D01*
X137219866Y-150898266D01*
X137315104Y-151088742D01*
X137315104Y-151279219D01*
X136362723Y-151469695D01*
X173107885Y-125282142D02*
X173774552Y-125282142D01*
X174060266Y-126329761D02*
X173107885Y-126329761D01*
X173107885Y-124329761D01*
X174060266Y-124329761D01*
X174822171Y-126234523D02*
X175107885Y-126329761D01*
X175584076Y-126329761D01*
X175774552Y-126234523D01*
X175869790Y-126139285D01*
X175965028Y-125948809D01*
X175965028Y-125758333D01*
X175869790Y-125567857D01*
X175774552Y-125472619D01*
X175584076Y-125377380D01*
X175203123Y-125282142D01*
X175012647Y-125186904D01*
X174917409Y-125091666D01*
X174822171Y-124901190D01*
X174822171Y-124710714D01*
X174917409Y-124520238D01*
X175012647Y-124425000D01*
X175203123Y-124329761D01*
X175679314Y-124329761D01*
X175965028Y-124425000D01*
X176822171Y-126329761D02*
X176822171Y-124329761D01*
X177584076Y-124329761D01*
X177774552Y-124425000D01*
X177869790Y-124520238D01*
X177965028Y-124710714D01*
X177965028Y-124996428D01*
X177869790Y-125186904D01*
X177774552Y-125282142D01*
X177584076Y-125377380D01*
X176822171Y-125377380D01*
X178631695Y-124329761D02*
X179869790Y-124329761D01*
X179203123Y-125091666D01*
X179488838Y-125091666D01*
X179679314Y-125186904D01*
X179774552Y-125282142D01*
X179869790Y-125472619D01*
X179869790Y-125948809D01*
X179774552Y-126139285D01*
X179679314Y-126234523D01*
X179488838Y-126329761D01*
X178917409Y-126329761D01*
X178726933Y-126234523D01*
X178631695Y-126139285D01*
X180631695Y-124520238D02*
X180726933Y-124425000D01*
X180917409Y-124329761D01*
X181393600Y-124329761D01*
X181584076Y-124425000D01*
X181679314Y-124520238D01*
X181774552Y-124710714D01*
X181774552Y-124901190D01*
X181679314Y-125186904D01*
X180536457Y-126329761D01*
X181774552Y-126329761D01*
X171965028Y-129479761D02*
X171965028Y-127479761D01*
X172441219Y-127479761D01*
X172726933Y-127575000D01*
X172917409Y-127765476D01*
X173012647Y-127955952D01*
X173107885Y-128336904D01*
X173107885Y-128622619D01*
X173012647Y-129003571D01*
X172917409Y-129194047D01*
X172726933Y-129384523D01*
X172441219Y-129479761D01*
X171965028Y-129479761D01*
X175012647Y-129479761D02*
X173869790Y-129479761D01*
X174441219Y-129479761D02*
X174441219Y-127479761D01*
X174250742Y-127765476D01*
X174060266Y-127955952D01*
X173869790Y-128051190D01*
X177393600Y-129479761D02*
X177393600Y-128146428D01*
X177393600Y-128336904D02*
X177488838Y-128241666D01*
X177679314Y-128146428D01*
X177965028Y-128146428D01*
X178155504Y-128241666D01*
X178250742Y-128432142D01*
X178250742Y-129479761D01*
X178250742Y-128432142D02*
X178345980Y-128241666D01*
X178536457Y-128146428D01*
X178822171Y-128146428D01*
X179012647Y-128241666D01*
X179107885Y-128432142D01*
X179107885Y-129479761D01*
X180060266Y-129479761D02*
X180060266Y-128146428D01*
X180060266Y-127479761D02*
X179965028Y-127575000D01*
X180060266Y-127670238D01*
X180155504Y-127575000D01*
X180060266Y-127479761D01*
X180060266Y-127670238D01*
X181012647Y-128146428D02*
X181012647Y-129479761D01*
X181012647Y-128336904D02*
X181107885Y-128241666D01*
X181298361Y-128146428D01*
X181584076Y-128146428D01*
X181774552Y-128241666D01*
X181869790Y-128432142D01*
X181869790Y-129479761D01*
X182822171Y-129479761D02*
X182822171Y-128146428D01*
X182822171Y-127479761D02*
X182726933Y-127575000D01*
X182822171Y-127670238D01*
X182917409Y-127575000D01*
X182822171Y-127479761D01*
X182822171Y-127670238D01*
D12*
%TO.C,U5*%
X108589200Y-123726800D02*
X108589200Y-127326800D01*
X108600722Y-127365278D02*
G75*
G03*
X113039200Y-125526800I1838478J1838478D01*
G01*
X108600722Y-123688322D02*
G75*
G02*
X113039200Y-125526800I1838478J-1838478D01*
G01*
%TO.C,C3*%
X109914948Y-119178000D02*
X110437452Y-119178000D01*
X109914948Y-120598000D02*
X110437452Y-120598000D01*
%TO.C,J8*%
X142294400Y-141567200D02*
X142014400Y-141567200D01*
X142014400Y-141567200D02*
X142014400Y-139967200D01*
X142014400Y-139967200D02*
X141094400Y-139967200D01*
X141094400Y-139967200D02*
X141094400Y-147787200D01*
X141094400Y-147787200D02*
X151214400Y-147787200D01*
X151214400Y-147787200D02*
X151214400Y-139967200D01*
X151214400Y-139967200D02*
X150294400Y-139967200D01*
X150294400Y-139967200D02*
X150294400Y-141567200D01*
X150294400Y-141567200D02*
X150014400Y-141567200D01*
X143654400Y-147787200D02*
X143654400Y-143427200D01*
X143654400Y-143427200D02*
X148654400Y-143427200D01*
X148654400Y-143427200D02*
X148654400Y-147787200D01*
X141094400Y-141567200D02*
X142014400Y-141567200D01*
X151214400Y-141567200D02*
X150294400Y-141567200D01*
X141854400Y-143927200D02*
X141854400Y-145527200D01*
X141854400Y-145527200D02*
X142854400Y-145527200D01*
X142854400Y-145527200D02*
X142854400Y-143927200D01*
X142854400Y-143927200D02*
X141854400Y-143927200D01*
X150454400Y-143927200D02*
X150454400Y-145527200D01*
X150454400Y-145527200D02*
X149454400Y-145527200D01*
X149454400Y-145527200D02*
X149454400Y-143927200D01*
X149454400Y-143927200D02*
X150454400Y-143927200D01*
X142854400Y-145527200D02*
X142854400Y-147787200D01*
X142354400Y-145527200D02*
X142354400Y-147787200D01*
X142294400Y-141567200D02*
X142294400Y-140352200D01*
%TO.C,U4*%
X107928800Y-96396400D02*
X107928800Y-99996400D01*
X107940322Y-100034878D02*
G75*
G03*
X112378800Y-98196400I1838478J1838478D01*
G01*
X107940322Y-96357922D02*
G75*
G02*
X112378800Y-98196400I1838478J-1838478D01*
G01*
%TO.C,C2*%
X109887652Y-94182000D02*
X109365148Y-94182000D01*
X109887652Y-92762000D02*
X109365148Y-92762000D01*
D13*
%TO.C,U3*%
X173876800Y-87364800D02*
G75*
G03*
X173876800Y-87364800I-100000J0D01*
G01*
D14*
X171626800Y-88314800D02*
X155626800Y-88314800D01*
X171626800Y-72314800D02*
X155626800Y-72314800D01*
D12*
%TO.C,J7*%
X129594400Y-141567200D02*
X129314400Y-141567200D01*
X129314400Y-141567200D02*
X129314400Y-139967200D01*
X129314400Y-139967200D02*
X128394400Y-139967200D01*
X128394400Y-139967200D02*
X128394400Y-147787200D01*
X128394400Y-147787200D02*
X138514400Y-147787200D01*
X138514400Y-147787200D02*
X138514400Y-139967200D01*
X138514400Y-139967200D02*
X137594400Y-139967200D01*
X137594400Y-139967200D02*
X137594400Y-141567200D01*
X137594400Y-141567200D02*
X137314400Y-141567200D01*
X130954400Y-147787200D02*
X130954400Y-143427200D01*
X130954400Y-143427200D02*
X135954400Y-143427200D01*
X135954400Y-143427200D02*
X135954400Y-147787200D01*
X128394400Y-141567200D02*
X129314400Y-141567200D01*
X138514400Y-141567200D02*
X137594400Y-141567200D01*
X129154400Y-143927200D02*
X129154400Y-145527200D01*
X129154400Y-145527200D02*
X130154400Y-145527200D01*
X130154400Y-145527200D02*
X130154400Y-143927200D01*
X130154400Y-143927200D02*
X129154400Y-143927200D01*
X137754400Y-143927200D02*
X137754400Y-145527200D01*
X137754400Y-145527200D02*
X136754400Y-145527200D01*
X136754400Y-145527200D02*
X136754400Y-143927200D01*
X136754400Y-143927200D02*
X137754400Y-143927200D01*
X130154400Y-145527200D02*
X130154400Y-147787200D01*
X129654400Y-145527200D02*
X129654400Y-147787200D01*
X129594400Y-141567200D02*
X129594400Y-140352200D01*
%TO.C,J6*%
X123748800Y-79950000D02*
X123748800Y-82610000D01*
X123748800Y-79950000D02*
X116068800Y-79950000D01*
X116068800Y-79950000D02*
X116068800Y-82610000D01*
X123748800Y-82610000D02*
X116068800Y-82610000D01*
X126348800Y-82610000D02*
X125018800Y-82610000D01*
X126348800Y-81280000D02*
X126348800Y-82610000D01*
%TO.C,U1*%
X134489600Y-64088400D02*
X130889600Y-64088400D01*
X130851122Y-64099922D02*
G75*
G03*
X132689600Y-68538400I1838478J-1838478D01*
G01*
X134528078Y-64099922D02*
G75*
G02*
X132689600Y-68538400I-1838478J-1838478D01*
G01*
%TO.C,R1*%
X131504948Y-70613200D02*
X132027452Y-70613200D01*
X131504948Y-72033200D02*
X132027452Y-72033200D01*
%TO.C,C1*%
X131522948Y-73305600D02*
X132045452Y-73305600D01*
X131522948Y-74725600D02*
X132045452Y-74725600D01*
%TO.C,J4*%
X146659600Y-79950000D02*
X146659600Y-82610000D01*
X146659600Y-79950000D02*
X138979600Y-79950000D01*
X138979600Y-79950000D02*
X138979600Y-82610000D01*
X146659600Y-82610000D02*
X138979600Y-82610000D01*
X149259600Y-82610000D02*
X147929600Y-82610000D01*
X149259600Y-81280000D02*
X149259600Y-82610000D01*
%TO.C,J5*%
X117224600Y-141567200D02*
X116944600Y-141567200D01*
X116944600Y-141567200D02*
X116944600Y-139967200D01*
X116944600Y-139967200D02*
X116024600Y-139967200D01*
X116024600Y-139967200D02*
X116024600Y-147787200D01*
X116024600Y-147787200D02*
X126144600Y-147787200D01*
X126144600Y-147787200D02*
X126144600Y-139967200D01*
X126144600Y-139967200D02*
X125224600Y-139967200D01*
X125224600Y-139967200D02*
X125224600Y-141567200D01*
X125224600Y-141567200D02*
X124944600Y-141567200D01*
X118584600Y-147787200D02*
X118584600Y-143427200D01*
X118584600Y-143427200D02*
X123584600Y-143427200D01*
X123584600Y-143427200D02*
X123584600Y-147787200D01*
X116024600Y-141567200D02*
X116944600Y-141567200D01*
X126144600Y-141567200D02*
X125224600Y-141567200D01*
X116784600Y-143927200D02*
X116784600Y-145527200D01*
X116784600Y-145527200D02*
X117784600Y-145527200D01*
X117784600Y-145527200D02*
X117784600Y-143927200D01*
X117784600Y-143927200D02*
X116784600Y-143927200D01*
X125384600Y-143927200D02*
X125384600Y-145527200D01*
X125384600Y-145527200D02*
X124384600Y-145527200D01*
X124384600Y-145527200D02*
X124384600Y-143927200D01*
X124384600Y-143927200D02*
X125384600Y-143927200D01*
X117784600Y-145527200D02*
X117784600Y-147787200D01*
X117284600Y-145527200D02*
X117284600Y-147787200D01*
X117224600Y-141567200D02*
X117224600Y-140352200D01*
%TO.C,J3*%
X187417400Y-116538700D02*
X190017400Y-116538700D01*
X187417400Y-116538700D02*
X187417400Y-142058700D01*
X187417400Y-142058700D02*
X192617400Y-142058700D01*
X192617400Y-119138700D02*
X192617400Y-142058700D01*
X190017400Y-119138700D02*
X192617400Y-119138700D01*
X190017400Y-116538700D02*
X190017400Y-119138700D01*
X192617400Y-116538700D02*
X192617400Y-117868700D01*
X191287400Y-116538700D02*
X192617400Y-116538700D01*
%TO.C,J2*%
X162017400Y-116538700D02*
X164617400Y-116538700D01*
X162017400Y-116538700D02*
X162017400Y-142058700D01*
X162017400Y-142058700D02*
X167217400Y-142058700D01*
X167217400Y-119138700D02*
X167217400Y-142058700D01*
X164617400Y-119138700D02*
X167217400Y-119138700D01*
X164617400Y-116538700D02*
X164617400Y-119138700D01*
X167217400Y-116538700D02*
X167217400Y-117868700D01*
X165887400Y-116538700D02*
X167217400Y-116538700D01*
%TO.C,J1*%
X177190400Y-72545200D02*
X177190400Y-73180200D01*
X192430400Y-72545200D02*
X177190400Y-72545200D01*
X192430400Y-73180200D02*
X192430400Y-72545200D01*
D15*
G36*
X194970400Y-88420200D02*
G01*
X194970400Y-97818200D01*
X194462400Y-97818200D01*
X194462400Y-88420200D01*
X194970400Y-88420200D01*
G37*
X194970400Y-88420200D02*
X194970400Y-97818200D01*
X194462400Y-97818200D01*
X194462400Y-88420200D01*
X194970400Y-88420200D01*
D11*
X175190400Y-75650200D02*
X175190400Y-102200200D01*
X192430400Y-73175200D02*
X192430400Y-75650200D01*
X177190400Y-75720200D02*
X177190400Y-73180200D01*
X179730400Y-102200200D02*
X179730400Y-105100200D01*
X192430400Y-105100200D02*
X192430400Y-102200200D01*
X175190400Y-102200200D02*
X194940400Y-102200200D01*
X194940400Y-102200200D02*
X194940400Y-75650200D01*
X194940400Y-75650200D02*
X175190400Y-75650200D01*
X193541962Y-80775200D02*
G75*
G03*
X193541962Y-80775200I-3201562J0D01*
G01*
X192984745Y-80780856D02*
G75*
G03*
X192984745Y-80780856I-2594345J0D01*
G01*
G36*
X177190400Y-84610200D02*
G01*
X183540400Y-84610200D01*
X183540400Y-75720200D01*
X177190400Y-75720200D01*
X177190400Y-84610200D01*
G37*
X177190400Y-84610200D02*
X183540400Y-84610200D01*
X183540400Y-75720200D01*
X177190400Y-75720200D01*
X177190400Y-84610200D01*
D12*
X192430400Y-105100200D02*
X192430400Y-105565200D01*
X192430400Y-105565200D02*
X179730400Y-105565200D01*
X179730400Y-105565200D02*
X179730400Y-105100200D01*
%TO.C,U3*%
D16*
X169495685Y-89307440D02*
X169495685Y-90116964D01*
X169543304Y-90212202D01*
X169590923Y-90259821D01*
X169686161Y-90307440D01*
X169876637Y-90307440D01*
X169971875Y-90259821D01*
X170019494Y-90212202D01*
X170067113Y-90116964D01*
X170067113Y-89307440D01*
X170448066Y-89307440D02*
X171067113Y-89307440D01*
X170733780Y-89688393D01*
X170876637Y-89688393D01*
X170971875Y-89736012D01*
X171019494Y-89783631D01*
X171067113Y-89878869D01*
X171067113Y-90116964D01*
X171019494Y-90212202D01*
X170971875Y-90259821D01*
X170876637Y-90307440D01*
X170590923Y-90307440D01*
X170495685Y-90259821D01*
X170448066Y-90212202D01*
%TD*%
M02*
