M48
; DRILL file {KiCad (5.1.6-0-10_14)} date Tuesday, September 22, 2020 at 12:32:24 AM
; FORMAT={-:-/ absolute / inch / decimal}
; #@! TF.CreationDate,2020-09-22T00:32:24+02:00
; #@! TF.GenerationSoftware,Kicad,Pcbnew,(5.1.6-0-10_14)
; #@! TF.FileFunction,Plated,1,2,PTH
FMAT,2
INCH
T1C0.0157
T2C0.0236
T3C0.0295
T4C0.0300
T5C0.0394
%
G90
G05
T1
X5.247Y-4.7395
X5.2475Y-3.1715
X5.2923Y-4.8077
X5.3112Y-3.0662
X5.61Y-3.4775
X5.61Y-3.905
X5.7941Y-3.98
X6.1425Y-3.48
X6.93Y-4.2775
X7.04Y-4.17
X7.0925Y-4.1625
X7.2525Y-5.1025
T2
X4.2691Y-3.2453
X4.2691Y-3.291
X4.3191Y-3.2453
X4.3191Y-3.291
X4.3691Y-3.2453
X4.3691Y-3.291
X4.4191Y-3.2453
X4.4191Y-3.291
X4.4691Y-3.2453
X4.4691Y-3.291
T3
X3.9265Y-2.4535
X3.9765Y-2.4535
X4.0265Y-2.4535
X3.88Y-4.5975
X3.88Y-4.6475
X3.88Y-4.6975
X4.2865Y-5.0555
X4.3652Y-5.0555
X4.444Y-5.0555
X4.5227Y-5.0555
X4.7735Y-5.0555
X4.8522Y-5.0555
X4.931Y-5.0555
X5.0097Y-5.0555
T4
X6.2576Y-2.707
X6.2576Y-2.807
X6.2576Y-2.907
X6.2576Y-3.007
X6.2576Y-3.107
X7.4184Y-2.707
X7.4184Y-2.807
X7.4184Y-2.907
X7.4184Y-3.007
T5
X7.4475Y-4.5555
X7.4475Y-4.7555
X7.1985Y-4.0555
X7.1985Y-4.1555
X7.1985Y-4.2555
X7.1985Y-4.3555
X7.1985Y-4.4555
X7.1985Y-4.5555
X7.1985Y-4.6555
X7.1985Y-4.7555
X7.1985Y-4.8555
X7.1985Y-4.9555
X7.2985Y-4.0555
X7.2985Y-4.1555
X7.2985Y-4.2555
X7.2985Y-4.3555
X7.2985Y-4.4555
X7.2985Y-4.5555
X7.2985Y-4.6555
X7.2985Y-4.7555
X7.2985Y-4.8555
X7.2985Y-4.9555
X5.735Y-4.295
X7.4475Y-4.8555
X5.3815Y-2.5295
X5.4815Y-2.5295
X5.5815Y-2.5295
X5.6815Y-2.5295
X4.6465Y-2.672
X4.7465Y-2.672
X4.8465Y-2.672
X4.9465Y-2.672
X6.019Y-4.5555
X6.019Y-4.8555
X6.019Y-4.7555
X7.4475Y-4.6555
X7.4465Y-4.957
X6.019Y-4.3555
X6.019Y-4.4555
X6.019Y-4.9555
X6.1985Y-4.0555
X6.1985Y-4.1555
X6.1985Y-4.2555
X6.1985Y-4.3555
X6.1985Y-4.4555
X6.1985Y-4.5555
X6.1985Y-4.6555
X6.1985Y-4.7555
X6.1985Y-4.8555
X6.1985Y-4.9555
X6.2985Y-4.0555
X6.2985Y-4.1555
X6.2985Y-4.2555
X6.2985Y-4.3555
X6.2985Y-4.4555
X6.2985Y-4.5555
X6.2985Y-4.6555
X6.2985Y-4.7555
X6.2985Y-4.8555
X6.2985Y-4.9555
X6.019Y-4.6555
X5.3815Y-2.6745
X5.4815Y-2.6745
X5.5815Y-2.6745
X5.6815Y-2.6745
X7.4475Y-4.1555
X7.4465Y-5.0575
X4.6465Y-2.5295
X4.7465Y-2.5295
X4.8465Y-2.5295
X4.9465Y-2.5295
X7.4475Y-4.4555
T0
M30
