%TF.GenerationSoftware,KiCad,Pcbnew,(5.1.6-0-10_14)*%
%TF.CreationDate,2020-09-22T10:55:38+02:00*%
%TF.ProjectId,airquality,61697271-7561-46c6-9974-792e6b696361,rev?*%
%TF.SameCoordinates,Original*%
%TF.FileFunction,Profile,NP*%
%FSLAX46Y46*%
G04 Gerber Fmt 4.6, Leading zero omitted, Abs format (unit mm)*
G04 Created by KiCad (PCBNEW (5.1.6-0-10_14)) date 2020-09-22 10:55:38*
%MOMM*%
%LPD*%
G01*
G04 APERTURE LIST*
%TA.AperFunction,Profile*%
%ADD10C,0.100000*%
%TD*%
G04 APERTURE END LIST*
D10*
X190577230Y-140446577D02*
X190577230Y-140446577D01*
X100577225Y-140446577D02*
X100577225Y-140446577D01*
X190577230Y-50446564D02*
X190577230Y-50446564D01*
X100605166Y-47050731D02*
X100605166Y-47050731D01*
X95608271Y-141991748D02*
X95608271Y-52047626D01*
X97071828Y-48514288D02*
X97160650Y-48427641D01*
X97160650Y-48427641D02*
X97251378Y-48343422D01*
X97251378Y-48343422D02*
X97343960Y-48261651D01*
X97343960Y-48261651D02*
X97438344Y-48182350D01*
X97438344Y-48182350D02*
X97534480Y-48105540D01*
X97534480Y-48105540D02*
X97632317Y-48031242D01*
X97632317Y-48031242D02*
X97731802Y-47959478D01*
X97731802Y-47959478D02*
X97832886Y-47890268D01*
X97832886Y-47890268D02*
X97935516Y-47823633D01*
X97935516Y-47823633D02*
X98039642Y-47759596D01*
X98039642Y-47759596D02*
X98145212Y-47698177D01*
X98145212Y-47698177D02*
X98252175Y-47639397D01*
X98252175Y-47639397D02*
X98360481Y-47583278D01*
X98360481Y-47583278D02*
X98470077Y-47529841D01*
X98470077Y-47529841D02*
X98580912Y-47479107D01*
X98580912Y-47479107D02*
X98692937Y-47431097D01*
X98692937Y-47431097D02*
X98806098Y-47385832D01*
X98806098Y-47385832D02*
X98920345Y-47343334D01*
X98920345Y-47343334D02*
X99035627Y-47303623D01*
X99035627Y-47303623D02*
X99151893Y-47266722D01*
X99151893Y-47266722D02*
X99269091Y-47232651D01*
X99269091Y-47232651D02*
X99387170Y-47201432D01*
X99387170Y-47201432D02*
X99506079Y-47173085D01*
X99506079Y-47173085D02*
X99625767Y-47147632D01*
X99625767Y-47147632D02*
X99746183Y-47125094D01*
X99746183Y-47125094D02*
X99867275Y-47105492D01*
X99867275Y-47105492D02*
X99988992Y-47088848D01*
X99988992Y-47088848D02*
X100111284Y-47075182D01*
X100111284Y-47075182D02*
X100234098Y-47064516D01*
X100234098Y-47064516D02*
X100357384Y-47056872D01*
X100357384Y-47056872D02*
X100481090Y-47052269D01*
X100481090Y-47052269D02*
X100605166Y-47050731D01*
X95608271Y-52047626D02*
X95609809Y-51923550D01*
X95609809Y-51923550D02*
X95614412Y-51799844D01*
X95614412Y-51799844D02*
X95622056Y-51676558D01*
X95622056Y-51676558D02*
X95632722Y-51553744D01*
X95632722Y-51553744D02*
X95646388Y-51431452D01*
X95646388Y-51431452D02*
X95663032Y-51309735D01*
X95663032Y-51309735D02*
X95682634Y-51188643D01*
X95682634Y-51188643D02*
X95705172Y-51068227D01*
X95705172Y-51068227D02*
X95730625Y-50948539D01*
X95730625Y-50948539D02*
X95758972Y-50829630D01*
X95758972Y-50829630D02*
X95790191Y-50711551D01*
X95790191Y-50711551D02*
X95824262Y-50594353D01*
X95824262Y-50594353D02*
X95861163Y-50478087D01*
X95861163Y-50478087D02*
X95900874Y-50362805D01*
X95900874Y-50362805D02*
X95943372Y-50248558D01*
X95943372Y-50248558D02*
X95988637Y-50135397D01*
X95988637Y-50135397D02*
X96036647Y-50023372D01*
X96036647Y-50023372D02*
X96087381Y-49912537D01*
X96087381Y-49912537D02*
X96140818Y-49802941D01*
X96140818Y-49802941D02*
X96196937Y-49694635D01*
X96196937Y-49694635D02*
X96255717Y-49587672D01*
X96255717Y-49587672D02*
X96317136Y-49482102D01*
X96317136Y-49482102D02*
X96381173Y-49377976D01*
X96381173Y-49377976D02*
X96447808Y-49275346D01*
X96447808Y-49275346D02*
X96517018Y-49174262D01*
X96517018Y-49174262D02*
X96588782Y-49074777D01*
X96588782Y-49074777D02*
X96663080Y-48976940D01*
X96663080Y-48976940D02*
X96739890Y-48880804D01*
X96739890Y-48880804D02*
X96819191Y-48786420D01*
X96819191Y-48786420D02*
X96900962Y-48693838D01*
X96900962Y-48693838D02*
X96985181Y-48603110D01*
X96985181Y-48603110D02*
X97071828Y-48514288D01*
X190549288Y-146988643D02*
X100605166Y-146988643D01*
X97071828Y-145525086D02*
X96985181Y-145436263D01*
X96985181Y-145436263D02*
X96900962Y-145345535D01*
X96900962Y-145345535D02*
X96819191Y-145252953D01*
X96819191Y-145252953D02*
X96739890Y-145158569D01*
X96739890Y-145158569D02*
X96663080Y-145062433D01*
X96663080Y-145062433D02*
X96588782Y-144964596D01*
X96588782Y-144964596D02*
X96517018Y-144865111D01*
X96517018Y-144865111D02*
X96447808Y-144764027D01*
X96447808Y-144764027D02*
X96381173Y-144661397D01*
X96381173Y-144661397D02*
X96317136Y-144557271D01*
X96317136Y-144557271D02*
X96255717Y-144451701D01*
X96255717Y-144451701D02*
X96196937Y-144344738D01*
X96196937Y-144344738D02*
X96140818Y-144236432D01*
X96140818Y-144236432D02*
X96087381Y-144126836D01*
X96087381Y-144126836D02*
X96036647Y-144016001D01*
X96036647Y-144016001D02*
X95988637Y-143903977D01*
X95988637Y-143903977D02*
X95943372Y-143790815D01*
X95943372Y-143790815D02*
X95900874Y-143676568D01*
X95900874Y-143676568D02*
X95861163Y-143561286D01*
X95861163Y-143561286D02*
X95824262Y-143445020D01*
X95824262Y-143445020D02*
X95790191Y-143327822D01*
X95790191Y-143327822D02*
X95758972Y-143209743D01*
X95758972Y-143209743D02*
X95730625Y-143090834D01*
X95730625Y-143090834D02*
X95705172Y-142971146D01*
X95705172Y-142971146D02*
X95682634Y-142850730D01*
X95682634Y-142850730D02*
X95663032Y-142729638D01*
X95663032Y-142729638D02*
X95646388Y-142607921D01*
X95646388Y-142607921D02*
X95632722Y-142485629D01*
X95632722Y-142485629D02*
X95622056Y-142362815D01*
X95622056Y-142362815D02*
X95614412Y-142239529D01*
X95614412Y-142239529D02*
X95609809Y-142115823D01*
X95609809Y-142115823D02*
X95608271Y-141991748D01*
X100605166Y-146988643D02*
X100481090Y-146987104D01*
X100481090Y-146987104D02*
X100357384Y-146982501D01*
X100357384Y-146982501D02*
X100234098Y-146974857D01*
X100234098Y-146974857D02*
X100111284Y-146964191D01*
X100111284Y-146964191D02*
X99988992Y-146950525D01*
X99988992Y-146950525D02*
X99867275Y-146933881D01*
X99867275Y-146933881D02*
X99746183Y-146914279D01*
X99746183Y-146914279D02*
X99625767Y-146891741D01*
X99625767Y-146891741D02*
X99506079Y-146866288D01*
X99506079Y-146866288D02*
X99387170Y-146837941D01*
X99387170Y-146837941D02*
X99269091Y-146806722D01*
X99269091Y-146806722D02*
X99151893Y-146772651D01*
X99151893Y-146772651D02*
X99035627Y-146735750D01*
X99035627Y-146735750D02*
X98920345Y-146696039D01*
X98920345Y-146696039D02*
X98806098Y-146653541D01*
X98806098Y-146653541D02*
X98692937Y-146608277D01*
X98692937Y-146608277D02*
X98580912Y-146560266D01*
X98580912Y-146560266D02*
X98470077Y-146509532D01*
X98470077Y-146509532D02*
X98360481Y-146456095D01*
X98360481Y-146456095D02*
X98252175Y-146399976D01*
X98252175Y-146399976D02*
X98145212Y-146341196D01*
X98145212Y-146341196D02*
X98039642Y-146279777D01*
X98039642Y-146279777D02*
X97935516Y-146215740D01*
X97935516Y-146215740D02*
X97832886Y-146149105D01*
X97832886Y-146149105D02*
X97731802Y-146079895D01*
X97731802Y-146079895D02*
X97632317Y-146008131D01*
X97632317Y-146008131D02*
X97534480Y-145933833D01*
X97534480Y-145933833D02*
X97438344Y-145857023D01*
X97438344Y-145857023D02*
X97343960Y-145777722D01*
X97343960Y-145777722D02*
X97251378Y-145695951D01*
X97251378Y-145695951D02*
X97160650Y-145611732D01*
X97160650Y-145611732D02*
X97071828Y-145525086D01*
X195546183Y-52047626D02*
X195546183Y-141991748D01*
X194082626Y-145525086D02*
X193993803Y-145611732D01*
X193993803Y-145611732D02*
X193903075Y-145695951D01*
X193903075Y-145695951D02*
X193810493Y-145777722D01*
X193810493Y-145777722D02*
X193716109Y-145857023D01*
X193716109Y-145857023D02*
X193619973Y-145933833D01*
X193619973Y-145933833D02*
X193522136Y-146008131D01*
X193522136Y-146008131D02*
X193422651Y-146079895D01*
X193422651Y-146079895D02*
X193321567Y-146149105D01*
X193321567Y-146149105D02*
X193218937Y-146215740D01*
X193218937Y-146215740D02*
X193114811Y-146279777D01*
X193114811Y-146279777D02*
X193009241Y-146341196D01*
X193009241Y-146341196D02*
X192902278Y-146399976D01*
X192902278Y-146399976D02*
X192793972Y-146456095D01*
X192793972Y-146456095D02*
X192684376Y-146509532D01*
X192684376Y-146509532D02*
X192573541Y-146560266D01*
X192573541Y-146560266D02*
X192461517Y-146608277D01*
X192461517Y-146608277D02*
X192348355Y-146653541D01*
X192348355Y-146653541D02*
X192234108Y-146696039D01*
X192234108Y-146696039D02*
X192118826Y-146735750D01*
X192118826Y-146735750D02*
X192002560Y-146772651D01*
X192002560Y-146772651D02*
X191885362Y-146806722D01*
X191885362Y-146806722D02*
X191767283Y-146837941D01*
X191767283Y-146837941D02*
X191648374Y-146866288D01*
X191648374Y-146866288D02*
X191528686Y-146891741D01*
X191528686Y-146891741D02*
X191408270Y-146914279D01*
X191408270Y-146914279D02*
X191287178Y-146933881D01*
X191287178Y-146933881D02*
X191165461Y-146950525D01*
X191165461Y-146950525D02*
X191043169Y-146964191D01*
X191043169Y-146964191D02*
X190920355Y-146974857D01*
X190920355Y-146974857D02*
X190797069Y-146982501D01*
X190797069Y-146982501D02*
X190673363Y-146987104D01*
X190673363Y-146987104D02*
X190549288Y-146988643D01*
X195546183Y-141991748D02*
X195544644Y-142115823D01*
X195544644Y-142115823D02*
X195540041Y-142239529D01*
X195540041Y-142239529D02*
X195532397Y-142362815D01*
X195532397Y-142362815D02*
X195521731Y-142485629D01*
X195521731Y-142485629D02*
X195508065Y-142607921D01*
X195508065Y-142607921D02*
X195491421Y-142729638D01*
X195491421Y-142729638D02*
X195471819Y-142850730D01*
X195471819Y-142850730D02*
X195449281Y-142971146D01*
X195449281Y-142971146D02*
X195423828Y-143090834D01*
X195423828Y-143090834D02*
X195395481Y-143209743D01*
X195395481Y-143209743D02*
X195364262Y-143327822D01*
X195364262Y-143327822D02*
X195330191Y-143445020D01*
X195330191Y-143445020D02*
X195293290Y-143561286D01*
X195293290Y-143561286D02*
X195253579Y-143676568D01*
X195253579Y-143676568D02*
X195211081Y-143790815D01*
X195211081Y-143790815D02*
X195165817Y-143903977D01*
X195165817Y-143903977D02*
X195117806Y-144016001D01*
X195117806Y-144016001D02*
X195067072Y-144126836D01*
X195067072Y-144126836D02*
X195013635Y-144236432D01*
X195013635Y-144236432D02*
X194957516Y-144344738D01*
X194957516Y-144344738D02*
X194898736Y-144451701D01*
X194898736Y-144451701D02*
X194837317Y-144557271D01*
X194837317Y-144557271D02*
X194773280Y-144661397D01*
X194773280Y-144661397D02*
X194706645Y-144764027D01*
X194706645Y-144764027D02*
X194637435Y-144865111D01*
X194637435Y-144865111D02*
X194565671Y-144964596D01*
X194565671Y-144964596D02*
X194491373Y-145062433D01*
X194491373Y-145062433D02*
X194414563Y-145158569D01*
X194414563Y-145158569D02*
X194335262Y-145252953D01*
X194335262Y-145252953D02*
X194253491Y-145345535D01*
X194253491Y-145345535D02*
X194169272Y-145436263D01*
X194169272Y-145436263D02*
X194082626Y-145525086D01*
X100605166Y-47050731D02*
X190549288Y-47050731D01*
X194082626Y-48514288D02*
X194169272Y-48603110D01*
X194169272Y-48603110D02*
X194253491Y-48693838D01*
X194253491Y-48693838D02*
X194335262Y-48786420D01*
X194335262Y-48786420D02*
X194414563Y-48880804D01*
X194414563Y-48880804D02*
X194491373Y-48976940D01*
X194491373Y-48976940D02*
X194565671Y-49074777D01*
X194565671Y-49074777D02*
X194637435Y-49174262D01*
X194637435Y-49174262D02*
X194706645Y-49275346D01*
X194706645Y-49275346D02*
X194773280Y-49377976D01*
X194773280Y-49377976D02*
X194837317Y-49482102D01*
X194837317Y-49482102D02*
X194898736Y-49587672D01*
X194898736Y-49587672D02*
X194957516Y-49694635D01*
X194957516Y-49694635D02*
X195013635Y-49802941D01*
X195013635Y-49802941D02*
X195067072Y-49912537D01*
X195067072Y-49912537D02*
X195117806Y-50023372D01*
X195117806Y-50023372D02*
X195165817Y-50135397D01*
X195165817Y-50135397D02*
X195211081Y-50248558D01*
X195211081Y-50248558D02*
X195253579Y-50362805D01*
X195253579Y-50362805D02*
X195293290Y-50478087D01*
X195293290Y-50478087D02*
X195330191Y-50594353D01*
X195330191Y-50594353D02*
X195364262Y-50711551D01*
X195364262Y-50711551D02*
X195395481Y-50829630D01*
X195395481Y-50829630D02*
X195423828Y-50948539D01*
X195423828Y-50948539D02*
X195449281Y-51068227D01*
X195449281Y-51068227D02*
X195471819Y-51188643D01*
X195471819Y-51188643D02*
X195491421Y-51309735D01*
X195491421Y-51309735D02*
X195508065Y-51431452D01*
X195508065Y-51431452D02*
X195521731Y-51553744D01*
X195521731Y-51553744D02*
X195532397Y-51676558D01*
X195532397Y-51676558D02*
X195540041Y-51799844D01*
X195540041Y-51799844D02*
X195544644Y-51923550D01*
X195544644Y-51923550D02*
X195546183Y-52047626D01*
X190549288Y-47050731D02*
X190673363Y-47052269D01*
X190673363Y-47052269D02*
X190797069Y-47056872D01*
X190797069Y-47056872D02*
X190920355Y-47064516D01*
X190920355Y-47064516D02*
X191043169Y-47075182D01*
X191043169Y-47075182D02*
X191165461Y-47088848D01*
X191165461Y-47088848D02*
X191287178Y-47105492D01*
X191287178Y-47105492D02*
X191408270Y-47125094D01*
X191408270Y-47125094D02*
X191528686Y-47147632D01*
X191528686Y-47147632D02*
X191648374Y-47173085D01*
X191648374Y-47173085D02*
X191767283Y-47201432D01*
X191767283Y-47201432D02*
X191885362Y-47232651D01*
X191885362Y-47232651D02*
X192002560Y-47266722D01*
X192002560Y-47266722D02*
X192118826Y-47303623D01*
X192118826Y-47303623D02*
X192234108Y-47343334D01*
X192234108Y-47343334D02*
X192348355Y-47385832D01*
X192348355Y-47385832D02*
X192461517Y-47431097D01*
X192461517Y-47431097D02*
X192573541Y-47479107D01*
X192573541Y-47479107D02*
X192684376Y-47529841D01*
X192684376Y-47529841D02*
X192793972Y-47583278D01*
X192793972Y-47583278D02*
X192902278Y-47639397D01*
X192902278Y-47639397D02*
X193009241Y-47698177D01*
X193009241Y-47698177D02*
X193114811Y-47759596D01*
X193114811Y-47759596D02*
X193218937Y-47823633D01*
X193218937Y-47823633D02*
X193321567Y-47890268D01*
X193321567Y-47890268D02*
X193422651Y-47959478D01*
X193422651Y-47959478D02*
X193522136Y-48031242D01*
X193522136Y-48031242D02*
X193619973Y-48105540D01*
X193619973Y-48105540D02*
X193716109Y-48182350D01*
X193716109Y-48182350D02*
X193810493Y-48261651D01*
X193810493Y-48261651D02*
X193903075Y-48343422D01*
X193903075Y-48343422D02*
X193993803Y-48427641D01*
X193993803Y-48427641D02*
X194082626Y-48514288D01*
M02*
