%TF.GenerationSoftware,KiCad,Pcbnew,(5.1.6-0-10_14)*%
%TF.CreationDate,2020-09-22T10:55:38+02:00*%
%TF.ProjectId,airquality,61697271-7561-46c6-9974-792e6b696361,rev?*%
%TF.SameCoordinates,Original*%
%TF.FileFunction,Legend,Top*%
%TF.FilePolarity,Positive*%
%FSLAX46Y46*%
G04 Gerber Fmt 4.6, Leading zero omitted, Abs format (unit mm)*
G04 Created by KiCad (PCBNEW (5.1.6-0-10_14)) date 2020-09-22 10:55:38*
%MOMM*%
%LPD*%
G01*
G04 APERTURE LIST*
%ADD10C,0.300000*%
%ADD11C,0.150000*%
%ADD12C,0.200000*%
%ADD13C,0.100000*%
%ADD14C,0.120000*%
G04 APERTURE END LIST*
D10*
X150534928Y-61638571D02*
X150722428Y-60138571D01*
X151079571Y-60138571D01*
X151284928Y-60210000D01*
X151409928Y-60352857D01*
X151463500Y-60495714D01*
X151499214Y-60781428D01*
X151472428Y-60995714D01*
X151365285Y-61281428D01*
X151276000Y-61424285D01*
X151115285Y-61567142D01*
X150892071Y-61638571D01*
X150534928Y-61638571D01*
X152615285Y-61567142D02*
X152463500Y-61638571D01*
X152177785Y-61638571D01*
X152043857Y-61567142D01*
X151990285Y-61424285D01*
X152061714Y-60852857D01*
X152151000Y-60710000D01*
X152302785Y-60638571D01*
X152588500Y-60638571D01*
X152722428Y-60710000D01*
X152776000Y-60852857D01*
X152758142Y-60995714D01*
X152026000Y-61138571D01*
X153258142Y-61567142D02*
X153392071Y-61638571D01*
X153677785Y-61638571D01*
X153829571Y-61567142D01*
X153918857Y-61424285D01*
X153927785Y-61352857D01*
X153874214Y-61210000D01*
X153740285Y-61138571D01*
X153526000Y-61138571D01*
X153392071Y-61067142D01*
X153338500Y-60924285D01*
X153347428Y-60852857D01*
X153436714Y-60710000D01*
X153588500Y-60638571D01*
X153802785Y-60638571D01*
X153936714Y-60710000D01*
X154534928Y-61638571D02*
X154659928Y-60638571D01*
X154722428Y-60138571D02*
X154642071Y-60210000D01*
X154704571Y-60281428D01*
X154784928Y-60210000D01*
X154722428Y-60138571D01*
X154704571Y-60281428D01*
X156017071Y-60638571D02*
X155865285Y-61852857D01*
X155776000Y-61995714D01*
X155695642Y-62067142D01*
X155543857Y-62138571D01*
X155329571Y-62138571D01*
X155195642Y-62067142D01*
X155901000Y-61567142D02*
X155749214Y-61638571D01*
X155463500Y-61638571D01*
X155329571Y-61567142D01*
X155267071Y-61495714D01*
X155213500Y-61352857D01*
X155267071Y-60924285D01*
X155356357Y-60781428D01*
X155436714Y-60710000D01*
X155588500Y-60638571D01*
X155874214Y-60638571D01*
X156008142Y-60710000D01*
X156731357Y-60638571D02*
X156606357Y-61638571D01*
X156713500Y-60781428D02*
X156793857Y-60710000D01*
X156945642Y-60638571D01*
X157159928Y-60638571D01*
X157293857Y-60710000D01*
X157347428Y-60852857D01*
X157249214Y-61638571D01*
X158543857Y-61567142D02*
X158392071Y-61638571D01*
X158106357Y-61638571D01*
X157972428Y-61567142D01*
X157918857Y-61424285D01*
X157990285Y-60852857D01*
X158079571Y-60710000D01*
X158231357Y-60638571D01*
X158517071Y-60638571D01*
X158651000Y-60710000D01*
X158704571Y-60852857D01*
X158686714Y-60995714D01*
X157954571Y-61138571D01*
X159892071Y-61638571D02*
X160079571Y-60138571D01*
X159901000Y-61567142D02*
X159749214Y-61638571D01*
X159463500Y-61638571D01*
X159329571Y-61567142D01*
X159267071Y-61495714D01*
X159213500Y-61352857D01*
X159267071Y-60924285D01*
X159356357Y-60781428D01*
X159436714Y-60710000D01*
X159588500Y-60638571D01*
X159874214Y-60638571D01*
X160008142Y-60710000D01*
X161749214Y-61638571D02*
X161936714Y-60138571D01*
X161865285Y-60710000D02*
X162017071Y-60638571D01*
X162302785Y-60638571D01*
X162436714Y-60710000D01*
X162499214Y-60781428D01*
X162552785Y-60924285D01*
X162499214Y-61352857D01*
X162409928Y-61495714D01*
X162329571Y-61567142D01*
X162177785Y-61638571D01*
X161892071Y-61638571D01*
X161758142Y-61567142D01*
X163088500Y-60638571D02*
X163320642Y-61638571D01*
X163802785Y-60638571D02*
X163320642Y-61638571D01*
X163133142Y-61995714D01*
X163052785Y-62067142D01*
X162901000Y-62138571D01*
X166409928Y-60924285D02*
X166347428Y-60852857D01*
X166213500Y-60781428D01*
X166070642Y-60781428D01*
X165918857Y-60852857D01*
X165838500Y-60924285D01*
X165749214Y-61067142D01*
X165731357Y-61210000D01*
X165784928Y-61352857D01*
X165847428Y-61424285D01*
X165981357Y-61495714D01*
X166124214Y-61495714D01*
X166276000Y-61424285D01*
X166356357Y-61352857D01*
X166427785Y-60781428D02*
X166356357Y-61352857D01*
X166418857Y-61424285D01*
X166490285Y-61424285D01*
X166642071Y-61352857D01*
X166731357Y-61210000D01*
X166776000Y-60852857D01*
X166659928Y-60638571D01*
X166463500Y-60495714D01*
X166186714Y-60424285D01*
X165892071Y-60495714D01*
X165659928Y-60638571D01*
X165490285Y-60852857D01*
X165383142Y-61138571D01*
X165418857Y-61424285D01*
X165534928Y-61638571D01*
X165731357Y-61781428D01*
X166008142Y-61852857D01*
X166302785Y-61781428D01*
X166534928Y-61638571D01*
X167320642Y-61638571D02*
X167508142Y-60138571D01*
X167436714Y-60710000D02*
X167588500Y-60638571D01*
X167874214Y-60638571D01*
X168008142Y-60710000D01*
X168070642Y-60781428D01*
X168124214Y-60924285D01*
X168070642Y-61352857D01*
X167981357Y-61495714D01*
X167901000Y-61567142D01*
X167749214Y-61638571D01*
X167463500Y-61638571D01*
X167329571Y-61567142D01*
X169320642Y-61638571D02*
X169418857Y-60852857D01*
X169365285Y-60710000D01*
X169231357Y-60638571D01*
X168945642Y-60638571D01*
X168793857Y-60710000D01*
X169329571Y-61567142D02*
X169177785Y-61638571D01*
X168820642Y-61638571D01*
X168686714Y-61567142D01*
X168633142Y-61424285D01*
X168651000Y-61281428D01*
X168740285Y-61138571D01*
X168892071Y-61067142D01*
X169249214Y-61067142D01*
X169401000Y-60995714D01*
X169972428Y-61567142D02*
X170106357Y-61638571D01*
X170392071Y-61638571D01*
X170543857Y-61567142D01*
X170633142Y-61424285D01*
X170642071Y-61352857D01*
X170588500Y-61210000D01*
X170454571Y-61138571D01*
X170240285Y-61138571D01*
X170106357Y-61067142D01*
X170052785Y-60924285D01*
X170061714Y-60852857D01*
X170151000Y-60710000D01*
X170302785Y-60638571D01*
X170517071Y-60638571D01*
X170651000Y-60710000D01*
X171463500Y-61638571D02*
X171329571Y-61567142D01*
X171267071Y-61495714D01*
X171213500Y-61352857D01*
X171267071Y-60924285D01*
X171356357Y-60781428D01*
X171436714Y-60710000D01*
X171588500Y-60638571D01*
X171802785Y-60638571D01*
X171936714Y-60710000D01*
X171999214Y-60781428D01*
X172052785Y-60924285D01*
X171999214Y-61352857D01*
X171909928Y-61495714D01*
X171829571Y-61567142D01*
X171677785Y-61638571D01*
X171463500Y-61638571D01*
X172820642Y-61638571D02*
X172686714Y-61567142D01*
X172624214Y-61495714D01*
X172570642Y-61352857D01*
X172624214Y-60924285D01*
X172713500Y-60781428D01*
X172793857Y-60710000D01*
X172945642Y-60638571D01*
X173159928Y-60638571D01*
X173293857Y-60710000D01*
X173356357Y-60781428D01*
X173409928Y-60924285D01*
X173356357Y-61352857D01*
X173267071Y-61495714D01*
X173186714Y-61567142D01*
X173034928Y-61638571D01*
X172820642Y-61638571D01*
X173963500Y-61638571D02*
X174088500Y-60638571D01*
X174052785Y-60924285D02*
X174142071Y-60781428D01*
X174222428Y-60710000D01*
X174374214Y-60638571D01*
X174517071Y-60638571D01*
X174802785Y-60638571D02*
X175374214Y-60638571D01*
X175079571Y-60138571D02*
X174918857Y-61424285D01*
X174972428Y-61567142D01*
X175106357Y-61638571D01*
X175249214Y-61638571D01*
D11*
X140378785Y-128710571D02*
X140378785Y-129710571D01*
X140021642Y-128139142D02*
X139664500Y-129210571D01*
X140593071Y-129210571D01*
X141164500Y-129710571D02*
X141164500Y-128210571D01*
X141307357Y-129139142D02*
X141735928Y-129710571D01*
X141735928Y-128710571D02*
X141164500Y-129282000D01*
X142235928Y-128210571D02*
X143235928Y-128210571D01*
X142593071Y-129710571D01*
X150721142Y-100873214D02*
X150792571Y-100658928D01*
X150792571Y-100301785D01*
X150721142Y-100158928D01*
X150649714Y-100087500D01*
X150506857Y-100016071D01*
X150364000Y-100016071D01*
X150221142Y-100087500D01*
X150149714Y-100158928D01*
X150078285Y-100301785D01*
X150006857Y-100587500D01*
X149935428Y-100730357D01*
X149864000Y-100801785D01*
X149721142Y-100873214D01*
X149578285Y-100873214D01*
X149435428Y-100801785D01*
X149364000Y-100730357D01*
X149292571Y-100587500D01*
X149292571Y-100230357D01*
X149364000Y-100016071D01*
X150792571Y-99373214D02*
X149292571Y-99373214D01*
X150792571Y-98516071D02*
X149935428Y-99158928D01*
X149292571Y-98516071D02*
X150149714Y-99373214D01*
X149292571Y-97230357D02*
X149292571Y-97516071D01*
X149364000Y-97658928D01*
X149435428Y-97730357D01*
X149649714Y-97873214D01*
X149935428Y-97944642D01*
X150506857Y-97944642D01*
X150649714Y-97873214D01*
X150721142Y-97801785D01*
X150792571Y-97658928D01*
X150792571Y-97373214D01*
X150721142Y-97230357D01*
X150649714Y-97158928D01*
X150506857Y-97087500D01*
X150149714Y-97087500D01*
X150006857Y-97158928D01*
X149935428Y-97230357D01*
X149864000Y-97373214D01*
X149864000Y-97658928D01*
X149935428Y-97801785D01*
X150006857Y-97873214D01*
X150149714Y-97944642D01*
X149935428Y-96230357D02*
X149864000Y-96373214D01*
X149792571Y-96444642D01*
X149649714Y-96516071D01*
X149578285Y-96516071D01*
X149435428Y-96444642D01*
X149364000Y-96373214D01*
X149292571Y-96230357D01*
X149292571Y-95944642D01*
X149364000Y-95801785D01*
X149435428Y-95730357D01*
X149578285Y-95658928D01*
X149649714Y-95658928D01*
X149792571Y-95730357D01*
X149864000Y-95801785D01*
X149935428Y-95944642D01*
X149935428Y-96230357D01*
X150006857Y-96373214D01*
X150078285Y-96444642D01*
X150221142Y-96516071D01*
X150506857Y-96516071D01*
X150649714Y-96444642D01*
X150721142Y-96373214D01*
X150792571Y-96230357D01*
X150792571Y-95944642D01*
X150721142Y-95801785D01*
X150649714Y-95730357D01*
X150506857Y-95658928D01*
X150221142Y-95658928D01*
X150078285Y-95730357D01*
X150006857Y-95801785D01*
X149935428Y-95944642D01*
X150792571Y-94230357D02*
X150792571Y-95087500D01*
X150792571Y-94658928D02*
X149292571Y-94658928D01*
X149506857Y-94801785D01*
X149649714Y-94944642D01*
X149721142Y-95087500D01*
X149435428Y-93658928D02*
X149364000Y-93587500D01*
X149292571Y-93444642D01*
X149292571Y-93087500D01*
X149364000Y-92944642D01*
X149435428Y-92873214D01*
X149578285Y-92801785D01*
X149721142Y-92801785D01*
X149935428Y-92873214D01*
X150792571Y-93730357D01*
X150792571Y-92801785D01*
X148999071Y-103866071D02*
X148141928Y-103866071D01*
X148570500Y-103866071D02*
X148570500Y-102366071D01*
X148427642Y-102580357D01*
X148284785Y-102723214D01*
X148141928Y-102794642D01*
X149927642Y-102366071D02*
X150070500Y-102366071D01*
X150213357Y-102437500D01*
X150284785Y-102508928D01*
X150356214Y-102651785D01*
X150427642Y-102937500D01*
X150427642Y-103294642D01*
X150356214Y-103580357D01*
X150284785Y-103723214D01*
X150213357Y-103794642D01*
X150070500Y-103866071D01*
X149927642Y-103866071D01*
X149784785Y-103794642D01*
X149713357Y-103723214D01*
X149641928Y-103580357D01*
X149570500Y-103294642D01*
X149570500Y-102937500D01*
X149641928Y-102651785D01*
X149713357Y-102508928D01*
X149784785Y-102437500D01*
X149927642Y-102366071D01*
X151356214Y-102366071D02*
X151499071Y-102366071D01*
X151641928Y-102437500D01*
X151713357Y-102508928D01*
X151784785Y-102651785D01*
X151856214Y-102937500D01*
X151856214Y-103294642D01*
X151784785Y-103580357D01*
X151713357Y-103723214D01*
X151641928Y-103794642D01*
X151499071Y-103866071D01*
X151356214Y-103866071D01*
X151213357Y-103794642D01*
X151141928Y-103723214D01*
X151070500Y-103580357D01*
X150999071Y-103294642D01*
X150999071Y-102937500D01*
X151070500Y-102651785D01*
X151141928Y-102508928D01*
X151213357Y-102437500D01*
X151356214Y-102366071D01*
X152499071Y-102866071D02*
X152499071Y-103866071D01*
X152499071Y-103008928D02*
X152570500Y-102937500D01*
X152713357Y-102866071D01*
X152927642Y-102866071D01*
X153070500Y-102937500D01*
X153141928Y-103080357D01*
X153141928Y-103866071D01*
X154356214Y-103080357D02*
X153856214Y-103080357D01*
X153856214Y-103866071D02*
X153856214Y-102366071D01*
X154570500Y-102366071D01*
X148824285Y-88134071D02*
X148824285Y-89134071D01*
X148467142Y-87562642D02*
X148110000Y-88634071D01*
X149038571Y-88634071D01*
X149610000Y-89134071D02*
X149610000Y-87634071D01*
X149752857Y-88562642D02*
X150181428Y-89134071D01*
X150181428Y-88134071D02*
X149610000Y-88705500D01*
X150681428Y-87634071D02*
X151681428Y-87634071D01*
X151038571Y-89134071D01*
X148491214Y-83141357D02*
X148705500Y-83212785D01*
X148776928Y-83284214D01*
X148848357Y-83427071D01*
X148848357Y-83641357D01*
X148776928Y-83784214D01*
X148705500Y-83855642D01*
X148562642Y-83927071D01*
X147991214Y-83927071D01*
X147991214Y-82427071D01*
X148491214Y-82427071D01*
X148634071Y-82498500D01*
X148705500Y-82569928D01*
X148776928Y-82712785D01*
X148776928Y-82855642D01*
X148705500Y-82998500D01*
X148634071Y-83069928D01*
X148491214Y-83141357D01*
X147991214Y-83141357D01*
X149419785Y-83855642D02*
X149634071Y-83927071D01*
X149991214Y-83927071D01*
X150134071Y-83855642D01*
X150205500Y-83784214D01*
X150276928Y-83641357D01*
X150276928Y-83498500D01*
X150205500Y-83355642D01*
X150134071Y-83284214D01*
X149991214Y-83212785D01*
X149705500Y-83141357D01*
X149562642Y-83069928D01*
X149491214Y-82998500D01*
X149419785Y-82855642D01*
X149419785Y-82712785D01*
X149491214Y-82569928D01*
X149562642Y-82498500D01*
X149705500Y-82427071D01*
X150062642Y-82427071D01*
X150276928Y-82498500D01*
X150848357Y-83855642D02*
X151062642Y-83927071D01*
X151419785Y-83927071D01*
X151562642Y-83855642D01*
X151634071Y-83784214D01*
X151705500Y-83641357D01*
X151705500Y-83498500D01*
X151634071Y-83355642D01*
X151562642Y-83284214D01*
X151419785Y-83212785D01*
X151134071Y-83141357D01*
X150991214Y-83069928D01*
X150919785Y-82998500D01*
X150848357Y-82855642D01*
X150848357Y-82712785D01*
X150919785Y-82569928D01*
X150991214Y-82498500D01*
X151134071Y-82427071D01*
X151491214Y-82427071D01*
X151705500Y-82498500D01*
X153134071Y-83927071D02*
X152276928Y-83927071D01*
X152705500Y-83927071D02*
X152705500Y-82427071D01*
X152562642Y-82641357D01*
X152419785Y-82784214D01*
X152276928Y-82855642D01*
X153634071Y-82427071D02*
X154562642Y-82427071D01*
X154062642Y-82998500D01*
X154276928Y-82998500D01*
X154419785Y-83069928D01*
X154491214Y-83141357D01*
X154562642Y-83284214D01*
X154562642Y-83641357D01*
X154491214Y-83784214D01*
X154419785Y-83855642D01*
X154276928Y-83927071D01*
X153848357Y-83927071D01*
X153705500Y-83855642D01*
X153634071Y-83784214D01*
X155419785Y-83069928D02*
X155276928Y-82998500D01*
X155205500Y-82927071D01*
X155134071Y-82784214D01*
X155134071Y-82712785D01*
X155205500Y-82569928D01*
X155276928Y-82498500D01*
X155419785Y-82427071D01*
X155705500Y-82427071D01*
X155848357Y-82498500D01*
X155919785Y-82569928D01*
X155991214Y-82712785D01*
X155991214Y-82784214D01*
X155919785Y-82927071D01*
X155848357Y-82998500D01*
X155705500Y-83069928D01*
X155419785Y-83069928D01*
X155276928Y-83141357D01*
X155205500Y-83212785D01*
X155134071Y-83355642D01*
X155134071Y-83641357D01*
X155205500Y-83784214D01*
X155276928Y-83855642D01*
X155419785Y-83927071D01*
X155705500Y-83927071D01*
X155848357Y-83855642D01*
X155919785Y-83784214D01*
X155991214Y-83641357D01*
X155991214Y-83355642D01*
X155919785Y-83212785D01*
X155848357Y-83141357D01*
X155705500Y-83069928D01*
X148760785Y-78609071D02*
X148760785Y-79609071D01*
X148403642Y-78037642D02*
X148046500Y-79109071D01*
X148975071Y-79109071D01*
X149546500Y-79609071D02*
X149546500Y-78109071D01*
X149689357Y-79037642D02*
X150117928Y-79609071D01*
X150117928Y-78609071D02*
X149546500Y-79180500D01*
X150617928Y-78109071D02*
X151617928Y-78109071D01*
X150975071Y-79609071D01*
D12*
X192103428Y-118979071D02*
X191246285Y-118979071D01*
X191674857Y-118979071D02*
X191674857Y-117479071D01*
X191532000Y-117693357D01*
X191389142Y-117836214D01*
X191246285Y-117907642D01*
X192603428Y-117479071D02*
X192960571Y-118979071D01*
X193246285Y-117907642D01*
X193532000Y-118979071D01*
X193889142Y-117479071D01*
X144926928Y-111840142D02*
X144926928Y-111125857D01*
X146426928Y-111125857D01*
X145712642Y-112340142D02*
X145712642Y-112840142D01*
X144926928Y-113054428D02*
X144926928Y-112340142D01*
X146426928Y-112340142D01*
X146426928Y-113054428D01*
X144926928Y-113697285D02*
X146426928Y-113697285D01*
X146426928Y-114054428D01*
X146355500Y-114268714D01*
X146212642Y-114411571D01*
X146069785Y-114483000D01*
X145784071Y-114554428D01*
X145569785Y-114554428D01*
X145284071Y-114483000D01*
X145141214Y-114411571D01*
X144998357Y-114268714D01*
X144926928Y-114054428D01*
X144926928Y-113697285D01*
X144926928Y-115840142D02*
X146426928Y-115840142D01*
X144998357Y-115840142D02*
X144926928Y-115697285D01*
X144926928Y-115411571D01*
X144998357Y-115268714D01*
X145069785Y-115197285D01*
X145212642Y-115125857D01*
X145641214Y-115125857D01*
X145784071Y-115197285D01*
X145855500Y-115268714D01*
X145926928Y-115411571D01*
X145926928Y-115697285D01*
X145855500Y-115840142D01*
X144926928Y-117197285D02*
X145712642Y-117197285D01*
X145855500Y-117125857D01*
X145926928Y-116983000D01*
X145926928Y-116697285D01*
X145855500Y-116554428D01*
X144998357Y-117197285D02*
X144926928Y-117054428D01*
X144926928Y-116697285D01*
X144998357Y-116554428D01*
X145141214Y-116483000D01*
X145284071Y-116483000D01*
X145426928Y-116554428D01*
X145498357Y-116697285D01*
X145498357Y-117054428D01*
X145569785Y-117197285D01*
X145926928Y-117697285D02*
X145926928Y-118268714D01*
X146426928Y-117911571D02*
X145141214Y-117911571D01*
X144998357Y-117983000D01*
X144926928Y-118125857D01*
X144926928Y-118268714D01*
X144926928Y-119411571D02*
X145712642Y-119411571D01*
X145855500Y-119340142D01*
X145926928Y-119197285D01*
X145926928Y-118911571D01*
X145855500Y-118768714D01*
X144998357Y-119411571D02*
X144926928Y-119268714D01*
X144926928Y-118911571D01*
X144998357Y-118768714D01*
X145141214Y-118697285D01*
X145284071Y-118697285D01*
X145426928Y-118768714D01*
X145498357Y-118911571D01*
X145498357Y-119268714D01*
X145569785Y-119411571D01*
X146426928Y-121554428D02*
X146426928Y-121840142D01*
X146355500Y-121983000D01*
X146212642Y-122125857D01*
X145926928Y-122197285D01*
X145426928Y-122197285D01*
X145141214Y-122125857D01*
X144998357Y-121983000D01*
X144926928Y-121840142D01*
X144926928Y-121554428D01*
X144998357Y-121411571D01*
X145141214Y-121268714D01*
X145426928Y-121197285D01*
X145926928Y-121197285D01*
X146212642Y-121268714D01*
X146355500Y-121411571D01*
X146426928Y-121554428D01*
X146426928Y-122840142D02*
X145212642Y-122840142D01*
X145069785Y-122911571D01*
X144998357Y-122983000D01*
X144926928Y-123125857D01*
X144926928Y-123411571D01*
X144998357Y-123554428D01*
X145069785Y-123625857D01*
X145212642Y-123697285D01*
X146426928Y-123697285D01*
X146426928Y-124197285D02*
X146426928Y-125054428D01*
X144926928Y-124625857D02*
X146426928Y-124625857D01*
X191897142Y-127964500D02*
X191754285Y-127893071D01*
X191540000Y-127893071D01*
X191325714Y-127964500D01*
X191182857Y-128107357D01*
X191111428Y-128250214D01*
X191040000Y-128535928D01*
X191040000Y-128750214D01*
X191111428Y-129035928D01*
X191182857Y-129178785D01*
X191325714Y-129321642D01*
X191540000Y-129393071D01*
X191682857Y-129393071D01*
X191897142Y-129321642D01*
X191968571Y-129250214D01*
X191968571Y-128750214D01*
X191682857Y-128750214D01*
X192611428Y-129393071D02*
X192611428Y-127893071D01*
X193468571Y-129393071D01*
X193468571Y-127893071D01*
X194182857Y-129393071D02*
X194182857Y-127893071D01*
X194540000Y-127893071D01*
X194754285Y-127964500D01*
X194897142Y-128107357D01*
X194968571Y-128250214D01*
X195040000Y-128535928D01*
X195040000Y-128750214D01*
X194968571Y-129035928D01*
X194897142Y-129178785D01*
X194754285Y-129321642D01*
X194540000Y-129393071D01*
X194182857Y-129393071D01*
D10*
X125163357Y-51203714D02*
X125091928Y-51275142D01*
X124877642Y-51346571D01*
X124734785Y-51346571D01*
X124520500Y-51275142D01*
X124377642Y-51132285D01*
X124306214Y-50989428D01*
X124234785Y-50703714D01*
X124234785Y-50489428D01*
X124306214Y-50203714D01*
X124377642Y-50060857D01*
X124520500Y-49918000D01*
X124734785Y-49846571D01*
X124877642Y-49846571D01*
X125091928Y-49918000D01*
X125163357Y-49989428D01*
X126449071Y-51346571D02*
X126449071Y-50560857D01*
X126377642Y-50418000D01*
X126234785Y-50346571D01*
X125949071Y-50346571D01*
X125806214Y-50418000D01*
X126449071Y-51275142D02*
X126306214Y-51346571D01*
X125949071Y-51346571D01*
X125806214Y-51275142D01*
X125734785Y-51132285D01*
X125734785Y-50989428D01*
X125806214Y-50846571D01*
X125949071Y-50775142D01*
X126306214Y-50775142D01*
X126449071Y-50703714D01*
X127163357Y-51346571D02*
X127163357Y-50346571D01*
X127163357Y-50632285D02*
X127234785Y-50489428D01*
X127306214Y-50418000D01*
X127449071Y-50346571D01*
X127591928Y-50346571D01*
X128663357Y-51275142D02*
X128520500Y-51346571D01*
X128234785Y-51346571D01*
X128091928Y-51275142D01*
X128020500Y-51132285D01*
X128020500Y-50560857D01*
X128091928Y-50418000D01*
X128234785Y-50346571D01*
X128520500Y-50346571D01*
X128663357Y-50418000D01*
X128734785Y-50560857D01*
X128734785Y-50703714D01*
X128020500Y-50846571D01*
X129163357Y-50346571D02*
X129734785Y-50346571D01*
X129377642Y-51346571D02*
X129377642Y-50060857D01*
X129449071Y-49918000D01*
X129591928Y-49846571D01*
X129734785Y-49846571D01*
X130877642Y-50346571D02*
X130877642Y-51346571D01*
X130234785Y-50346571D02*
X130234785Y-51132285D01*
X130306214Y-51275142D01*
X130449071Y-51346571D01*
X130663357Y-51346571D01*
X130806214Y-51275142D01*
X130877642Y-51203714D01*
X131806214Y-51346571D02*
X131663357Y-51275142D01*
X131591928Y-51132285D01*
X131591928Y-49846571D01*
X133377642Y-50346571D02*
X133663357Y-51346571D01*
X133949071Y-50632285D01*
X134234785Y-51346571D01*
X134520500Y-50346571D01*
X135091928Y-51346571D02*
X135091928Y-49846571D01*
X135734785Y-51346571D02*
X135734785Y-50560857D01*
X135663357Y-50418000D01*
X135520500Y-50346571D01*
X135306214Y-50346571D01*
X135163357Y-50418000D01*
X135091928Y-50489428D01*
X136449071Y-51346571D02*
X136449071Y-50346571D01*
X136449071Y-49846571D02*
X136377642Y-49918000D01*
X136449071Y-49989428D01*
X136520500Y-49918000D01*
X136449071Y-49846571D01*
X136449071Y-49989428D01*
X137806214Y-51275142D02*
X137663357Y-51346571D01*
X137377642Y-51346571D01*
X137234785Y-51275142D01*
X137163357Y-51203714D01*
X137091928Y-51060857D01*
X137091928Y-50632285D01*
X137163357Y-50489428D01*
X137234785Y-50418000D01*
X137377642Y-50346571D01*
X137663357Y-50346571D01*
X137806214Y-50418000D01*
X138449071Y-51346571D02*
X138449071Y-49846571D01*
X139091928Y-51346571D02*
X139091928Y-50560857D01*
X139020500Y-50418000D01*
X138877642Y-50346571D01*
X138663357Y-50346571D01*
X138520500Y-50418000D01*
X138449071Y-50489428D01*
X121770499Y-52896571D02*
X121770499Y-54396571D01*
X121770499Y-52968000D02*
X121913357Y-52896571D01*
X122199071Y-52896571D01*
X122341928Y-52968000D01*
X122413357Y-53039428D01*
X122484785Y-53182285D01*
X122484785Y-53610857D01*
X122413357Y-53753714D01*
X122341928Y-53825142D01*
X122199071Y-53896571D01*
X121913357Y-53896571D01*
X121770499Y-53825142D01*
X123127642Y-53896571D02*
X123127642Y-52896571D01*
X123127642Y-52396571D02*
X123056214Y-52468000D01*
X123127642Y-52539428D01*
X123199071Y-52468000D01*
X123127642Y-52396571D01*
X123127642Y-52539428D01*
X123841928Y-52896571D02*
X123841928Y-53896571D01*
X123841928Y-53039428D02*
X123913357Y-52968000D01*
X124056214Y-52896571D01*
X124270499Y-52896571D01*
X124413357Y-52968000D01*
X124484785Y-53110857D01*
X124484785Y-53896571D01*
X125413357Y-53896571D02*
X125270499Y-53825142D01*
X125199071Y-53753714D01*
X125127642Y-53610857D01*
X125127642Y-53182285D01*
X125199071Y-53039428D01*
X125270499Y-52968000D01*
X125413357Y-52896571D01*
X125627642Y-52896571D01*
X125770499Y-52968000D01*
X125841928Y-53039428D01*
X125913357Y-53182285D01*
X125913357Y-53610857D01*
X125841928Y-53753714D01*
X125770499Y-53825142D01*
X125627642Y-53896571D01*
X125413357Y-53896571D01*
X127199071Y-52896571D02*
X127199071Y-53896571D01*
X126556214Y-52896571D02*
X126556214Y-53682285D01*
X126627642Y-53825142D01*
X126770499Y-53896571D01*
X126984785Y-53896571D01*
X127127642Y-53825142D01*
X127199071Y-53753714D01*
X127699071Y-52896571D02*
X128270499Y-52896571D01*
X127913357Y-52396571D02*
X127913357Y-53682285D01*
X127984785Y-53825142D01*
X128127642Y-53896571D01*
X128270499Y-53896571D01*
X129770499Y-52896571D02*
X130127642Y-53896571D01*
X130484785Y-52896571D02*
X130127642Y-53896571D01*
X129984785Y-54253714D01*
X129913357Y-54325142D01*
X129770499Y-54396571D01*
X131270499Y-53896571D02*
X131127642Y-53825142D01*
X131056214Y-53753714D01*
X130984785Y-53610857D01*
X130984785Y-53182285D01*
X131056214Y-53039428D01*
X131127642Y-52968000D01*
X131270499Y-52896571D01*
X131484785Y-52896571D01*
X131627642Y-52968000D01*
X131699071Y-53039428D01*
X131770499Y-53182285D01*
X131770499Y-53610857D01*
X131699071Y-53753714D01*
X131627642Y-53825142D01*
X131484785Y-53896571D01*
X131270499Y-53896571D01*
X133056214Y-52896571D02*
X133056214Y-53896571D01*
X132413357Y-52896571D02*
X132413357Y-53682285D01*
X132484785Y-53825142D01*
X132627642Y-53896571D01*
X132841928Y-53896571D01*
X132984785Y-53825142D01*
X133056214Y-53753714D01*
X135556214Y-53825142D02*
X135413357Y-53896571D01*
X135127642Y-53896571D01*
X134984785Y-53825142D01*
X134913357Y-53753714D01*
X134841928Y-53610857D01*
X134841928Y-53182285D01*
X134913357Y-53039428D01*
X134984785Y-52968000D01*
X135127642Y-52896571D01*
X135413357Y-52896571D01*
X135556214Y-52968000D01*
X136199071Y-53896571D02*
X136199071Y-52396571D01*
X136841928Y-53896571D02*
X136841928Y-53110857D01*
X136770500Y-52968000D01*
X136627642Y-52896571D01*
X136413357Y-52896571D01*
X136270500Y-52968000D01*
X136199071Y-53039428D01*
X137770500Y-53896571D02*
X137627642Y-53825142D01*
X137556214Y-53753714D01*
X137484785Y-53610857D01*
X137484785Y-53182285D01*
X137556214Y-53039428D01*
X137627642Y-52968000D01*
X137770500Y-52896571D01*
X137984785Y-52896571D01*
X138127642Y-52968000D01*
X138199071Y-53039428D01*
X138270500Y-53182285D01*
X138270500Y-53610857D01*
X138199071Y-53753714D01*
X138127642Y-53825142D01*
X137984785Y-53896571D01*
X137770500Y-53896571D01*
X139127642Y-53896571D02*
X138984785Y-53825142D01*
X138913357Y-53753714D01*
X138841928Y-53610857D01*
X138841928Y-53182285D01*
X138913357Y-53039428D01*
X138984785Y-52968000D01*
X139127642Y-52896571D01*
X139341928Y-52896571D01*
X139484785Y-52968000D01*
X139556214Y-53039428D01*
X139627642Y-53182285D01*
X139627642Y-53610857D01*
X139556214Y-53753714D01*
X139484785Y-53825142D01*
X139341928Y-53896571D01*
X139127642Y-53896571D01*
X140199071Y-53825142D02*
X140341928Y-53896571D01*
X140627642Y-53896571D01*
X140770500Y-53825142D01*
X140841928Y-53682285D01*
X140841928Y-53610857D01*
X140770500Y-53468000D01*
X140627642Y-53396571D01*
X140413357Y-53396571D01*
X140270500Y-53325142D01*
X140199071Y-53182285D01*
X140199071Y-53110857D01*
X140270500Y-52968000D01*
X140413357Y-52896571D01*
X140627642Y-52896571D01*
X140770500Y-52968000D01*
X142056214Y-53825142D02*
X141913357Y-53896571D01*
X141627642Y-53896571D01*
X141484785Y-53825142D01*
X141413357Y-53682285D01*
X141413357Y-53110857D01*
X141484785Y-52968000D01*
X141627642Y-52896571D01*
X141913357Y-52896571D01*
X142056214Y-52968000D01*
X142127642Y-53110857D01*
X142127642Y-53253714D01*
X141413357Y-53396571D01*
X142770500Y-53753714D02*
X142841928Y-53825142D01*
X142770500Y-53896571D01*
X142699071Y-53825142D01*
X142770500Y-53753714D01*
X142770500Y-53896571D01*
X142770500Y-53325142D02*
X142699071Y-52468000D01*
X142770500Y-52396571D01*
X142841928Y-52468000D01*
X142770500Y-53325142D01*
X142770500Y-52396571D01*
X142561928Y-142410571D02*
X142561928Y-140910571D01*
X143133357Y-140910571D01*
X143276214Y-140982000D01*
X143347642Y-141053428D01*
X143419071Y-141196285D01*
X143419071Y-141410571D01*
X143347642Y-141553428D01*
X143276214Y-141624857D01*
X143133357Y-141696285D01*
X142561928Y-141696285D01*
X144276214Y-142410571D02*
X144133357Y-142339142D01*
X144061928Y-142267714D01*
X143990500Y-142124857D01*
X143990500Y-141696285D01*
X144061928Y-141553428D01*
X144133357Y-141482000D01*
X144276214Y-141410571D01*
X144490500Y-141410571D01*
X144633357Y-141482000D01*
X144704785Y-141553428D01*
X144776214Y-141696285D01*
X144776214Y-142124857D01*
X144704785Y-142267714D01*
X144633357Y-142339142D01*
X144490500Y-142410571D01*
X144276214Y-142410571D01*
X145419071Y-142410571D02*
X145419071Y-141410571D01*
X145419071Y-141696285D02*
X145490500Y-141553428D01*
X145561928Y-141482000D01*
X145704785Y-141410571D01*
X145847642Y-141410571D01*
X146133357Y-141410571D02*
X146704785Y-141410571D01*
X146347642Y-140910571D02*
X146347642Y-142196285D01*
X146419071Y-142339142D01*
X146561928Y-142410571D01*
X146704785Y-142410571D01*
X147847642Y-142410571D02*
X147847642Y-141624857D01*
X147776214Y-141482000D01*
X147633357Y-141410571D01*
X147347642Y-141410571D01*
X147204785Y-141482000D01*
X147847642Y-142339142D02*
X147704785Y-142410571D01*
X147347642Y-142410571D01*
X147204785Y-142339142D01*
X147133357Y-142196285D01*
X147133357Y-142053428D01*
X147204785Y-141910571D01*
X147347642Y-141839142D01*
X147704785Y-141839142D01*
X147847642Y-141767714D01*
X148776214Y-142410571D02*
X148633357Y-142339142D01*
X148561928Y-142196285D01*
X148561928Y-140910571D01*
X149561928Y-142267714D02*
X149633357Y-142339142D01*
X149561928Y-142410571D01*
X149490500Y-142339142D01*
X149561928Y-142267714D01*
X149561928Y-142410571D01*
X149276214Y-140982000D02*
X149419071Y-140910571D01*
X149776214Y-140910571D01*
X149919071Y-140982000D01*
X149990500Y-141124857D01*
X149990500Y-141267714D01*
X149919071Y-141410571D01*
X149847642Y-141482000D01*
X149704785Y-141553428D01*
X149633357Y-141624857D01*
X149561928Y-141767714D01*
X149561928Y-141839142D01*
D12*
X192246285Y-116566071D02*
X191389142Y-116566071D01*
X191817714Y-116566071D02*
X191817714Y-115066071D01*
X191674857Y-115280357D01*
X191532000Y-115423214D01*
X191389142Y-115494642D01*
X193532000Y-115066071D02*
X193246285Y-115066071D01*
X193103428Y-115137500D01*
X193032000Y-115208928D01*
X192889142Y-115423214D01*
X192817714Y-115708928D01*
X192817714Y-116280357D01*
X192889142Y-116423214D01*
X192960571Y-116494642D01*
X193103428Y-116566071D01*
X193389142Y-116566071D01*
X193532000Y-116494642D01*
X193603428Y-116423214D01*
X193674857Y-116280357D01*
X193674857Y-115923214D01*
X193603428Y-115780357D01*
X193532000Y-115708928D01*
X193389142Y-115637500D01*
X193103428Y-115637500D01*
X192960571Y-115708928D01*
X192889142Y-115780357D01*
X192817714Y-115923214D01*
X192246285Y-113949871D02*
X191389142Y-113949871D01*
X191817714Y-113949871D02*
X191817714Y-112449871D01*
X191674857Y-112664157D01*
X191532000Y-112807014D01*
X191389142Y-112878442D01*
X192746285Y-112449871D02*
X193746285Y-112449871D01*
X193103428Y-113949871D01*
D11*
X144415576Y-56691204D02*
X144320338Y-56976919D01*
X144320338Y-57453109D01*
X144415576Y-57643585D01*
X144510814Y-57738823D01*
X144701290Y-57834061D01*
X144891766Y-57834061D01*
X145082242Y-57738823D01*
X145177480Y-57643585D01*
X145272719Y-57453109D01*
X145367957Y-57072157D01*
X145463195Y-56881680D01*
X145558433Y-56786442D01*
X145748909Y-56691204D01*
X145939385Y-56691204D01*
X146129861Y-56786442D01*
X146225100Y-56881680D01*
X146320338Y-57072157D01*
X146320338Y-57548347D01*
X146225100Y-57834061D01*
X144320338Y-58691204D02*
X146320338Y-58691204D01*
X146320338Y-59167395D01*
X146225100Y-59453109D01*
X146034623Y-59643585D01*
X145844147Y-59738823D01*
X145463195Y-59834061D01*
X145177480Y-59834061D01*
X144796528Y-59738823D01*
X144606052Y-59643585D01*
X144415576Y-59453109D01*
X144320338Y-59167395D01*
X144320338Y-58691204D01*
X144891766Y-60595966D02*
X144891766Y-61548347D01*
X144320338Y-60405490D02*
X146320338Y-61072157D01*
X144320338Y-61738823D01*
X141265576Y-56786442D02*
X141170338Y-57072157D01*
X141170338Y-57548347D01*
X141265576Y-57738823D01*
X141360814Y-57834061D01*
X141551290Y-57929300D01*
X141741766Y-57929300D01*
X141932242Y-57834061D01*
X142027480Y-57738823D01*
X142122719Y-57548347D01*
X142217957Y-57167395D01*
X142313195Y-56976919D01*
X142408433Y-56881680D01*
X142598909Y-56786442D01*
X142789385Y-56786442D01*
X142979861Y-56881680D01*
X143075100Y-56976919D01*
X143170338Y-57167395D01*
X143170338Y-57643585D01*
X143075100Y-57929300D01*
X141360814Y-59929300D02*
X141265576Y-59834061D01*
X141170338Y-59548347D01*
X141170338Y-59357871D01*
X141265576Y-59072157D01*
X141456052Y-58881680D01*
X141646528Y-58786442D01*
X142027480Y-58691204D01*
X142313195Y-58691204D01*
X142694147Y-58786442D01*
X142884623Y-58881680D01*
X143075100Y-59072157D01*
X143170338Y-59357871D01*
X143170338Y-59548347D01*
X143075100Y-59834061D01*
X142979861Y-59929300D01*
X141170338Y-61738823D02*
X141170338Y-60786442D01*
X143170338Y-60786442D01*
X140020338Y-55738823D02*
X140020338Y-56976919D01*
X139258433Y-56310252D01*
X139258433Y-56595966D01*
X139163195Y-56786442D01*
X139067957Y-56881680D01*
X138877480Y-56976919D01*
X138401290Y-56976919D01*
X138210814Y-56881680D01*
X138115576Y-56786442D01*
X138020338Y-56595966D01*
X138020338Y-56024538D01*
X138115576Y-55834061D01*
X138210814Y-55738823D01*
X138210814Y-57834061D02*
X138115576Y-57929300D01*
X138020338Y-57834061D01*
X138115576Y-57738823D01*
X138210814Y-57834061D01*
X138020338Y-57834061D01*
X140020338Y-58595966D02*
X140020338Y-59834061D01*
X139258433Y-59167395D01*
X139258433Y-59453109D01*
X139163195Y-59643585D01*
X139067957Y-59738823D01*
X138877480Y-59834061D01*
X138401290Y-59834061D01*
X138210814Y-59738823D01*
X138115576Y-59643585D01*
X138020338Y-59453109D01*
X138020338Y-58881680D01*
X138115576Y-58691204D01*
X138210814Y-58595966D01*
X140020338Y-60405490D02*
X138020338Y-61072157D01*
X140020338Y-61738823D01*
X136775100Y-57357871D02*
X136870338Y-57167395D01*
X136870338Y-56881680D01*
X136775100Y-56595966D01*
X136584623Y-56405490D01*
X136394147Y-56310252D01*
X136013195Y-56215014D01*
X135727480Y-56215014D01*
X135346528Y-56310252D01*
X135156052Y-56405490D01*
X134965576Y-56595966D01*
X134870338Y-56881680D01*
X134870338Y-57072157D01*
X134965576Y-57357871D01*
X135060814Y-57453109D01*
X135727480Y-57453109D01*
X135727480Y-57072157D01*
X134870338Y-58310252D02*
X136870338Y-58310252D01*
X134870338Y-59453109D01*
X136870338Y-59453109D01*
X134870338Y-60405490D02*
X136870338Y-60405490D01*
X136870338Y-60881680D01*
X136775100Y-61167395D01*
X136584623Y-61357871D01*
X136394147Y-61453109D01*
X136013195Y-61548347D01*
X135727480Y-61548347D01*
X135346528Y-61453109D01*
X135156052Y-61357871D01*
X134965576Y-61167395D01*
X134870338Y-60881680D01*
X134870338Y-60405490D01*
X126000576Y-56468942D02*
X125905338Y-56754657D01*
X125905338Y-57230847D01*
X126000576Y-57421323D01*
X126095814Y-57516561D01*
X126286290Y-57611800D01*
X126476766Y-57611800D01*
X126667242Y-57516561D01*
X126762480Y-57421323D01*
X126857719Y-57230847D01*
X126952957Y-56849895D01*
X127048195Y-56659419D01*
X127143433Y-56564180D01*
X127333909Y-56468942D01*
X127524385Y-56468942D01*
X127714861Y-56564180D01*
X127810100Y-56659419D01*
X127905338Y-56849895D01*
X127905338Y-57326085D01*
X127810100Y-57611800D01*
X126095814Y-59611800D02*
X126000576Y-59516561D01*
X125905338Y-59230847D01*
X125905338Y-59040371D01*
X126000576Y-58754657D01*
X126191052Y-58564180D01*
X126381528Y-58468942D01*
X126762480Y-58373704D01*
X127048195Y-58373704D01*
X127429147Y-58468942D01*
X127619623Y-58564180D01*
X127810100Y-58754657D01*
X127905338Y-59040371D01*
X127905338Y-59230847D01*
X127810100Y-59516561D01*
X127714861Y-59611800D01*
X125905338Y-61421323D02*
X125905338Y-60468942D01*
X127905338Y-60468942D01*
X122850576Y-56373704D02*
X122755338Y-56659419D01*
X122755338Y-57135609D01*
X122850576Y-57326085D01*
X122945814Y-57421323D01*
X123136290Y-57516561D01*
X123326766Y-57516561D01*
X123517242Y-57421323D01*
X123612480Y-57326085D01*
X123707719Y-57135609D01*
X123802957Y-56754657D01*
X123898195Y-56564180D01*
X123993433Y-56468942D01*
X124183909Y-56373704D01*
X124374385Y-56373704D01*
X124564861Y-56468942D01*
X124660100Y-56564180D01*
X124755338Y-56754657D01*
X124755338Y-57230847D01*
X124660100Y-57516561D01*
X122755338Y-58373704D02*
X124755338Y-58373704D01*
X124755338Y-58849895D01*
X124660100Y-59135609D01*
X124469623Y-59326085D01*
X124279147Y-59421323D01*
X123898195Y-59516561D01*
X123612480Y-59516561D01*
X123231528Y-59421323D01*
X123041052Y-59326085D01*
X122850576Y-59135609D01*
X122755338Y-58849895D01*
X122755338Y-58373704D01*
X123326766Y-60278466D02*
X123326766Y-61230847D01*
X122755338Y-60087990D02*
X124755338Y-60754657D01*
X122755338Y-61421323D01*
X121510100Y-57040371D02*
X121605338Y-56849895D01*
X121605338Y-56564180D01*
X121510100Y-56278466D01*
X121319623Y-56087990D01*
X121129147Y-55992752D01*
X120748195Y-55897514D01*
X120462480Y-55897514D01*
X120081528Y-55992752D01*
X119891052Y-56087990D01*
X119700576Y-56278466D01*
X119605338Y-56564180D01*
X119605338Y-56754657D01*
X119700576Y-57040371D01*
X119795814Y-57135609D01*
X120462480Y-57135609D01*
X120462480Y-56754657D01*
X119605338Y-57992752D02*
X121605338Y-57992752D01*
X119605338Y-59135609D01*
X121605338Y-59135609D01*
X119605338Y-60087990D02*
X121605338Y-60087990D01*
X121605338Y-60564180D01*
X121510100Y-60849895D01*
X121319623Y-61040371D01*
X121129147Y-61135609D01*
X120748195Y-61230847D01*
X120462480Y-61230847D01*
X120081528Y-61135609D01*
X119891052Y-61040371D01*
X119700576Y-60849895D01*
X119605338Y-60564180D01*
X119605338Y-60087990D01*
X118455338Y-55421323D02*
X118455338Y-56659419D01*
X117693433Y-55992752D01*
X117693433Y-56278466D01*
X117598195Y-56468942D01*
X117502957Y-56564180D01*
X117312480Y-56659419D01*
X116836290Y-56659419D01*
X116645814Y-56564180D01*
X116550576Y-56468942D01*
X116455338Y-56278466D01*
X116455338Y-55707038D01*
X116550576Y-55516561D01*
X116645814Y-55421323D01*
X116645814Y-57516561D02*
X116550576Y-57611800D01*
X116455338Y-57516561D01*
X116550576Y-57421323D01*
X116645814Y-57516561D01*
X116455338Y-57516561D01*
X118455338Y-58278466D02*
X118455338Y-59516561D01*
X117693433Y-58849895D01*
X117693433Y-59135609D01*
X117598195Y-59326085D01*
X117502957Y-59421323D01*
X117312480Y-59516561D01*
X116836290Y-59516561D01*
X116645814Y-59421323D01*
X116550576Y-59326085D01*
X116455338Y-59135609D01*
X116455338Y-58564180D01*
X116550576Y-58373704D01*
X116645814Y-58278466D01*
X118455338Y-60087990D02*
X116455338Y-60754657D01*
X118455338Y-61421323D01*
D12*
X149320285Y-123868571D02*
X148463142Y-123868571D01*
X148891714Y-123868571D02*
X148891714Y-122368571D01*
X148748857Y-122582857D01*
X148606000Y-122725714D01*
X148463142Y-122797142D01*
X150606000Y-122868571D02*
X150606000Y-123868571D01*
X150248857Y-122297142D02*
X149891714Y-123368571D01*
X150820285Y-123368571D01*
X149328142Y-125099071D02*
X148613857Y-125099071D01*
X148542428Y-125813357D01*
X148613857Y-125741928D01*
X148756714Y-125670500D01*
X149113857Y-125670500D01*
X149256714Y-125741928D01*
X149328142Y-125813357D01*
X149399571Y-125956214D01*
X149399571Y-126313357D01*
X149328142Y-126456214D01*
X149256714Y-126527642D01*
X149113857Y-126599071D01*
X148756714Y-126599071D01*
X148613857Y-126527642D01*
X148542428Y-126456214D01*
X148493314Y-119752371D02*
X149421885Y-119752371D01*
X148921885Y-120323800D01*
X149136171Y-120323800D01*
X149279028Y-120395228D01*
X149350457Y-120466657D01*
X149421885Y-120609514D01*
X149421885Y-120966657D01*
X149350457Y-121109514D01*
X149279028Y-121180942D01*
X149136171Y-121252371D01*
X148707600Y-121252371D01*
X148564742Y-121180942D01*
X148493314Y-121109514D01*
X150707600Y-120252371D02*
X150707600Y-121252371D01*
X150350457Y-119680942D02*
X149993314Y-120752371D01*
X150921885Y-120752371D01*
X148493314Y-117212371D02*
X149421885Y-117212371D01*
X148921885Y-117783800D01*
X149136171Y-117783800D01*
X149279028Y-117855228D01*
X149350457Y-117926657D01*
X149421885Y-118069514D01*
X149421885Y-118426657D01*
X149350457Y-118569514D01*
X149279028Y-118640942D01*
X149136171Y-118712371D01*
X148707600Y-118712371D01*
X148564742Y-118640942D01*
X148493314Y-118569514D01*
X149921885Y-117212371D02*
X150850457Y-117212371D01*
X150350457Y-117783800D01*
X150564742Y-117783800D01*
X150707600Y-117855228D01*
X150779028Y-117926657D01*
X150850457Y-118069514D01*
X150850457Y-118426657D01*
X150779028Y-118569514D01*
X150707600Y-118640942D01*
X150564742Y-118712371D01*
X150136171Y-118712371D01*
X149993314Y-118640942D01*
X149921885Y-118569514D01*
X149421885Y-116045371D02*
X148564742Y-116045371D01*
X148993314Y-116045371D02*
X148993314Y-114545371D01*
X148850457Y-114759657D01*
X148707600Y-114902514D01*
X148564742Y-114973942D01*
X150136171Y-116045371D02*
X150421885Y-116045371D01*
X150564742Y-115973942D01*
X150636171Y-115902514D01*
X150779028Y-115688228D01*
X150850457Y-115402514D01*
X150850457Y-114831085D01*
X150779028Y-114688228D01*
X150707600Y-114616800D01*
X150564742Y-114545371D01*
X150279028Y-114545371D01*
X150136171Y-114616800D01*
X150064742Y-114688228D01*
X149993314Y-114831085D01*
X149993314Y-115188228D01*
X150064742Y-115331085D01*
X150136171Y-115402514D01*
X150279028Y-115473942D01*
X150564742Y-115473942D01*
X150707600Y-115402514D01*
X150779028Y-115331085D01*
X150850457Y-115188228D01*
X148493314Y-111878371D02*
X149421885Y-111878371D01*
X148921885Y-112449800D01*
X149136171Y-112449800D01*
X149279028Y-112521228D01*
X149350457Y-112592657D01*
X149421885Y-112735514D01*
X149421885Y-113092657D01*
X149350457Y-113235514D01*
X149279028Y-113306942D01*
X149136171Y-113378371D01*
X148707600Y-113378371D01*
X148564742Y-113306942D01*
X148493314Y-113235514D01*
X150779028Y-111878371D02*
X150064742Y-111878371D01*
X149993314Y-112592657D01*
X150064742Y-112521228D01*
X150207600Y-112449800D01*
X150564742Y-112449800D01*
X150707600Y-112521228D01*
X150779028Y-112592657D01*
X150850457Y-112735514D01*
X150850457Y-113092657D01*
X150779028Y-113235514D01*
X150707600Y-113306942D01*
X150564742Y-113378371D01*
X150207600Y-113378371D01*
X150064742Y-113306942D01*
X149993314Y-113235514D01*
X149421885Y-110965371D02*
X148564742Y-110965371D01*
X148993314Y-110965371D02*
X148993314Y-109465371D01*
X148850457Y-109679657D01*
X148707600Y-109822514D01*
X148564742Y-109893942D01*
X150279028Y-110108228D02*
X150136171Y-110036800D01*
X150064742Y-109965371D01*
X149993314Y-109822514D01*
X149993314Y-109751085D01*
X150064742Y-109608228D01*
X150136171Y-109536800D01*
X150279028Y-109465371D01*
X150564742Y-109465371D01*
X150707600Y-109536800D01*
X150779028Y-109608228D01*
X150850457Y-109751085D01*
X150850457Y-109822514D01*
X150779028Y-109965371D01*
X150707600Y-110036800D01*
X150564742Y-110108228D01*
X150279028Y-110108228D01*
X150136171Y-110179657D01*
X150064742Y-110251085D01*
X149993314Y-110393942D01*
X149993314Y-110679657D01*
X150064742Y-110822514D01*
X150136171Y-110893942D01*
X150279028Y-110965371D01*
X150564742Y-110965371D01*
X150707600Y-110893942D01*
X150779028Y-110822514D01*
X150850457Y-110679657D01*
X150850457Y-110393942D01*
X150779028Y-110251085D01*
X150707600Y-110179657D01*
X150564742Y-110108228D01*
X191452642Y-104985428D02*
X191524071Y-104914000D01*
X191666928Y-104842571D01*
X192024071Y-104842571D01*
X192166928Y-104914000D01*
X192238357Y-104985428D01*
X192309785Y-105128285D01*
X192309785Y-105271142D01*
X192238357Y-105485428D01*
X191381214Y-106342571D01*
X192309785Y-106342571D01*
X192809785Y-104842571D02*
X193809785Y-104842571D01*
X193166928Y-106342571D01*
X191960642Y-125297500D02*
X191817785Y-125226071D01*
X191603500Y-125226071D01*
X191389214Y-125297500D01*
X191246357Y-125440357D01*
X191174928Y-125583214D01*
X191103500Y-125868928D01*
X191103500Y-126083214D01*
X191174928Y-126368928D01*
X191246357Y-126511785D01*
X191389214Y-126654642D01*
X191603500Y-126726071D01*
X191746357Y-126726071D01*
X191960642Y-126654642D01*
X192032071Y-126583214D01*
X192032071Y-126083214D01*
X191746357Y-126083214D01*
X192674928Y-126726071D02*
X192674928Y-125226071D01*
X193532071Y-126726071D01*
X193532071Y-125226071D01*
X194246357Y-126726071D02*
X194246357Y-125226071D01*
X194603500Y-125226071D01*
X194817785Y-125297500D01*
X194960642Y-125440357D01*
X195032071Y-125583214D01*
X195103500Y-125868928D01*
X195103500Y-126083214D01*
X195032071Y-126368928D01*
X194960642Y-126511785D01*
X194817785Y-126654642D01*
X194603500Y-126726071D01*
X194246357Y-126726071D01*
X191254285Y-122686071D02*
X192182857Y-122686071D01*
X191682857Y-123257500D01*
X191897142Y-123257500D01*
X192040000Y-123328928D01*
X192111428Y-123400357D01*
X192182857Y-123543214D01*
X192182857Y-123900357D01*
X192111428Y-124043214D01*
X192040000Y-124114642D01*
X191897142Y-124186071D01*
X191468571Y-124186071D01*
X191325714Y-124114642D01*
X191254285Y-124043214D01*
X192682857Y-123186071D02*
X193040000Y-124186071D01*
X193397142Y-123186071D01*
X193825714Y-122686071D02*
X194754285Y-122686071D01*
X194254285Y-123257500D01*
X194468571Y-123257500D01*
X194611428Y-123328928D01*
X194682857Y-123400357D01*
X194754285Y-123543214D01*
X194754285Y-123900357D01*
X194682857Y-124043214D01*
X194611428Y-124114642D01*
X194468571Y-124186071D01*
X194040000Y-124186071D01*
X193897142Y-124114642D01*
X193825714Y-124043214D01*
X192127214Y-120019071D02*
X191412928Y-120019071D01*
X191341500Y-120733357D01*
X191412928Y-120661928D01*
X191555785Y-120590500D01*
X191912928Y-120590500D01*
X192055785Y-120661928D01*
X192127214Y-120733357D01*
X192198642Y-120876214D01*
X192198642Y-121233357D01*
X192127214Y-121376214D01*
X192055785Y-121447642D01*
X191912928Y-121519071D01*
X191555785Y-121519071D01*
X191412928Y-121447642D01*
X191341500Y-121376214D01*
X192698642Y-120519071D02*
X193055785Y-121519071D01*
X193412928Y-120519071D01*
D10*
X149956785Y-53316500D02*
X149956785Y-53078404D01*
X150099642Y-52602214D01*
X150242500Y-52364119D01*
X148813928Y-53316500D02*
X148813928Y-53078404D01*
X148956785Y-52602214D01*
X149099642Y-52364119D01*
X151242500Y-57840309D02*
X151671071Y-58078404D01*
X152385357Y-58078404D01*
X152671071Y-57840309D01*
X152813928Y-57602214D01*
X152956785Y-57126023D01*
X152956785Y-56649833D01*
X152813928Y-56173642D01*
X152671071Y-55935547D01*
X152385357Y-55697452D01*
X151813928Y-55459357D01*
X151528214Y-55221261D01*
X151385357Y-54983166D01*
X151242500Y-54506976D01*
X151242500Y-54030785D01*
X151385357Y-53554595D01*
X151528214Y-53316500D01*
X151813928Y-53078404D01*
X152528214Y-53078404D01*
X152956785Y-53316500D01*
X154242500Y-54745071D02*
X154242500Y-58078404D01*
X154242500Y-55221261D02*
X154385357Y-54983166D01*
X154671071Y-54745071D01*
X155099642Y-54745071D01*
X155385357Y-54983166D01*
X155528214Y-55459357D01*
X155528214Y-58078404D01*
X158242500Y-54745071D02*
X158242500Y-58078404D01*
X156956785Y-54745071D02*
X156956785Y-57364119D01*
X157099642Y-57840309D01*
X157385357Y-58078404D01*
X157813928Y-58078404D01*
X158099642Y-57840309D01*
X158242500Y-57602214D01*
X159242500Y-54745071D02*
X160385357Y-54745071D01*
X159671071Y-58078404D02*
X159671071Y-53792690D01*
X159813928Y-53316500D01*
X160099642Y-53078404D01*
X160385357Y-53078404D01*
X160956785Y-54745071D02*
X162099642Y-54745071D01*
X161385357Y-58078404D02*
X161385357Y-53792690D01*
X161528214Y-53316500D01*
X161813928Y-53078404D01*
X162099642Y-53078404D01*
X164242500Y-57840309D02*
X163956785Y-58078404D01*
X163385357Y-58078404D01*
X163099642Y-57840309D01*
X162956785Y-57364119D01*
X162956785Y-55459357D01*
X163099642Y-54983166D01*
X163385357Y-54745071D01*
X163956785Y-54745071D01*
X164242500Y-54983166D01*
X164385357Y-55459357D01*
X164385357Y-55935547D01*
X162956785Y-56411738D01*
X166099642Y-58078404D02*
X165813928Y-57840309D01*
X165671071Y-57364119D01*
X165671071Y-53078404D01*
X168528214Y-58078404D02*
X168528214Y-55459357D01*
X168385357Y-54983166D01*
X168099642Y-54745071D01*
X167528214Y-54745071D01*
X167242500Y-54983166D01*
X168528214Y-57840309D02*
X168242500Y-58078404D01*
X167528214Y-58078404D01*
X167242500Y-57840309D01*
X167099642Y-57364119D01*
X167099642Y-56887928D01*
X167242500Y-56411738D01*
X167528214Y-56173642D01*
X168242500Y-56173642D01*
X168528214Y-55935547D01*
X171242500Y-58078404D02*
X171242500Y-55459357D01*
X171099642Y-54983166D01*
X170813928Y-54745071D01*
X170242500Y-54745071D01*
X169956785Y-54983166D01*
X171242500Y-57840309D02*
X170956785Y-58078404D01*
X170242500Y-58078404D01*
X169956785Y-57840309D01*
X169813928Y-57364119D01*
X169813928Y-56887928D01*
X169956785Y-56411738D01*
X170242500Y-56173642D01*
X170956785Y-56173642D01*
X171242500Y-55935547D01*
X172671071Y-58078404D02*
X172671071Y-54745071D01*
X172671071Y-55697452D02*
X172813928Y-55221261D01*
X172956785Y-54983166D01*
X173242500Y-54745071D01*
X173528214Y-54745071D01*
X174528214Y-53078404D02*
X174528214Y-53316500D01*
X174385357Y-53792690D01*
X174242500Y-54030785D01*
X175671071Y-53078404D02*
X175671071Y-53316500D01*
X175528214Y-53792690D01*
X175385357Y-54030785D01*
X122119071Y-89246671D02*
X122476214Y-90246671D01*
X122833357Y-89246671D01*
X123976214Y-90175242D02*
X123833357Y-90246671D01*
X123547642Y-90246671D01*
X123404785Y-90175242D01*
X123333357Y-90032385D01*
X123333357Y-89460957D01*
X123404785Y-89318100D01*
X123547642Y-89246671D01*
X123833357Y-89246671D01*
X123976214Y-89318100D01*
X124047642Y-89460957D01*
X124047642Y-89603814D01*
X123333357Y-89746671D01*
X124690500Y-90246671D02*
X124690500Y-89246671D01*
X124690500Y-89532385D02*
X124761928Y-89389528D01*
X124833357Y-89318100D01*
X124976214Y-89246671D01*
X125119071Y-89246671D01*
X125547642Y-90175242D02*
X125690500Y-90246671D01*
X125976214Y-90246671D01*
X126119071Y-90175242D01*
X126190500Y-90032385D01*
X126190500Y-89960957D01*
X126119071Y-89818100D01*
X125976214Y-89746671D01*
X125761928Y-89746671D01*
X125619071Y-89675242D01*
X125547642Y-89532385D01*
X125547642Y-89460957D01*
X125619071Y-89318100D01*
X125761928Y-89246671D01*
X125976214Y-89246671D01*
X126119071Y-89318100D01*
X126833357Y-90246671D02*
X126833357Y-89246671D01*
X126833357Y-88746671D02*
X126761928Y-88818100D01*
X126833357Y-88889528D01*
X126904785Y-88818100D01*
X126833357Y-88746671D01*
X126833357Y-88889528D01*
X127761928Y-90246671D02*
X127619071Y-90175242D01*
X127547642Y-90103814D01*
X127476214Y-89960957D01*
X127476214Y-89532385D01*
X127547642Y-89389528D01*
X127619071Y-89318100D01*
X127761928Y-89246671D01*
X127976214Y-89246671D01*
X128119071Y-89318100D01*
X128190500Y-89389528D01*
X128261928Y-89532385D01*
X128261928Y-89960957D01*
X128190500Y-90103814D01*
X128119071Y-90175242D01*
X127976214Y-90246671D01*
X127761928Y-90246671D01*
X128904785Y-89246671D02*
X128904785Y-90246671D01*
X128904785Y-89389528D02*
X128976214Y-89318100D01*
X129119071Y-89246671D01*
X129333357Y-89246671D01*
X129476214Y-89318100D01*
X129547642Y-89460957D01*
X129547642Y-90246671D01*
X131333357Y-88889528D02*
X131404785Y-88818100D01*
X131547642Y-88746671D01*
X131904785Y-88746671D01*
X132047642Y-88818100D01*
X132119071Y-88889528D01*
X132190500Y-89032385D01*
X132190500Y-89175242D01*
X132119071Y-89389528D01*
X131261928Y-90246671D01*
X132190500Y-90246671D01*
X119904785Y-91439528D02*
X119976214Y-91368100D01*
X120119071Y-91296671D01*
X120476214Y-91296671D01*
X120619071Y-91368100D01*
X120690500Y-91439528D01*
X120761928Y-91582385D01*
X120761928Y-91725242D01*
X120690500Y-91939528D01*
X119833357Y-92796671D01*
X120761928Y-92796671D01*
X121690500Y-91296671D02*
X121833357Y-91296671D01*
X121976214Y-91368100D01*
X122047642Y-91439528D01*
X122119071Y-91582385D01*
X122190500Y-91868100D01*
X122190500Y-92225242D01*
X122119071Y-92510957D01*
X122047642Y-92653814D01*
X121976214Y-92725242D01*
X121833357Y-92796671D01*
X121690500Y-92796671D01*
X121547642Y-92725242D01*
X121476214Y-92653814D01*
X121404785Y-92510957D01*
X121333357Y-92225242D01*
X121333357Y-91868100D01*
X121404785Y-91582385D01*
X121476214Y-91439528D01*
X121547642Y-91368100D01*
X121690500Y-91296671D01*
X122761928Y-91439528D02*
X122833357Y-91368100D01*
X122976214Y-91296671D01*
X123333357Y-91296671D01*
X123476214Y-91368100D01*
X123547642Y-91439528D01*
X123619071Y-91582385D01*
X123619071Y-91725242D01*
X123547642Y-91939528D01*
X122690500Y-92796671D01*
X123619071Y-92796671D01*
X124547642Y-91296671D02*
X124690500Y-91296671D01*
X124833357Y-91368100D01*
X124904785Y-91439528D01*
X124976214Y-91582385D01*
X125047642Y-91868100D01*
X125047642Y-92225242D01*
X124976214Y-92510957D01*
X124904785Y-92653814D01*
X124833357Y-92725242D01*
X124690500Y-92796671D01*
X124547642Y-92796671D01*
X124404785Y-92725242D01*
X124333357Y-92653814D01*
X124261928Y-92510957D01*
X124190500Y-92225242D01*
X124190500Y-91868100D01*
X124261928Y-91582385D01*
X124333357Y-91439528D01*
X124404785Y-91368100D01*
X124547642Y-91296671D01*
X125690500Y-92225242D02*
X126833357Y-92225242D01*
X127833357Y-91296671D02*
X127976214Y-91296671D01*
X128119071Y-91368100D01*
X128190500Y-91439528D01*
X128261928Y-91582385D01*
X128333357Y-91868100D01*
X128333357Y-92225242D01*
X128261928Y-92510957D01*
X128190500Y-92653814D01*
X128119071Y-92725242D01*
X127976214Y-92796671D01*
X127833357Y-92796671D01*
X127690500Y-92725242D01*
X127619071Y-92653814D01*
X127547642Y-92510957D01*
X127476214Y-92225242D01*
X127476214Y-91868100D01*
X127547642Y-91582385D01*
X127619071Y-91439528D01*
X127690500Y-91368100D01*
X127833357Y-91296671D01*
X129047642Y-92796671D02*
X129333357Y-92796671D01*
X129476214Y-92725242D01*
X129547642Y-92653814D01*
X129690500Y-92439528D01*
X129761928Y-92153814D01*
X129761928Y-91582385D01*
X129690500Y-91439528D01*
X129619071Y-91368100D01*
X129476214Y-91296671D01*
X129190500Y-91296671D01*
X129047642Y-91368100D01*
X128976214Y-91439528D01*
X128904785Y-91582385D01*
X128904785Y-91939528D01*
X128976214Y-92082385D01*
X129047642Y-92153814D01*
X129190500Y-92225242D01*
X129476214Y-92225242D01*
X129619071Y-92153814D01*
X129690500Y-92082385D01*
X129761928Y-91939528D01*
X130404785Y-92225242D02*
X131547642Y-92225242D01*
X132190500Y-91439528D02*
X132261928Y-91368100D01*
X132404785Y-91296671D01*
X132761928Y-91296671D01*
X132904785Y-91368100D01*
X132976214Y-91439528D01*
X133047642Y-91582385D01*
X133047642Y-91725242D01*
X132976214Y-91939528D01*
X132119071Y-92796671D01*
X133047642Y-92796671D01*
X134476214Y-92796671D02*
X133619071Y-92796671D01*
X134047642Y-92796671D02*
X134047642Y-91296671D01*
X133904785Y-91510957D01*
X133761928Y-91653814D01*
X133619071Y-91725242D01*
X155164333Y-135006000D02*
X156354809Y-135006000D01*
X154926238Y-135863142D02*
X155759571Y-132863142D01*
X156592904Y-135863142D01*
X157426238Y-135863142D02*
X157426238Y-133863142D01*
X157426238Y-132863142D02*
X157307190Y-133006000D01*
X157426238Y-133148857D01*
X157545285Y-133006000D01*
X157426238Y-132863142D01*
X157426238Y-133148857D01*
X158616714Y-135863142D02*
X158616714Y-133863142D01*
X158616714Y-134434571D02*
X158735761Y-134148857D01*
X158854809Y-134006000D01*
X159092904Y-133863142D01*
X159331000Y-133863142D01*
X163735761Y-136148857D02*
X163497666Y-136006000D01*
X163259571Y-135720285D01*
X162902428Y-135291714D01*
X162664333Y-135148857D01*
X162426238Y-135148857D01*
X162545285Y-135863142D02*
X162307190Y-135720285D01*
X162069095Y-135434571D01*
X161950047Y-134863142D01*
X161950047Y-133863142D01*
X162069095Y-133291714D01*
X162307190Y-133006000D01*
X162545285Y-132863142D01*
X163021476Y-132863142D01*
X163259571Y-133006000D01*
X163497666Y-133291714D01*
X163616714Y-133863142D01*
X163616714Y-134863142D01*
X163497666Y-135434571D01*
X163259571Y-135720285D01*
X163021476Y-135863142D01*
X162545285Y-135863142D01*
X165759571Y-133863142D02*
X165759571Y-135863142D01*
X164688142Y-133863142D02*
X164688142Y-135434571D01*
X164807190Y-135720285D01*
X165045285Y-135863142D01*
X165402428Y-135863142D01*
X165640523Y-135720285D01*
X165759571Y-135577428D01*
X168021476Y-135863142D02*
X168021476Y-134291714D01*
X167902428Y-134006000D01*
X167664333Y-133863142D01*
X167188142Y-133863142D01*
X166950047Y-134006000D01*
X168021476Y-135720285D02*
X167783380Y-135863142D01*
X167188142Y-135863142D01*
X166950047Y-135720285D01*
X166831000Y-135434571D01*
X166831000Y-135148857D01*
X166950047Y-134863142D01*
X167188142Y-134720285D01*
X167783380Y-134720285D01*
X168021476Y-134577428D01*
X169569095Y-135863142D02*
X169331000Y-135720285D01*
X169211952Y-135434571D01*
X169211952Y-132863142D01*
X170521476Y-135863142D02*
X170521476Y-133863142D01*
X170521476Y-132863142D02*
X170402428Y-133006000D01*
X170521476Y-133148857D01*
X170640523Y-133006000D01*
X170521476Y-132863142D01*
X170521476Y-133148857D01*
X171354809Y-133863142D02*
X172307190Y-133863142D01*
X171711952Y-132863142D02*
X171711952Y-135434571D01*
X171831000Y-135720285D01*
X172069095Y-135863142D01*
X172307190Y-135863142D01*
X172902428Y-133863142D02*
X173497666Y-135863142D01*
X174092904Y-133863142D02*
X173497666Y-135863142D01*
X173259571Y-136577428D01*
X173140523Y-136720285D01*
X172902428Y-136863142D01*
X176831000Y-135720285D02*
X177188142Y-135863142D01*
X177783380Y-135863142D01*
X178021476Y-135720285D01*
X178140523Y-135577428D01*
X178259571Y-135291714D01*
X178259571Y-135006000D01*
X178140523Y-134720285D01*
X178021476Y-134577428D01*
X177783380Y-134434571D01*
X177307190Y-134291714D01*
X177069095Y-134148857D01*
X176950047Y-134006000D01*
X176831000Y-133720285D01*
X176831000Y-133434571D01*
X176950047Y-133148857D01*
X177069095Y-133006000D01*
X177307190Y-132863142D01*
X177902428Y-132863142D01*
X178259571Y-133006000D01*
X180283380Y-135720285D02*
X180045285Y-135863142D01*
X179569095Y-135863142D01*
X179331000Y-135720285D01*
X179211952Y-135434571D01*
X179211952Y-134291714D01*
X179331000Y-134006000D01*
X179569095Y-133863142D01*
X180045285Y-133863142D01*
X180283380Y-134006000D01*
X180402428Y-134291714D01*
X180402428Y-134577428D01*
X179211952Y-134863142D01*
X181473857Y-133863142D02*
X181473857Y-135863142D01*
X181473857Y-134148857D02*
X181592904Y-134006000D01*
X181831000Y-133863142D01*
X182188142Y-133863142D01*
X182426238Y-134006000D01*
X182545285Y-134291714D01*
X182545285Y-135863142D01*
X183616714Y-135720285D02*
X183854809Y-135863142D01*
X184331000Y-135863142D01*
X184569095Y-135720285D01*
X184688142Y-135434571D01*
X184688142Y-135291714D01*
X184569095Y-135006000D01*
X184331000Y-134863142D01*
X183973857Y-134863142D01*
X183735761Y-134720285D01*
X183616714Y-134434571D01*
X183616714Y-134291714D01*
X183735761Y-134006000D01*
X183973857Y-133863142D01*
X184331000Y-133863142D01*
X184569095Y-134006000D01*
X186116714Y-135863142D02*
X185878619Y-135720285D01*
X185759571Y-135577428D01*
X185640523Y-135291714D01*
X185640523Y-134434571D01*
X185759571Y-134148857D01*
X185878619Y-134006000D01*
X186116714Y-133863142D01*
X186473857Y-133863142D01*
X186711952Y-134006000D01*
X186831000Y-134148857D01*
X186950047Y-134434571D01*
X186950047Y-135291714D01*
X186831000Y-135577428D01*
X186711952Y-135720285D01*
X186473857Y-135863142D01*
X186116714Y-135863142D01*
X188021476Y-135863142D02*
X188021476Y-133863142D01*
X188021476Y-134434571D02*
X188140523Y-134148857D01*
X188259571Y-134006000D01*
X188497666Y-133863142D01*
X188735761Y-133863142D01*
X161711952Y-138663142D02*
X161711952Y-141091714D01*
X161592904Y-141377428D01*
X161473857Y-141520285D01*
X161235761Y-141663142D01*
X160878619Y-141663142D01*
X160640523Y-141520285D01*
X161711952Y-140520285D02*
X161473857Y-140663142D01*
X160997666Y-140663142D01*
X160759571Y-140520285D01*
X160640523Y-140377428D01*
X160521476Y-140091714D01*
X160521476Y-139234571D01*
X160640523Y-138948857D01*
X160759571Y-138806000D01*
X160997666Y-138663142D01*
X161473857Y-138663142D01*
X161711952Y-138806000D01*
X162902428Y-140663142D02*
X162902428Y-138663142D01*
X162902428Y-137663142D02*
X162783380Y-137806000D01*
X162902428Y-137948857D01*
X163021476Y-137806000D01*
X162902428Y-137663142D01*
X162902428Y-137948857D01*
X163735761Y-138663142D02*
X164688142Y-138663142D01*
X164092904Y-137663142D02*
X164092904Y-140234571D01*
X164211952Y-140520285D01*
X164450047Y-140663142D01*
X164688142Y-140663142D01*
X165521476Y-140377428D02*
X165640523Y-140520285D01*
X165521476Y-140663142D01*
X165402428Y-140520285D01*
X165521476Y-140377428D01*
X165521476Y-140663142D01*
X166711952Y-140663142D02*
X166711952Y-138663142D01*
X166711952Y-137663142D02*
X166592904Y-137806000D01*
X166711952Y-137948857D01*
X166831000Y-137806000D01*
X166711952Y-137663142D01*
X166711952Y-137948857D01*
X168259571Y-140663142D02*
X168021476Y-140520285D01*
X167902428Y-140377428D01*
X167783380Y-140091714D01*
X167783380Y-139234571D01*
X167902428Y-138948857D01*
X168021476Y-138806000D01*
X168259571Y-138663142D01*
X168616714Y-138663142D01*
X168854809Y-138806000D01*
X168973857Y-138948857D01*
X169092904Y-139234571D01*
X169092904Y-140091714D01*
X168973857Y-140377428D01*
X168854809Y-140520285D01*
X168616714Y-140663142D01*
X168259571Y-140663142D01*
X171950047Y-137520285D02*
X169807190Y-141377428D01*
X173497666Y-137663142D02*
X173497666Y-139806000D01*
X173378619Y-140234571D01*
X173140523Y-140520285D01*
X172783380Y-140663142D01*
X172545285Y-140663142D01*
X174688142Y-137663142D02*
X174688142Y-140091714D01*
X174807190Y-140377428D01*
X174926238Y-140520285D01*
X175164333Y-140663142D01*
X175640523Y-140663142D01*
X175878619Y-140520285D01*
X175997666Y-140377428D01*
X176116714Y-140091714D01*
X176116714Y-137663142D01*
X177307190Y-140663142D02*
X177307190Y-137663142D01*
X178259571Y-137663142D02*
X178854809Y-140663142D01*
X179331000Y-138520285D01*
X179807190Y-140663142D01*
X180402428Y-137663142D01*
X181354809Y-140663142D02*
X181354809Y-137663142D01*
X182188142Y-139806000D01*
X183021476Y-137663142D01*
X183021476Y-140663142D01*
D11*
X170429395Y-128916180D02*
X170429395Y-129725704D01*
X170477014Y-129820942D01*
X170524633Y-129868561D01*
X170619871Y-129916180D01*
X170810347Y-129916180D01*
X170905585Y-129868561D01*
X170953204Y-129820942D01*
X171000823Y-129725704D01*
X171000823Y-128916180D01*
X171429395Y-129868561D02*
X171572252Y-129916180D01*
X171810347Y-129916180D01*
X171905585Y-129868561D01*
X171953204Y-129820942D01*
X172000823Y-129725704D01*
X172000823Y-129630466D01*
X171953204Y-129535228D01*
X171905585Y-129487609D01*
X171810347Y-129439990D01*
X171619871Y-129392371D01*
X171524633Y-129344752D01*
X171477014Y-129297133D01*
X171429395Y-129201895D01*
X171429395Y-129106657D01*
X171477014Y-129011419D01*
X171524633Y-128963800D01*
X171619871Y-128916180D01*
X171857966Y-128916180D01*
X172000823Y-128963800D01*
X172762728Y-129392371D02*
X172905585Y-129439990D01*
X172953204Y-129487609D01*
X173000823Y-129582847D01*
X173000823Y-129725704D01*
X172953204Y-129820942D01*
X172905585Y-129868561D01*
X172810347Y-129916180D01*
X172429395Y-129916180D01*
X172429395Y-128916180D01*
X172762728Y-128916180D01*
X172857966Y-128963800D01*
X172905585Y-129011419D01*
X172953204Y-129106657D01*
X172953204Y-129201895D01*
X172905585Y-129297133D01*
X172857966Y-129344752D01*
X172762728Y-129392371D01*
X172429395Y-129392371D01*
X113062904Y-107934261D02*
X113062904Y-109362833D01*
X112967666Y-109648547D01*
X112777190Y-109839023D01*
X112491476Y-109934261D01*
X112301000Y-109934261D01*
X114967666Y-109934261D02*
X114015285Y-109934261D01*
X114015285Y-107934261D01*
X116777190Y-109743785D02*
X116681952Y-109839023D01*
X116396238Y-109934261D01*
X116205761Y-109934261D01*
X115920047Y-109839023D01*
X115729571Y-109648547D01*
X115634333Y-109458071D01*
X115539095Y-109077119D01*
X115539095Y-108791404D01*
X115634333Y-108410452D01*
X115729571Y-108219976D01*
X115920047Y-108029500D01*
X116205761Y-107934261D01*
X116396238Y-107934261D01*
X116681952Y-108029500D01*
X116777190Y-108124738D01*
X118205761Y-107934261D02*
X118205761Y-109362833D01*
X118110523Y-109648547D01*
X117920047Y-109839023D01*
X117634333Y-109934261D01*
X117443857Y-109934261D01*
X120110523Y-109934261D02*
X119158142Y-109934261D01*
X119158142Y-107934261D01*
X121920047Y-109743785D02*
X121824809Y-109839023D01*
X121539095Y-109934261D01*
X121348619Y-109934261D01*
X121062904Y-109839023D01*
X120872428Y-109648547D01*
X120777190Y-109458071D01*
X120681952Y-109077119D01*
X120681952Y-108791404D01*
X120777190Y-108410452D01*
X120872428Y-108219976D01*
X121062904Y-108029500D01*
X121348619Y-107934261D01*
X121539095Y-107934261D01*
X121824809Y-108029500D01*
X121920047Y-108124738D01*
X123348619Y-107934261D02*
X123348619Y-109362833D01*
X123253380Y-109648547D01*
X123062904Y-109839023D01*
X122777190Y-109934261D01*
X122586714Y-109934261D01*
X125253380Y-109934261D02*
X124301000Y-109934261D01*
X124301000Y-107934261D01*
X127062904Y-109743785D02*
X126967666Y-109839023D01*
X126681952Y-109934261D01*
X126491476Y-109934261D01*
X126205761Y-109839023D01*
X126015285Y-109648547D01*
X125920047Y-109458071D01*
X125824809Y-109077119D01*
X125824809Y-108791404D01*
X125920047Y-108410452D01*
X126015285Y-108219976D01*
X126205761Y-108029500D01*
X126491476Y-107934261D01*
X126681952Y-107934261D01*
X126967666Y-108029500D01*
X127062904Y-108124738D01*
X128491476Y-107934261D02*
X128491476Y-109362833D01*
X128396238Y-109648547D01*
X128205761Y-109839023D01*
X127920047Y-109934261D01*
X127729571Y-109934261D01*
X130396238Y-109934261D02*
X129443857Y-109934261D01*
X129443857Y-107934261D01*
X132205761Y-109743785D02*
X132110523Y-109839023D01*
X131824809Y-109934261D01*
X131634333Y-109934261D01*
X131348619Y-109839023D01*
X131158142Y-109648547D01*
X131062904Y-109458071D01*
X130967666Y-109077119D01*
X130967666Y-108791404D01*
X131062904Y-108410452D01*
X131158142Y-108219976D01*
X131348619Y-108029500D01*
X131634333Y-107934261D01*
X131824809Y-107934261D01*
X132110523Y-108029500D01*
X132205761Y-108124738D01*
X120355528Y-99012261D02*
X120355528Y-97012261D01*
X121117433Y-97012261D01*
X121307909Y-97107500D01*
X121403147Y-97202738D01*
X121498385Y-97393214D01*
X121498385Y-97678928D01*
X121403147Y-97869404D01*
X121307909Y-97964642D01*
X121117433Y-98059880D01*
X120355528Y-98059880D01*
X122355528Y-99012261D02*
X122355528Y-97012261D01*
X123022195Y-98440833D01*
X123688861Y-97012261D01*
X123688861Y-99012261D01*
X124546004Y-98917023D02*
X124831719Y-99012261D01*
X125307909Y-99012261D01*
X125498385Y-98917023D01*
X125593623Y-98821785D01*
X125688861Y-98631309D01*
X125688861Y-98440833D01*
X125593623Y-98250357D01*
X125498385Y-98155119D01*
X125307909Y-98059880D01*
X124926957Y-97964642D01*
X124736480Y-97869404D01*
X124641242Y-97774166D01*
X124546004Y-97583690D01*
X124546004Y-97393214D01*
X124641242Y-97202738D01*
X124736480Y-97107500D01*
X124926957Y-97012261D01*
X125403147Y-97012261D01*
X125688861Y-97107500D01*
X126355528Y-97012261D02*
X127688861Y-97012261D01*
X126831719Y-99012261D01*
X128831719Y-97012261D02*
X129022195Y-97012261D01*
X129212671Y-97107500D01*
X129307909Y-97202738D01*
X129403147Y-97393214D01*
X129498385Y-97774166D01*
X129498385Y-98250357D01*
X129403147Y-98631309D01*
X129307909Y-98821785D01*
X129212671Y-98917023D01*
X129022195Y-99012261D01*
X128831719Y-99012261D01*
X128641242Y-98917023D01*
X128546004Y-98821785D01*
X128450766Y-98631309D01*
X128355528Y-98250357D01*
X128355528Y-97774166D01*
X128450766Y-97393214D01*
X128546004Y-97202738D01*
X128641242Y-97107500D01*
X128831719Y-97012261D01*
X130736480Y-97012261D02*
X130926957Y-97012261D01*
X131117433Y-97107500D01*
X131212671Y-97202738D01*
X131307909Y-97393214D01*
X131403147Y-97774166D01*
X131403147Y-98250357D01*
X131307909Y-98631309D01*
X131212671Y-98821785D01*
X131117433Y-98917023D01*
X130926957Y-99012261D01*
X130736480Y-99012261D01*
X130546004Y-98917023D01*
X130450766Y-98821785D01*
X130355528Y-98631309D01*
X130260290Y-98250357D01*
X130260290Y-97774166D01*
X130355528Y-97393214D01*
X130450766Y-97202738D01*
X130546004Y-97107500D01*
X130736480Y-97012261D01*
X132069814Y-97012261D02*
X133307909Y-97012261D01*
X132641242Y-97774166D01*
X132926957Y-97774166D01*
X133117433Y-97869404D01*
X133212671Y-97964642D01*
X133307909Y-98155119D01*
X133307909Y-98631309D01*
X133212671Y-98821785D01*
X133117433Y-98917023D01*
X132926957Y-99012261D01*
X132355528Y-99012261D01*
X132165052Y-98917023D01*
X132069814Y-98821785D01*
X170472671Y-78933561D02*
X170472671Y-76933561D01*
X171139338Y-78362133D01*
X171806004Y-76933561D01*
X171806004Y-78933561D01*
X172758385Y-78933561D02*
X172758385Y-76933561D01*
X172758385Y-77885942D02*
X173901242Y-77885942D01*
X173901242Y-78933561D02*
X173901242Y-76933561D01*
X174663147Y-76933561D02*
X175996480Y-76933561D01*
X174663147Y-78933561D01*
X175996480Y-78933561D01*
X177806004Y-78933561D02*
X176663147Y-78933561D01*
X177234576Y-78933561D02*
X177234576Y-76933561D01*
X177044100Y-77219276D01*
X176853623Y-77409752D01*
X176663147Y-77504990D01*
X178758385Y-78933561D02*
X179139338Y-78933561D01*
X179329814Y-78838323D01*
X179425052Y-78743085D01*
X179615528Y-78457371D01*
X179710766Y-78076419D01*
X179710766Y-77314514D01*
X179615528Y-77124038D01*
X179520290Y-77028800D01*
X179329814Y-76933561D01*
X178948861Y-76933561D01*
X178758385Y-77028800D01*
X178663147Y-77124038D01*
X178567909Y-77314514D01*
X178567909Y-77790704D01*
X178663147Y-77981180D01*
X178758385Y-78076419D01*
X178948861Y-78171657D01*
X179329814Y-78171657D01*
X179520290Y-78076419D01*
X179615528Y-77981180D01*
X179710766Y-77790704D01*
X103993285Y-67433071D02*
X103993285Y-68433071D01*
X103636142Y-66861642D02*
X103279000Y-67933071D01*
X104207571Y-67933071D01*
X104779000Y-68433071D02*
X104779000Y-66933071D01*
X104921857Y-67861642D02*
X105350428Y-68433071D01*
X105350428Y-67433071D02*
X104779000Y-68004500D01*
X105850428Y-66933071D02*
X106850428Y-66933071D01*
X106207571Y-68433071D01*
X104104571Y-71481071D02*
X103247428Y-71481071D01*
X103676000Y-71481071D02*
X103676000Y-69981071D01*
X103533142Y-70195357D01*
X103390285Y-70338214D01*
X103247428Y-70409642D01*
X105033142Y-69981071D02*
X105176000Y-69981071D01*
X105318857Y-70052500D01*
X105390285Y-70123928D01*
X105461714Y-70266785D01*
X105533142Y-70552500D01*
X105533142Y-70909642D01*
X105461714Y-71195357D01*
X105390285Y-71338214D01*
X105318857Y-71409642D01*
X105176000Y-71481071D01*
X105033142Y-71481071D01*
X104890285Y-71409642D01*
X104818857Y-71338214D01*
X104747428Y-71195357D01*
X104676000Y-70909642D01*
X104676000Y-70552500D01*
X104747428Y-70266785D01*
X104818857Y-70123928D01*
X104890285Y-70052500D01*
X105033142Y-69981071D01*
X106461714Y-69981071D02*
X106604571Y-69981071D01*
X106747428Y-70052500D01*
X106818857Y-70123928D01*
X106890285Y-70266785D01*
X106961714Y-70552500D01*
X106961714Y-70909642D01*
X106890285Y-71195357D01*
X106818857Y-71338214D01*
X106747428Y-71409642D01*
X106604571Y-71481071D01*
X106461714Y-71481071D01*
X106318857Y-71409642D01*
X106247428Y-71338214D01*
X106176000Y-71195357D01*
X106104571Y-70909642D01*
X106104571Y-70552500D01*
X106176000Y-70266785D01*
X106247428Y-70123928D01*
X106318857Y-70052500D01*
X106461714Y-69981071D01*
X107604571Y-70481071D02*
X107604571Y-71481071D01*
X107604571Y-70623928D02*
X107676000Y-70552500D01*
X107818857Y-70481071D01*
X108033142Y-70481071D01*
X108176000Y-70552500D01*
X108247428Y-70695357D01*
X108247428Y-71481071D01*
X109461714Y-70695357D02*
X108961714Y-70695357D01*
X108961714Y-71481071D02*
X108961714Y-69981071D01*
X109676000Y-69981071D01*
X104295071Y-123678071D02*
X103437928Y-123678071D01*
X103866500Y-123678071D02*
X103866500Y-122178071D01*
X103723642Y-122392357D01*
X103580785Y-122535214D01*
X103437928Y-122606642D01*
X105223642Y-122178071D02*
X105366500Y-122178071D01*
X105509357Y-122249500D01*
X105580785Y-122320928D01*
X105652214Y-122463785D01*
X105723642Y-122749500D01*
X105723642Y-123106642D01*
X105652214Y-123392357D01*
X105580785Y-123535214D01*
X105509357Y-123606642D01*
X105366500Y-123678071D01*
X105223642Y-123678071D01*
X105080785Y-123606642D01*
X105009357Y-123535214D01*
X104937928Y-123392357D01*
X104866500Y-123106642D01*
X104866500Y-122749500D01*
X104937928Y-122463785D01*
X105009357Y-122320928D01*
X105080785Y-122249500D01*
X105223642Y-122178071D01*
X106652214Y-122178071D02*
X106795071Y-122178071D01*
X106937928Y-122249500D01*
X107009357Y-122320928D01*
X107080785Y-122463785D01*
X107152214Y-122749500D01*
X107152214Y-123106642D01*
X107080785Y-123392357D01*
X107009357Y-123535214D01*
X106937928Y-123606642D01*
X106795071Y-123678071D01*
X106652214Y-123678071D01*
X106509357Y-123606642D01*
X106437928Y-123535214D01*
X106366500Y-123392357D01*
X106295071Y-123106642D01*
X106295071Y-122749500D01*
X106366500Y-122463785D01*
X106437928Y-122320928D01*
X106509357Y-122249500D01*
X106652214Y-122178071D01*
X107795071Y-122678071D02*
X107795071Y-123678071D01*
X107795071Y-122820928D02*
X107866500Y-122749500D01*
X108009357Y-122678071D01*
X108223642Y-122678071D01*
X108366500Y-122749500D01*
X108437928Y-122892357D01*
X108437928Y-123678071D01*
X109652214Y-122892357D02*
X109152214Y-122892357D01*
X109152214Y-123678071D02*
X109152214Y-122178071D01*
X109866500Y-122178071D01*
X96441214Y-59606571D02*
X96441214Y-58106571D01*
X96798357Y-58106571D01*
X97012642Y-58178000D01*
X97155500Y-58320857D01*
X97226928Y-58463714D01*
X97298357Y-58749428D01*
X97298357Y-58963714D01*
X97226928Y-59249428D01*
X97155500Y-59392285D01*
X97012642Y-59535142D01*
X96798357Y-59606571D01*
X96441214Y-59606571D01*
X97869785Y-59535142D02*
X98084071Y-59606571D01*
X98441214Y-59606571D01*
X98584071Y-59535142D01*
X98655500Y-59463714D01*
X98726928Y-59320857D01*
X98726928Y-59178000D01*
X98655500Y-59035142D01*
X98584071Y-58963714D01*
X98441214Y-58892285D01*
X98155500Y-58820857D01*
X98012642Y-58749428D01*
X97941214Y-58678000D01*
X97869785Y-58535142D01*
X97869785Y-58392285D01*
X97941214Y-58249428D01*
X98012642Y-58178000D01*
X98155500Y-58106571D01*
X98512642Y-58106571D01*
X98726928Y-58178000D01*
X100155500Y-59606571D02*
X99298357Y-59606571D01*
X99726928Y-59606571D02*
X99726928Y-58106571D01*
X99584071Y-58320857D01*
X99441214Y-58463714D01*
X99298357Y-58535142D01*
X101012642Y-58749428D02*
X100869785Y-58678000D01*
X100798357Y-58606571D01*
X100726928Y-58463714D01*
X100726928Y-58392285D01*
X100798357Y-58249428D01*
X100869785Y-58178000D01*
X101012642Y-58106571D01*
X101298357Y-58106571D01*
X101441214Y-58178000D01*
X101512642Y-58249428D01*
X101584071Y-58392285D01*
X101584071Y-58463714D01*
X101512642Y-58606571D01*
X101441214Y-58678000D01*
X101298357Y-58749428D01*
X101012642Y-58749428D01*
X100869785Y-58820857D01*
X100798357Y-58892285D01*
X100726928Y-59035142D01*
X100726928Y-59320857D01*
X100798357Y-59463714D01*
X100869785Y-59535142D01*
X101012642Y-59606571D01*
X101298357Y-59606571D01*
X101441214Y-59535142D01*
X101512642Y-59463714D01*
X101584071Y-59320857D01*
X101584071Y-59035142D01*
X101512642Y-58892285D01*
X101441214Y-58820857D01*
X101298357Y-58749428D01*
X102726928Y-58820857D02*
X102941214Y-58892285D01*
X103012642Y-58963714D01*
X103084071Y-59106571D01*
X103084071Y-59320857D01*
X103012642Y-59463714D01*
X102941214Y-59535142D01*
X102798357Y-59606571D01*
X102226928Y-59606571D01*
X102226928Y-58106571D01*
X102726928Y-58106571D01*
X102869785Y-58178000D01*
X102941214Y-58249428D01*
X103012642Y-58392285D01*
X103012642Y-58535142D01*
X102941214Y-58678000D01*
X102869785Y-58749428D01*
X102726928Y-58820857D01*
X102226928Y-58820857D01*
X103655500Y-58249428D02*
X103726928Y-58178000D01*
X103869785Y-58106571D01*
X104226928Y-58106571D01*
X104369785Y-58178000D01*
X104441214Y-58249428D01*
X104512642Y-58392285D01*
X104512642Y-58535142D01*
X104441214Y-58749428D01*
X103584071Y-59606571D01*
X104512642Y-59606571D01*
X105441214Y-58106571D02*
X105584071Y-58106571D01*
X105726928Y-58178000D01*
X105798357Y-58249428D01*
X105869785Y-58392285D01*
X105941214Y-58678000D01*
X105941214Y-59035142D01*
X105869785Y-59320857D01*
X105798357Y-59463714D01*
X105726928Y-59535142D01*
X105584071Y-59606571D01*
X105441214Y-59606571D01*
X105298357Y-59535142D01*
X105226928Y-59463714D01*
X105155500Y-59320857D01*
X105084071Y-59035142D01*
X105084071Y-58678000D01*
X105155500Y-58392285D01*
X105226928Y-58249428D01*
X105298357Y-58178000D01*
X105441214Y-58106571D01*
X103489714Y-118915571D02*
X103489714Y-117415571D01*
X103846857Y-117415571D01*
X104061142Y-117487000D01*
X104204000Y-117629857D01*
X104275428Y-117772714D01*
X104346857Y-118058428D01*
X104346857Y-118272714D01*
X104275428Y-118558428D01*
X104204000Y-118701285D01*
X104061142Y-118844142D01*
X103846857Y-118915571D01*
X103489714Y-118915571D01*
X104918285Y-118844142D02*
X105132571Y-118915571D01*
X105489714Y-118915571D01*
X105632571Y-118844142D01*
X105704000Y-118772714D01*
X105775428Y-118629857D01*
X105775428Y-118487000D01*
X105704000Y-118344142D01*
X105632571Y-118272714D01*
X105489714Y-118201285D01*
X105204000Y-118129857D01*
X105061142Y-118058428D01*
X104989714Y-117987000D01*
X104918285Y-117844142D01*
X104918285Y-117701285D01*
X104989714Y-117558428D01*
X105061142Y-117487000D01*
X105204000Y-117415571D01*
X105561142Y-117415571D01*
X105775428Y-117487000D01*
X107204000Y-118915571D02*
X106346857Y-118915571D01*
X106775428Y-118915571D02*
X106775428Y-117415571D01*
X106632571Y-117629857D01*
X106489714Y-117772714D01*
X106346857Y-117844142D01*
X108061142Y-118058428D02*
X107918285Y-117987000D01*
X107846857Y-117915571D01*
X107775428Y-117772714D01*
X107775428Y-117701285D01*
X107846857Y-117558428D01*
X107918285Y-117487000D01*
X108061142Y-117415571D01*
X108346857Y-117415571D01*
X108489714Y-117487000D01*
X108561142Y-117558428D01*
X108632571Y-117701285D01*
X108632571Y-117772714D01*
X108561142Y-117915571D01*
X108489714Y-117987000D01*
X108346857Y-118058428D01*
X108061142Y-118058428D01*
X107918285Y-118129857D01*
X107846857Y-118201285D01*
X107775428Y-118344142D01*
X107775428Y-118629857D01*
X107846857Y-118772714D01*
X107918285Y-118844142D01*
X108061142Y-118915571D01*
X108346857Y-118915571D01*
X108489714Y-118844142D01*
X108561142Y-118772714D01*
X108632571Y-118629857D01*
X108632571Y-118344142D01*
X108561142Y-118201285D01*
X108489714Y-118129857D01*
X108346857Y-118058428D01*
X109775428Y-118129857D02*
X109989714Y-118201285D01*
X110061142Y-118272714D01*
X110132571Y-118415571D01*
X110132571Y-118629857D01*
X110061142Y-118772714D01*
X109989714Y-118844142D01*
X109846857Y-118915571D01*
X109275428Y-118915571D01*
X109275428Y-117415571D01*
X109775428Y-117415571D01*
X109918285Y-117487000D01*
X109989714Y-117558428D01*
X110061142Y-117701285D01*
X110061142Y-117844142D01*
X109989714Y-117987000D01*
X109918285Y-118058428D01*
X109775428Y-118129857D01*
X109275428Y-118129857D01*
X110704000Y-117558428D02*
X110775428Y-117487000D01*
X110918285Y-117415571D01*
X111275428Y-117415571D01*
X111418285Y-117487000D01*
X111489714Y-117558428D01*
X111561142Y-117701285D01*
X111561142Y-117844142D01*
X111489714Y-118058428D01*
X110632571Y-118915571D01*
X111561142Y-118915571D01*
X112489714Y-117415571D02*
X112632571Y-117415571D01*
X112775428Y-117487000D01*
X112846857Y-117558428D01*
X112918285Y-117701285D01*
X112989714Y-117987000D01*
X112989714Y-118344142D01*
X112918285Y-118629857D01*
X112846857Y-118772714D01*
X112775428Y-118844142D01*
X112632571Y-118915571D01*
X112489714Y-118915571D01*
X112346857Y-118844142D01*
X112275428Y-118772714D01*
X112204000Y-118629857D01*
X112132571Y-118344142D01*
X112132571Y-117987000D01*
X112204000Y-117701285D01*
X112275428Y-117558428D01*
X112346857Y-117487000D01*
X112489714Y-117415571D01*
X144352076Y-71232704D02*
X144256838Y-71518419D01*
X144256838Y-71994609D01*
X144352076Y-72185085D01*
X144447314Y-72280323D01*
X144637790Y-72375561D01*
X144828266Y-72375561D01*
X145018742Y-72280323D01*
X145113980Y-72185085D01*
X145209219Y-71994609D01*
X145304457Y-71613657D01*
X145399695Y-71423180D01*
X145494933Y-71327942D01*
X145685409Y-71232704D01*
X145875885Y-71232704D01*
X146066361Y-71327942D01*
X146161600Y-71423180D01*
X146256838Y-71613657D01*
X146256838Y-72089847D01*
X146161600Y-72375561D01*
X144256838Y-73232704D02*
X146256838Y-73232704D01*
X146256838Y-73708895D01*
X146161600Y-73994609D01*
X145971123Y-74185085D01*
X145780647Y-74280323D01*
X145399695Y-74375561D01*
X145113980Y-74375561D01*
X144733028Y-74280323D01*
X144542552Y-74185085D01*
X144352076Y-73994609D01*
X144256838Y-73708895D01*
X144256838Y-73232704D01*
X144828266Y-75137466D02*
X144828266Y-76089847D01*
X144256838Y-74946990D02*
X146256838Y-75613657D01*
X144256838Y-76280323D01*
X141202076Y-71327942D02*
X141106838Y-71613657D01*
X141106838Y-72089847D01*
X141202076Y-72280323D01*
X141297314Y-72375561D01*
X141487790Y-72470800D01*
X141678266Y-72470800D01*
X141868742Y-72375561D01*
X141963980Y-72280323D01*
X142059219Y-72089847D01*
X142154457Y-71708895D01*
X142249695Y-71518419D01*
X142344933Y-71423180D01*
X142535409Y-71327942D01*
X142725885Y-71327942D01*
X142916361Y-71423180D01*
X143011600Y-71518419D01*
X143106838Y-71708895D01*
X143106838Y-72185085D01*
X143011600Y-72470800D01*
X141297314Y-74470800D02*
X141202076Y-74375561D01*
X141106838Y-74089847D01*
X141106838Y-73899371D01*
X141202076Y-73613657D01*
X141392552Y-73423180D01*
X141583028Y-73327942D01*
X141963980Y-73232704D01*
X142249695Y-73232704D01*
X142630647Y-73327942D01*
X142821123Y-73423180D01*
X143011600Y-73613657D01*
X143106838Y-73899371D01*
X143106838Y-74089847D01*
X143011600Y-74375561D01*
X142916361Y-74470800D01*
X141106838Y-76280323D02*
X141106838Y-75327942D01*
X143106838Y-75327942D01*
X139861600Y-71899371D02*
X139956838Y-71708895D01*
X139956838Y-71423180D01*
X139861600Y-71137466D01*
X139671123Y-70946990D01*
X139480647Y-70851752D01*
X139099695Y-70756514D01*
X138813980Y-70756514D01*
X138433028Y-70851752D01*
X138242552Y-70946990D01*
X138052076Y-71137466D01*
X137956838Y-71423180D01*
X137956838Y-71613657D01*
X138052076Y-71899371D01*
X138147314Y-71994609D01*
X138813980Y-71994609D01*
X138813980Y-71613657D01*
X137956838Y-72851752D02*
X139956838Y-72851752D01*
X137956838Y-73994609D01*
X139956838Y-73994609D01*
X137956838Y-74946990D02*
X139956838Y-74946990D01*
X139956838Y-75423180D01*
X139861600Y-75708895D01*
X139671123Y-75899371D01*
X139480647Y-75994609D01*
X139099695Y-76089847D01*
X138813980Y-76089847D01*
X138433028Y-75994609D01*
X138242552Y-75899371D01*
X138052076Y-75708895D01*
X137956838Y-75423180D01*
X137956838Y-74946990D01*
X136806838Y-70280323D02*
X136806838Y-71518419D01*
X136044933Y-70851752D01*
X136044933Y-71137466D01*
X135949695Y-71327942D01*
X135854457Y-71423180D01*
X135663980Y-71518419D01*
X135187790Y-71518419D01*
X134997314Y-71423180D01*
X134902076Y-71327942D01*
X134806838Y-71137466D01*
X134806838Y-70566038D01*
X134902076Y-70375561D01*
X134997314Y-70280323D01*
X134997314Y-72375561D02*
X134902076Y-72470800D01*
X134806838Y-72375561D01*
X134902076Y-72280323D01*
X134997314Y-72375561D01*
X134806838Y-72375561D01*
X136806838Y-73137466D02*
X136806838Y-74375561D01*
X136044933Y-73708895D01*
X136044933Y-73994609D01*
X135949695Y-74185085D01*
X135854457Y-74280323D01*
X135663980Y-74375561D01*
X135187790Y-74375561D01*
X134997314Y-74280323D01*
X134902076Y-74185085D01*
X134806838Y-73994609D01*
X134806838Y-73423180D01*
X134902076Y-73232704D01*
X134997314Y-73137466D01*
X136806838Y-74946990D02*
X134806838Y-75613657D01*
X136806838Y-76280323D01*
X125810076Y-71105704D02*
X125714838Y-71391419D01*
X125714838Y-71867609D01*
X125810076Y-72058085D01*
X125905314Y-72153323D01*
X126095790Y-72248561D01*
X126286266Y-72248561D01*
X126476742Y-72153323D01*
X126571980Y-72058085D01*
X126667219Y-71867609D01*
X126762457Y-71486657D01*
X126857695Y-71296180D01*
X126952933Y-71200942D01*
X127143409Y-71105704D01*
X127333885Y-71105704D01*
X127524361Y-71200942D01*
X127619600Y-71296180D01*
X127714838Y-71486657D01*
X127714838Y-71962847D01*
X127619600Y-72248561D01*
X125714838Y-73105704D02*
X127714838Y-73105704D01*
X127714838Y-73581895D01*
X127619600Y-73867609D01*
X127429123Y-74058085D01*
X127238647Y-74153323D01*
X126857695Y-74248561D01*
X126571980Y-74248561D01*
X126191028Y-74153323D01*
X126000552Y-74058085D01*
X125810076Y-73867609D01*
X125714838Y-73581895D01*
X125714838Y-73105704D01*
X126286266Y-75010466D02*
X126286266Y-75962847D01*
X125714838Y-74819990D02*
X127714838Y-75486657D01*
X125714838Y-76153323D01*
X122660076Y-71200942D02*
X122564838Y-71486657D01*
X122564838Y-71962847D01*
X122660076Y-72153323D01*
X122755314Y-72248561D01*
X122945790Y-72343800D01*
X123136266Y-72343800D01*
X123326742Y-72248561D01*
X123421980Y-72153323D01*
X123517219Y-71962847D01*
X123612457Y-71581895D01*
X123707695Y-71391419D01*
X123802933Y-71296180D01*
X123993409Y-71200942D01*
X124183885Y-71200942D01*
X124374361Y-71296180D01*
X124469600Y-71391419D01*
X124564838Y-71581895D01*
X124564838Y-72058085D01*
X124469600Y-72343800D01*
X122755314Y-74343800D02*
X122660076Y-74248561D01*
X122564838Y-73962847D01*
X122564838Y-73772371D01*
X122660076Y-73486657D01*
X122850552Y-73296180D01*
X123041028Y-73200942D01*
X123421980Y-73105704D01*
X123707695Y-73105704D01*
X124088647Y-73200942D01*
X124279123Y-73296180D01*
X124469600Y-73486657D01*
X124564838Y-73772371D01*
X124564838Y-73962847D01*
X124469600Y-74248561D01*
X124374361Y-74343800D01*
X122564838Y-76153323D02*
X122564838Y-75200942D01*
X124564838Y-75200942D01*
X121319600Y-71772371D02*
X121414838Y-71581895D01*
X121414838Y-71296180D01*
X121319600Y-71010466D01*
X121129123Y-70819990D01*
X120938647Y-70724752D01*
X120557695Y-70629514D01*
X120271980Y-70629514D01*
X119891028Y-70724752D01*
X119700552Y-70819990D01*
X119510076Y-71010466D01*
X119414838Y-71296180D01*
X119414838Y-71486657D01*
X119510076Y-71772371D01*
X119605314Y-71867609D01*
X120271980Y-71867609D01*
X120271980Y-71486657D01*
X119414838Y-72724752D02*
X121414838Y-72724752D01*
X119414838Y-73867609D01*
X121414838Y-73867609D01*
X119414838Y-74819990D02*
X121414838Y-74819990D01*
X121414838Y-75296180D01*
X121319600Y-75581895D01*
X121129123Y-75772371D01*
X120938647Y-75867609D01*
X120557695Y-75962847D01*
X120271980Y-75962847D01*
X119891028Y-75867609D01*
X119700552Y-75772371D01*
X119510076Y-75581895D01*
X119414838Y-75296180D01*
X119414838Y-74819990D01*
X118264838Y-70153323D02*
X118264838Y-71391419D01*
X117502933Y-70724752D01*
X117502933Y-71010466D01*
X117407695Y-71200942D01*
X117312457Y-71296180D01*
X117121980Y-71391419D01*
X116645790Y-71391419D01*
X116455314Y-71296180D01*
X116360076Y-71200942D01*
X116264838Y-71010466D01*
X116264838Y-70439038D01*
X116360076Y-70248561D01*
X116455314Y-70153323D01*
X116455314Y-72248561D02*
X116360076Y-72343800D01*
X116264838Y-72248561D01*
X116360076Y-72153323D01*
X116455314Y-72248561D01*
X116264838Y-72248561D01*
X118264838Y-73010466D02*
X118264838Y-74248561D01*
X117502933Y-73581895D01*
X117502933Y-73867609D01*
X117407695Y-74058085D01*
X117312457Y-74153323D01*
X117121980Y-74248561D01*
X116645790Y-74248561D01*
X116455314Y-74153323D01*
X116360076Y-74058085D01*
X116264838Y-73867609D01*
X116264838Y-73296180D01*
X116360076Y-73105704D01*
X116455314Y-73010466D01*
X118264838Y-74819990D02*
X116264838Y-75486657D01*
X118264838Y-76153323D01*
X118544500Y-141955928D02*
X118449261Y-142146404D01*
X118449261Y-142432119D01*
X118544500Y-142717833D01*
X118734976Y-142908309D01*
X118925452Y-143003547D01*
X119306404Y-143098785D01*
X119592119Y-143098785D01*
X119973071Y-143003547D01*
X120163547Y-142908309D01*
X120354023Y-142717833D01*
X120449261Y-142432119D01*
X120449261Y-142241642D01*
X120354023Y-141955928D01*
X120258785Y-141860690D01*
X119592119Y-141860690D01*
X119592119Y-142241642D01*
X120449261Y-141003547D02*
X118449261Y-141003547D01*
X120449261Y-139860690D01*
X118449261Y-139860690D01*
X120449261Y-138908309D02*
X118449261Y-138908309D01*
X118449261Y-138432119D01*
X118544500Y-138146404D01*
X118734976Y-137955928D01*
X118925452Y-137860690D01*
X119306404Y-137765452D01*
X119592119Y-137765452D01*
X119973071Y-137860690D01*
X120163547Y-137955928D01*
X120354023Y-138146404D01*
X120449261Y-138432119D01*
X120449261Y-138908309D01*
X121599261Y-143574976D02*
X121599261Y-142336880D01*
X122361166Y-143003547D01*
X122361166Y-142717833D01*
X122456404Y-142527357D01*
X122551642Y-142432119D01*
X122742119Y-142336880D01*
X123218309Y-142336880D01*
X123408785Y-142432119D01*
X123504023Y-142527357D01*
X123599261Y-142717833D01*
X123599261Y-143289261D01*
X123504023Y-143479738D01*
X123408785Y-143574976D01*
X123408785Y-141479738D02*
X123504023Y-141384500D01*
X123599261Y-141479738D01*
X123504023Y-141574976D01*
X123408785Y-141479738D01*
X123599261Y-141479738D01*
X121599261Y-140717833D02*
X121599261Y-139479738D01*
X122361166Y-140146404D01*
X122361166Y-139860690D01*
X122456404Y-139670214D01*
X122551642Y-139574976D01*
X122742119Y-139479738D01*
X123218309Y-139479738D01*
X123408785Y-139574976D01*
X123504023Y-139670214D01*
X123599261Y-139860690D01*
X123599261Y-140432119D01*
X123504023Y-140622595D01*
X123408785Y-140717833D01*
X121599261Y-138908309D02*
X123599261Y-138241642D01*
X121599261Y-137574976D01*
X126654023Y-142622595D02*
X126749261Y-142336880D01*
X126749261Y-141860690D01*
X126654023Y-141670214D01*
X126558785Y-141574976D01*
X126368309Y-141479738D01*
X126177833Y-141479738D01*
X125987357Y-141574976D01*
X125892119Y-141670214D01*
X125796880Y-141860690D01*
X125701642Y-142241642D01*
X125606404Y-142432119D01*
X125511166Y-142527357D01*
X125320690Y-142622595D01*
X125130214Y-142622595D01*
X124939738Y-142527357D01*
X124844500Y-142432119D01*
X124749261Y-142241642D01*
X124749261Y-141765452D01*
X124844500Y-141479738D01*
X126749261Y-140622595D02*
X124749261Y-140622595D01*
X124749261Y-140146404D01*
X124844500Y-139860690D01*
X125034976Y-139670214D01*
X125225452Y-139574976D01*
X125606404Y-139479738D01*
X125892119Y-139479738D01*
X126273071Y-139574976D01*
X126463547Y-139670214D01*
X126654023Y-139860690D01*
X126749261Y-140146404D01*
X126749261Y-140622595D01*
X126177833Y-138717833D02*
X126177833Y-137765452D01*
X126749261Y-138908309D02*
X124749261Y-138241642D01*
X126749261Y-137574976D01*
X129804023Y-142527357D02*
X129899261Y-142241642D01*
X129899261Y-141765452D01*
X129804023Y-141574976D01*
X129708785Y-141479738D01*
X129518309Y-141384500D01*
X129327833Y-141384500D01*
X129137357Y-141479738D01*
X129042119Y-141574976D01*
X128946880Y-141765452D01*
X128851642Y-142146404D01*
X128756404Y-142336880D01*
X128661166Y-142432119D01*
X128470690Y-142527357D01*
X128280214Y-142527357D01*
X128089738Y-142432119D01*
X127994500Y-142336880D01*
X127899261Y-142146404D01*
X127899261Y-141670214D01*
X127994500Y-141384500D01*
X129708785Y-139384500D02*
X129804023Y-139479738D01*
X129899261Y-139765452D01*
X129899261Y-139955928D01*
X129804023Y-140241642D01*
X129613547Y-140432119D01*
X129423071Y-140527357D01*
X129042119Y-140622595D01*
X128756404Y-140622595D01*
X128375452Y-140527357D01*
X128184976Y-140432119D01*
X127994500Y-140241642D01*
X127899261Y-139955928D01*
X127899261Y-139765452D01*
X127994500Y-139479738D01*
X128089738Y-139384500D01*
X129899261Y-137574976D02*
X129899261Y-138527357D01*
X127899261Y-138527357D01*
X108886952Y-137049000D02*
X108696476Y-136953761D01*
X108410761Y-136953761D01*
X108125047Y-137049000D01*
X107934571Y-137239476D01*
X107839333Y-137429952D01*
X107744095Y-137810904D01*
X107744095Y-138096619D01*
X107839333Y-138477571D01*
X107934571Y-138668047D01*
X108125047Y-138858523D01*
X108410761Y-138953761D01*
X108601238Y-138953761D01*
X108886952Y-138858523D01*
X108982190Y-138763285D01*
X108982190Y-138096619D01*
X108601238Y-138096619D01*
X109839333Y-138953761D02*
X109839333Y-137620428D01*
X109839333Y-138001380D02*
X109934571Y-137810904D01*
X110029809Y-137715666D01*
X110220285Y-137620428D01*
X110410761Y-137620428D01*
X111363142Y-138953761D02*
X111172666Y-138858523D01*
X111077428Y-138763285D01*
X110982190Y-138572809D01*
X110982190Y-138001380D01*
X111077428Y-137810904D01*
X111172666Y-137715666D01*
X111363142Y-137620428D01*
X111648857Y-137620428D01*
X111839333Y-137715666D01*
X111934571Y-137810904D01*
X112029809Y-138001380D01*
X112029809Y-138572809D01*
X111934571Y-138763285D01*
X111839333Y-138858523D01*
X111648857Y-138953761D01*
X111363142Y-138953761D01*
X112696476Y-137620428D02*
X113172666Y-138953761D01*
X113648857Y-137620428D01*
X115172666Y-138858523D02*
X114982190Y-138953761D01*
X114601238Y-138953761D01*
X114410761Y-138858523D01*
X114315523Y-138668047D01*
X114315523Y-137906142D01*
X114410761Y-137715666D01*
X114601238Y-137620428D01*
X114982190Y-137620428D01*
X115172666Y-137715666D01*
X115267904Y-137906142D01*
X115267904Y-138096619D01*
X114315523Y-138287095D01*
X167202385Y-110423142D02*
X167869052Y-110423142D01*
X168154766Y-111470761D02*
X167202385Y-111470761D01*
X167202385Y-109470761D01*
X168154766Y-109470761D01*
X168916671Y-111375523D02*
X169202385Y-111470761D01*
X169678576Y-111470761D01*
X169869052Y-111375523D01*
X169964290Y-111280285D01*
X170059528Y-111089809D01*
X170059528Y-110899333D01*
X169964290Y-110708857D01*
X169869052Y-110613619D01*
X169678576Y-110518380D01*
X169297623Y-110423142D01*
X169107147Y-110327904D01*
X169011909Y-110232666D01*
X168916671Y-110042190D01*
X168916671Y-109851714D01*
X169011909Y-109661238D01*
X169107147Y-109566000D01*
X169297623Y-109470761D01*
X169773814Y-109470761D01*
X170059528Y-109566000D01*
X170916671Y-111470761D02*
X170916671Y-109470761D01*
X171678576Y-109470761D01*
X171869052Y-109566000D01*
X171964290Y-109661238D01*
X172059528Y-109851714D01*
X172059528Y-110137428D01*
X171964290Y-110327904D01*
X171869052Y-110423142D01*
X171678576Y-110518380D01*
X170916671Y-110518380D01*
X172726195Y-109470761D02*
X173964290Y-109470761D01*
X173297623Y-110232666D01*
X173583338Y-110232666D01*
X173773814Y-110327904D01*
X173869052Y-110423142D01*
X173964290Y-110613619D01*
X173964290Y-111089809D01*
X173869052Y-111280285D01*
X173773814Y-111375523D01*
X173583338Y-111470761D01*
X173011909Y-111470761D01*
X172821433Y-111375523D01*
X172726195Y-111280285D01*
X174726195Y-109661238D02*
X174821433Y-109566000D01*
X175011909Y-109470761D01*
X175488100Y-109470761D01*
X175678576Y-109566000D01*
X175773814Y-109661238D01*
X175869052Y-109851714D01*
X175869052Y-110042190D01*
X175773814Y-110327904D01*
X174630957Y-111470761D01*
X175869052Y-111470761D01*
X166059528Y-114620761D02*
X166059528Y-112620761D01*
X166535719Y-112620761D01*
X166821433Y-112716000D01*
X167011909Y-112906476D01*
X167107147Y-113096952D01*
X167202385Y-113477904D01*
X167202385Y-113763619D01*
X167107147Y-114144571D01*
X167011909Y-114335047D01*
X166821433Y-114525523D01*
X166535719Y-114620761D01*
X166059528Y-114620761D01*
X169107147Y-114620761D02*
X167964290Y-114620761D01*
X168535719Y-114620761D02*
X168535719Y-112620761D01*
X168345242Y-112906476D01*
X168154766Y-113096952D01*
X167964290Y-113192190D01*
X171488100Y-114620761D02*
X171488100Y-113287428D01*
X171488100Y-113477904D02*
X171583338Y-113382666D01*
X171773814Y-113287428D01*
X172059528Y-113287428D01*
X172250004Y-113382666D01*
X172345242Y-113573142D01*
X172345242Y-114620761D01*
X172345242Y-113573142D02*
X172440480Y-113382666D01*
X172630957Y-113287428D01*
X172916671Y-113287428D01*
X173107147Y-113382666D01*
X173202385Y-113573142D01*
X173202385Y-114620761D01*
X174154766Y-114620761D02*
X174154766Y-113287428D01*
X174154766Y-112620761D02*
X174059528Y-112716000D01*
X174154766Y-112811238D01*
X174250004Y-112716000D01*
X174154766Y-112620761D01*
X174154766Y-112811238D01*
X175107147Y-113287428D02*
X175107147Y-114620761D01*
X175107147Y-113477904D02*
X175202385Y-113382666D01*
X175392861Y-113287428D01*
X175678576Y-113287428D01*
X175869052Y-113382666D01*
X175964290Y-113573142D01*
X175964290Y-114620761D01*
X176916671Y-114620761D02*
X176916671Y-113287428D01*
X176916671Y-112620761D02*
X176821433Y-112716000D01*
X176916671Y-112811238D01*
X177011909Y-112716000D01*
X176916671Y-112620761D01*
X176916671Y-112811238D01*
D13*
%TO.C,U1*%
X103125500Y-124261000D02*
X103125500Y-77161000D01*
X139825500Y-124261000D02*
X103125500Y-124261000D01*
X139825500Y-77161000D02*
X139825500Y-124261000D01*
X103125500Y-77161000D02*
X139825500Y-77161000D01*
X115975500Y-86011000D02*
X115975500Y-80011000D01*
X105975500Y-86011000D02*
X115975500Y-86011000D01*
X105975500Y-80011000D02*
X105975500Y-86011000D01*
X115975500Y-80011000D02*
X105975500Y-80011000D01*
D14*
%TO.C,J22*%
X187836500Y-119579700D02*
X190496500Y-119579700D01*
X187836500Y-119519700D02*
X187836500Y-119579700D01*
X190496500Y-119519700D02*
X190496500Y-119579700D01*
X187836500Y-119519700D02*
X190496500Y-119519700D01*
X187836500Y-118249700D02*
X187836500Y-116919700D01*
X187836500Y-116919700D02*
X189166500Y-116919700D01*
%TO.C,J25*%
X144339000Y-110423000D02*
X146999000Y-110423000D01*
X144339000Y-110363000D02*
X144339000Y-110423000D01*
X146999000Y-110363000D02*
X146999000Y-110423000D01*
X144339000Y-110363000D02*
X146999000Y-110363000D01*
X144339000Y-109093000D02*
X144339000Y-107763000D01*
X144339000Y-107763000D02*
X145669000Y-107763000D01*
%TO.C,R3*%
X145407748Y-87618500D02*
X145930252Y-87618500D01*
X145407748Y-89038500D02*
X145930252Y-89038500D01*
%TO.C,R1*%
X145930252Y-79386500D02*
X145407748Y-79386500D01*
X145930252Y-77966500D02*
X145407748Y-77966500D01*
%TO.C,Q1*%
X144089000Y-84088000D02*
X145019000Y-84088000D01*
X147249000Y-84088000D02*
X146319000Y-84088000D01*
X147249000Y-84088000D02*
X147249000Y-81928000D01*
X144089000Y-84088000D02*
X144089000Y-82628000D01*
%TO.C,D1*%
X142919000Y-100487500D02*
X142919000Y-93187500D01*
X148419000Y-100487500D02*
X148419000Y-93187500D01*
X148419000Y-93187500D02*
X147269000Y-93187500D01*
%TO.C,C1*%
X145407748Y-102477500D02*
X145930252Y-102477500D01*
X145407748Y-103897500D02*
X145930252Y-103897500D01*
%TO.C,J4*%
X187836500Y-117039700D02*
X190496500Y-117039700D01*
X187836500Y-116979700D02*
X187836500Y-117039700D01*
X190496500Y-116979700D02*
X190496500Y-117039700D01*
X187836500Y-116979700D02*
X190496500Y-116979700D01*
X187836500Y-115709700D02*
X187836500Y-114379700D01*
X187836500Y-114379700D02*
X189166500Y-114379700D01*
%TO.C,J3*%
X187836500Y-114499700D02*
X190496500Y-114499700D01*
X187836500Y-114439700D02*
X187836500Y-114499700D01*
X190496500Y-114439700D02*
X190496500Y-114499700D01*
X187836500Y-114439700D02*
X190496500Y-114439700D01*
X187836500Y-113169700D02*
X187836500Y-111839700D01*
X187836500Y-111839700D02*
X189166500Y-111839700D01*
%TO.C,J23*%
X135360100Y-64249300D02*
X135360100Y-62919300D01*
X135360100Y-62919300D02*
X136690100Y-62919300D01*
X137960100Y-62919300D02*
X145640100Y-62919300D01*
X145640100Y-65579300D02*
X145640100Y-62919300D01*
X137960100Y-65579300D02*
X145640100Y-65579300D01*
X137960100Y-65579300D02*
X137960100Y-62919300D01*
%TO.C,J24*%
X116691100Y-64249300D02*
X116691100Y-62919300D01*
X116691100Y-62919300D02*
X118021100Y-62919300D01*
X119291100Y-62919300D02*
X126971100Y-62919300D01*
X126971100Y-65579300D02*
X126971100Y-62919300D01*
X119291100Y-65579300D02*
X126971100Y-65579300D01*
X119291100Y-65579300D02*
X119291100Y-62919300D01*
%TO.C,SW1*%
X144419000Y-132669700D02*
X146919000Y-132669700D01*
X142919000Y-134419700D02*
X142919000Y-136419700D01*
X144419000Y-138169700D02*
X146919000Y-138169700D01*
X148419000Y-134419700D02*
X148419000Y-136419700D01*
X143969000Y-133119700D02*
X144419000Y-132669700D01*
X147369000Y-133119700D02*
X146919000Y-132669700D01*
X147369000Y-137719700D02*
X146919000Y-138169700D01*
X143969000Y-137719700D02*
X144419000Y-138169700D01*
%TO.C,R2*%
X145407748Y-129754700D02*
X145930252Y-129754700D01*
X145407748Y-128334700D02*
X145930252Y-128334700D01*
%TO.C,J16*%
X187836500Y-119459700D02*
X189166500Y-119459700D01*
X187836500Y-120789700D02*
X187836500Y-119459700D01*
X187836500Y-122059700D02*
X190496500Y-122059700D01*
X190496500Y-122059700D02*
X190496500Y-122119700D01*
X187836500Y-122059700D02*
X187836500Y-122119700D01*
X187836500Y-122119700D02*
X190496500Y-122119700D01*
%TO.C,J13*%
X187836500Y-121999700D02*
X189166500Y-121999700D01*
X187836500Y-123329700D02*
X187836500Y-121999700D01*
X187836500Y-124599700D02*
X190496500Y-124599700D01*
X190496500Y-124599700D02*
X190496500Y-124659700D01*
X187836500Y-124599700D02*
X187836500Y-124659700D01*
X187836500Y-124659700D02*
X190496500Y-124659700D01*
%TO.C,J11*%
X151552600Y-114379700D02*
X152882600Y-114379700D01*
X151552600Y-115709700D02*
X151552600Y-114379700D01*
X151552600Y-116979700D02*
X154212600Y-116979700D01*
X154212600Y-116979700D02*
X154212600Y-117039700D01*
X151552600Y-116979700D02*
X151552600Y-117039700D01*
X151552600Y-117039700D02*
X154212600Y-117039700D01*
%TO.C,J10*%
X151552600Y-119459700D02*
X152882600Y-119459700D01*
X151552600Y-120789700D02*
X151552600Y-119459700D01*
X151552600Y-122059700D02*
X154212600Y-122059700D01*
X154212600Y-122059700D02*
X154212600Y-122119700D01*
X151552600Y-122059700D02*
X151552600Y-122119700D01*
X151552600Y-122119700D02*
X154212600Y-122119700D01*
%TO.C,J9*%
X151552600Y-111839700D02*
X152882600Y-111839700D01*
X151552600Y-113169700D02*
X151552600Y-111839700D01*
X151552600Y-114439700D02*
X154212600Y-114439700D01*
X154212600Y-114439700D02*
X154212600Y-114499700D01*
X151552600Y-114439700D02*
X151552600Y-114499700D01*
X151552600Y-114499700D02*
X154212600Y-114499700D01*
%TO.C,J8*%
X151552600Y-121999700D02*
X152882600Y-121999700D01*
X151552600Y-123329700D02*
X151552600Y-121999700D01*
X151552600Y-124599700D02*
X154212600Y-124599700D01*
X154212600Y-124599700D02*
X154212600Y-124659700D01*
X151552600Y-124599700D02*
X151552600Y-124659700D01*
X151552600Y-124659700D02*
X154212600Y-124659700D01*
%TO.C,J7*%
X151552600Y-109299700D02*
X152882600Y-109299700D01*
X151552600Y-110629700D02*
X151552600Y-109299700D01*
X151552600Y-111899700D02*
X154212600Y-111899700D01*
X154212600Y-111899700D02*
X154212600Y-111959700D01*
X151552600Y-111899700D02*
X151552600Y-111959700D01*
X151552600Y-111959700D02*
X154212600Y-111959700D01*
%TO.C,J6*%
X151552600Y-124539700D02*
X152882600Y-124539700D01*
X151552600Y-125869700D02*
X151552600Y-124539700D01*
X151552600Y-127139700D02*
X154212600Y-127139700D01*
X154212600Y-127139700D02*
X154212600Y-127199700D01*
X151552600Y-127139700D02*
X151552600Y-127199700D01*
X151552600Y-127199700D02*
X154212600Y-127199700D01*
%TO.C,J5*%
X151552600Y-116919700D02*
X152882600Y-116919700D01*
X151552600Y-118249700D02*
X151552600Y-116919700D01*
X151552600Y-119519700D02*
X154212600Y-119519700D01*
X154212600Y-119519700D02*
X154212600Y-119579700D01*
X151552600Y-119519700D02*
X151552600Y-119579700D01*
X151552600Y-119579700D02*
X154212600Y-119579700D01*
%TO.C,J2*%
X187836500Y-104219700D02*
X189166500Y-104219700D01*
X187836500Y-105549700D02*
X187836500Y-104219700D01*
X187836500Y-106819700D02*
X190496500Y-106819700D01*
X190496500Y-106819700D02*
X190496500Y-106879700D01*
X187836500Y-106819700D02*
X187836500Y-106879700D01*
X187836500Y-106879700D02*
X190496500Y-106879700D01*
%TO.C,U3*%
X96702000Y-116246500D02*
X96702000Y-119846500D01*
X96713522Y-119884978D02*
G75*
G03*
X101152000Y-118046500I1838478J1838478D01*
G01*
X96713522Y-116208022D02*
G75*
G02*
X101152000Y-118046500I1838478J-1838478D01*
G01*
%TO.C,C6*%
X98749752Y-122162500D02*
X98227248Y-122162500D01*
X98749752Y-123582500D02*
X98227248Y-123582500D01*
%TO.C,J21*%
X120386900Y-128549700D02*
X120386900Y-127334700D01*
X120446900Y-132509700D02*
X120446900Y-134769700D01*
X120946900Y-132509700D02*
X120946900Y-134769700D01*
X127546900Y-130909700D02*
X128546900Y-130909700D01*
X127546900Y-132509700D02*
X127546900Y-130909700D01*
X128546900Y-132509700D02*
X127546900Y-132509700D01*
X128546900Y-130909700D02*
X128546900Y-132509700D01*
X120946900Y-130909700D02*
X119946900Y-130909700D01*
X120946900Y-132509700D02*
X120946900Y-130909700D01*
X119946900Y-132509700D02*
X120946900Y-132509700D01*
X119946900Y-130909700D02*
X119946900Y-132509700D01*
X129306900Y-128549700D02*
X128386900Y-128549700D01*
X119186900Y-128549700D02*
X120106900Y-128549700D01*
X126746900Y-130409700D02*
X126746900Y-134769700D01*
X121746900Y-130409700D02*
X126746900Y-130409700D01*
X121746900Y-134769700D02*
X121746900Y-130409700D01*
X128386900Y-128549700D02*
X128106900Y-128549700D01*
X128386900Y-126949700D02*
X128386900Y-128549700D01*
X129306900Y-126949700D02*
X128386900Y-126949700D01*
X129306900Y-134769700D02*
X129306900Y-126949700D01*
X119186900Y-134769700D02*
X129306900Y-134769700D01*
X119186900Y-126949700D02*
X119186900Y-134769700D01*
X120106900Y-126949700D02*
X119186900Y-126949700D01*
X120106900Y-128549700D02*
X120106900Y-126949700D01*
X120386900Y-128549700D02*
X120106900Y-128549700D01*
%TO.C,J19*%
X116691100Y-67868800D02*
X116691100Y-66538800D01*
X116691100Y-66538800D02*
X118021100Y-66538800D01*
X119291100Y-66538800D02*
X126971100Y-66538800D01*
X126971100Y-69198800D02*
X126971100Y-66538800D01*
X119291100Y-69198800D02*
X126971100Y-69198800D01*
X119291100Y-69198800D02*
X119291100Y-66538800D01*
%TO.C,U2*%
X102803100Y-60468900D02*
X99203100Y-60468900D01*
X99164622Y-60480422D02*
G75*
G03*
X101003100Y-64918900I1838478J-1838478D01*
G01*
X102841578Y-60480422D02*
G75*
G02*
X101003100Y-64918900I-1838478J-1838478D01*
G01*
%TO.C,R4*%
X99818448Y-68413700D02*
X100340952Y-68413700D01*
X99818448Y-66993700D02*
X100340952Y-66993700D01*
%TO.C,C5*%
X99836448Y-71106100D02*
X100358952Y-71106100D01*
X99836448Y-69686100D02*
X100358952Y-69686100D01*
%TO.C,J18*%
X135360100Y-67932300D02*
X135360100Y-66602300D01*
X135360100Y-66602300D02*
X136690100Y-66602300D01*
X137960100Y-66602300D02*
X145640100Y-66602300D01*
X145640100Y-69262300D02*
X145640100Y-66602300D01*
X137960100Y-69262300D02*
X145640100Y-69262300D01*
X137960100Y-69262300D02*
X137960100Y-66602300D01*
%TO.C,J20*%
X108017100Y-128549700D02*
X108017100Y-127334700D01*
X108077100Y-132509700D02*
X108077100Y-134769700D01*
X108577100Y-132509700D02*
X108577100Y-134769700D01*
X115177100Y-130909700D02*
X116177100Y-130909700D01*
X115177100Y-132509700D02*
X115177100Y-130909700D01*
X116177100Y-132509700D02*
X115177100Y-132509700D01*
X116177100Y-130909700D02*
X116177100Y-132509700D01*
X108577100Y-130909700D02*
X107577100Y-130909700D01*
X108577100Y-132509700D02*
X108577100Y-130909700D01*
X107577100Y-132509700D02*
X108577100Y-132509700D01*
X107577100Y-130909700D02*
X107577100Y-132509700D01*
X116937100Y-128549700D02*
X116017100Y-128549700D01*
X106817100Y-128549700D02*
X107737100Y-128549700D01*
X114377100Y-130409700D02*
X114377100Y-134769700D01*
X109377100Y-130409700D02*
X114377100Y-130409700D01*
X109377100Y-134769700D02*
X109377100Y-130409700D01*
X116017100Y-128549700D02*
X115737100Y-128549700D01*
X116017100Y-126949700D02*
X116017100Y-128549700D01*
X116937100Y-126949700D02*
X116017100Y-126949700D01*
X116937100Y-134769700D02*
X116937100Y-126949700D01*
X106817100Y-134769700D02*
X116937100Y-134769700D01*
X106817100Y-126949700D02*
X106817100Y-134769700D01*
X107737100Y-126949700D02*
X106817100Y-126949700D01*
X107737100Y-128549700D02*
X107737100Y-126949700D01*
X108017100Y-128549700D02*
X107737100Y-128549700D01*
%TO.C,J12*%
X185381900Y-101679700D02*
X186711900Y-101679700D01*
X186711900Y-101679700D02*
X186711900Y-103009700D01*
X184111900Y-101679700D02*
X184111900Y-104279700D01*
X184111900Y-104279700D02*
X186711900Y-104279700D01*
X186711900Y-104279700D02*
X186711900Y-127199700D01*
X181511900Y-127199700D02*
X186711900Y-127199700D01*
X181511900Y-101679700D02*
X181511900Y-127199700D01*
X181511900Y-101679700D02*
X184111900Y-101679700D01*
%TO.C,J1*%
X159981900Y-101679700D02*
X161311900Y-101679700D01*
X161311900Y-101679700D02*
X161311900Y-103009700D01*
X158711900Y-101679700D02*
X158711900Y-104279700D01*
X158711900Y-104279700D02*
X161311900Y-104279700D01*
X161311900Y-104279700D02*
X161311900Y-127199700D01*
X156111900Y-127199700D02*
X161311900Y-127199700D01*
X156111900Y-101679700D02*
X156111900Y-127199700D01*
X156111900Y-101679700D02*
X158711900Y-101679700D01*
%TO.C,J17*%
X190157100Y-78917800D02*
X189692100Y-78917800D01*
X190157100Y-66217800D02*
X190157100Y-78917800D01*
X189692100Y-66217800D02*
X190157100Y-66217800D01*
D11*
G36*
X169202100Y-81457800D02*
G01*
X169202100Y-75107800D01*
X160312100Y-75107800D01*
X160312100Y-81457800D01*
X169202100Y-81457800D01*
G37*
X169202100Y-81457800D02*
X169202100Y-75107800D01*
X160312100Y-75107800D01*
X160312100Y-81457800D01*
X169202100Y-81457800D01*
X167967101Y-68257800D02*
G75*
G03*
X167967101Y-68257800I-2594345J0D01*
G01*
X168568662Y-68307800D02*
G75*
G03*
X168568662Y-68307800I-3201562J0D01*
G01*
X160242100Y-63707800D02*
X160242100Y-83457800D01*
X186792100Y-63707800D02*
X160242100Y-63707800D01*
X186792100Y-83457800D02*
X186792100Y-63707800D01*
X189692100Y-66217800D02*
X186792100Y-66217800D01*
X186792100Y-78917800D02*
X189692100Y-78917800D01*
X160312100Y-81457800D02*
X157772100Y-81457800D01*
X157767100Y-66217800D02*
X160242100Y-66217800D01*
X160242100Y-83457800D02*
X186792100Y-83457800D01*
D13*
G36*
X173012100Y-63677800D02*
G01*
X182410100Y-63677800D01*
X182410100Y-64185800D01*
X173012100Y-64185800D01*
X173012100Y-63677800D01*
G37*
X173012100Y-63677800D02*
X182410100Y-63677800D01*
X182410100Y-64185800D01*
X173012100Y-64185800D01*
X173012100Y-63677800D01*
D14*
X157772100Y-66217800D02*
X157137100Y-66217800D01*
X157137100Y-66217800D02*
X157137100Y-81457800D01*
X157137100Y-81457800D02*
X157772100Y-81457800D01*
%TD*%
M02*
