%TF.GenerationSoftware,KiCad,Pcbnew,(5.1.6-0-10_14)*%
%TF.CreationDate,2020-09-22T10:55:38+02:00*%
%TF.ProjectId,airquality,61697271-7561-46c6-9974-792e6b696361,rev?*%
%TF.SameCoordinates,Original*%
%TF.FileFunction,Paste,Top*%
%TF.FilePolarity,Positive*%
%FSLAX46Y46*%
G04 Gerber Fmt 4.6, Leading zero omitted, Abs format (unit mm)*
G04 Created by KiCad (PCBNEW (5.1.6-0-10_14)) date 2020-09-22 10:55:38*
%MOMM*%
%LPD*%
G01*
G04 APERTURE LIST*
%ADD10R,0.800000X0.900000*%
%ADD11R,1.000000X1.500000*%
%ADD12R,1.700000X1.000000*%
G04 APERTURE END LIST*
%TO.C,R3*%
G36*
G01*
X146119000Y-88778501D02*
X146119000Y-87878499D01*
G75*
G02*
X146368999Y-87628500I249999J0D01*
G01*
X147019001Y-87628500D01*
G75*
G02*
X147269000Y-87878499I0J-249999D01*
G01*
X147269000Y-88778501D01*
G75*
G02*
X147019001Y-89028500I-249999J0D01*
G01*
X146368999Y-89028500D01*
G75*
G02*
X146119000Y-88778501I0J249999D01*
G01*
G37*
G36*
G01*
X144069000Y-88778501D02*
X144069000Y-87878499D01*
G75*
G02*
X144318999Y-87628500I249999J0D01*
G01*
X144969001Y-87628500D01*
G75*
G02*
X145219000Y-87878499I0J-249999D01*
G01*
X145219000Y-88778501D01*
G75*
G02*
X144969001Y-89028500I-249999J0D01*
G01*
X144318999Y-89028500D01*
G75*
G02*
X144069000Y-88778501I0J249999D01*
G01*
G37*
%TD*%
%TO.C,R1*%
G36*
G01*
X145219000Y-78226499D02*
X145219000Y-79126501D01*
G75*
G02*
X144969001Y-79376500I-249999J0D01*
G01*
X144318999Y-79376500D01*
G75*
G02*
X144069000Y-79126501I0J249999D01*
G01*
X144069000Y-78226499D01*
G75*
G02*
X144318999Y-77976500I249999J0D01*
G01*
X144969001Y-77976500D01*
G75*
G02*
X145219000Y-78226499I0J-249999D01*
G01*
G37*
G36*
G01*
X147269000Y-78226499D02*
X147269000Y-79126501D01*
G75*
G02*
X147019001Y-79376500I-249999J0D01*
G01*
X146368999Y-79376500D01*
G75*
G02*
X146119000Y-79126501I0J249999D01*
G01*
X146119000Y-78226499D01*
G75*
G02*
X146368999Y-77976500I249999J0D01*
G01*
X147019001Y-77976500D01*
G75*
G02*
X147269000Y-78226499I0J-249999D01*
G01*
G37*
%TD*%
D10*
%TO.C,Q1*%
X145669000Y-84328000D03*
X144719000Y-82328000D03*
X146619000Y-82328000D03*
%TD*%
D11*
%TO.C,D1*%
X144069000Y-99287500D03*
X147269000Y-99287500D03*
X144069000Y-94387500D03*
X147269000Y-94387500D03*
%TD*%
%TO.C,C1*%
G36*
G01*
X146119000Y-103637501D02*
X146119000Y-102737499D01*
G75*
G02*
X146368999Y-102487500I249999J0D01*
G01*
X147019001Y-102487500D01*
G75*
G02*
X147269000Y-102737499I0J-249999D01*
G01*
X147269000Y-103637501D01*
G75*
G02*
X147019001Y-103887500I-249999J0D01*
G01*
X146368999Y-103887500D01*
G75*
G02*
X146119000Y-103637501I0J249999D01*
G01*
G37*
G36*
G01*
X144069000Y-103637501D02*
X144069000Y-102737499D01*
G75*
G02*
X144318999Y-102487500I249999J0D01*
G01*
X144969001Y-102487500D01*
G75*
G02*
X145219000Y-102737499I0J-249999D01*
G01*
X145219000Y-103637501D01*
G75*
G02*
X144969001Y-103887500I-249999J0D01*
G01*
X144318999Y-103887500D01*
G75*
G02*
X144069000Y-103637501I0J249999D01*
G01*
G37*
%TD*%
D12*
%TO.C,SW1*%
X148819000Y-137319700D03*
X142519000Y-137319700D03*
X148819000Y-133519700D03*
X142519000Y-133519700D03*
%TD*%
%TO.C,R2*%
G36*
G01*
X146119000Y-129494701D02*
X146119000Y-128594699D01*
G75*
G02*
X146368999Y-128344700I249999J0D01*
G01*
X147019001Y-128344700D01*
G75*
G02*
X147269000Y-128594699I0J-249999D01*
G01*
X147269000Y-129494701D01*
G75*
G02*
X147019001Y-129744700I-249999J0D01*
G01*
X146368999Y-129744700D01*
G75*
G02*
X146119000Y-129494701I0J249999D01*
G01*
G37*
G36*
G01*
X144069000Y-129494701D02*
X144069000Y-128594699D01*
G75*
G02*
X144318999Y-128344700I249999J0D01*
G01*
X144969001Y-128344700D01*
G75*
G02*
X145219000Y-128594699I0J-249999D01*
G01*
X145219000Y-129494701D01*
G75*
G02*
X144969001Y-129744700I-249999J0D01*
G01*
X144318999Y-129744700D01*
G75*
G02*
X144069000Y-129494701I0J249999D01*
G01*
G37*
%TD*%
%TO.C,C6*%
G36*
G01*
X98038500Y-122422499D02*
X98038500Y-123322501D01*
G75*
G02*
X97788501Y-123572500I-249999J0D01*
G01*
X97138499Y-123572500D01*
G75*
G02*
X96888500Y-123322501I0J249999D01*
G01*
X96888500Y-122422499D01*
G75*
G02*
X97138499Y-122172500I249999J0D01*
G01*
X97788501Y-122172500D01*
G75*
G02*
X98038500Y-122422499I0J-249999D01*
G01*
G37*
G36*
G01*
X100088500Y-122422499D02*
X100088500Y-123322501D01*
G75*
G02*
X99838501Y-123572500I-249999J0D01*
G01*
X99188499Y-123572500D01*
G75*
G02*
X98938500Y-123322501I0J249999D01*
G01*
X98938500Y-122422499D01*
G75*
G02*
X99188499Y-122172500I249999J0D01*
G01*
X99838501Y-122172500D01*
G75*
G02*
X100088500Y-122422499I0J-249999D01*
G01*
G37*
%TD*%
%TO.C,R4*%
G36*
G01*
X100529700Y-68153701D02*
X100529700Y-67253699D01*
G75*
G02*
X100779699Y-67003700I249999J0D01*
G01*
X101429701Y-67003700D01*
G75*
G02*
X101679700Y-67253699I0J-249999D01*
G01*
X101679700Y-68153701D01*
G75*
G02*
X101429701Y-68403700I-249999J0D01*
G01*
X100779699Y-68403700D01*
G75*
G02*
X100529700Y-68153701I0J249999D01*
G01*
G37*
G36*
G01*
X98479700Y-68153701D02*
X98479700Y-67253699D01*
G75*
G02*
X98729699Y-67003700I249999J0D01*
G01*
X99379701Y-67003700D01*
G75*
G02*
X99629700Y-67253699I0J-249999D01*
G01*
X99629700Y-68153701D01*
G75*
G02*
X99379701Y-68403700I-249999J0D01*
G01*
X98729699Y-68403700D01*
G75*
G02*
X98479700Y-68153701I0J249999D01*
G01*
G37*
%TD*%
%TO.C,C5*%
G36*
G01*
X100547700Y-70846101D02*
X100547700Y-69946099D01*
G75*
G02*
X100797699Y-69696100I249999J0D01*
G01*
X101447701Y-69696100D01*
G75*
G02*
X101697700Y-69946099I0J-249999D01*
G01*
X101697700Y-70846101D01*
G75*
G02*
X101447701Y-71096100I-249999J0D01*
G01*
X100797699Y-71096100D01*
G75*
G02*
X100547700Y-70846101I0J249999D01*
G01*
G37*
G36*
G01*
X98497700Y-70846101D02*
X98497700Y-69946099D01*
G75*
G02*
X98747699Y-69696100I249999J0D01*
G01*
X99397701Y-69696100D01*
G75*
G02*
X99647700Y-69946099I0J-249999D01*
G01*
X99647700Y-70846101D01*
G75*
G02*
X99397701Y-71096100I-249999J0D01*
G01*
X98747699Y-71096100D01*
G75*
G02*
X98497700Y-70846101I0J249999D01*
G01*
G37*
%TD*%
M02*
