M48
; DRILL file {KiCad (5.1.6-0-10_14)} date Thursday, August 27, 2020 at 10:21:15 PM
; FORMAT={-:-/ absolute / inch / decimal}
; #@! TF.CreationDate,2020-08-27T22:21:15+02:00
; #@! TF.GenerationSoftware,Kicad,Pcbnew,(5.1.6-0-10_14)
; #@! TF.FileFunction,Plated,1,2,PTH
FMAT,2
INCH
T1C0.0157
T2C0.0236
T3C0.0295
T4C0.0300
T5C0.0394
%
G90
G05
T1
X4.438Y-3.918
X4.754Y-3.096
X4.982Y-5.614
X5.106Y-3.708
X5.142Y-2.998
X5.164Y-3.798
X5.372Y-5.462
X5.494Y-3.728
X5.502Y-3.588
X5.566Y-3.722
X5.572Y-3.582
X6.052Y-3.668
X6.244Y-4.904
X6.258Y-3.506
X6.304Y-3.308
X6.31Y-4.822
X6.428Y-3.604
X6.57Y-3.36
X6.616Y-3.47
X6.65Y-4.924
X6.678Y-3.538
X6.844Y-3.298
X6.848Y-3.408
X6.958Y-3.538
X6.0957Y-2.3417
X6.1744Y-2.3417
X6.1744Y-2.5385
X6.2531Y-2.3417
X6.2531Y-2.5385
X6.3319Y-2.3417
X6.3319Y-2.5385
X6.4106Y-2.3417
X6.4106Y-2.5385
X6.4894Y-2.3417
X6.4894Y-2.5385
X6.5681Y-2.3417
X6.5681Y-2.5385
X6.6469Y-2.3417
X6.6469Y-2.5385
X6.7256Y-2.3417
X6.7256Y-2.5385
X6.8043Y-2.3417
X6.8043Y-2.5385
T2
X4.7531Y-3.7233
X4.7531Y-3.769
X4.8031Y-3.7233
X4.8031Y-3.769
X4.8531Y-3.7233
X4.8531Y-3.769
X4.9031Y-3.7233
X4.9031Y-3.769
X4.9531Y-3.7233
X4.9531Y-3.769
T3
X5.636Y-5.568
X5.7147Y-5.568
X5.7935Y-5.568
X5.8722Y-5.568
X5.136Y-5.568
X5.2147Y-5.568
X5.2935Y-5.568
X5.3722Y-5.568
X4.348Y-4.892
X4.348Y-4.942
X4.348Y-4.992
X4.322Y-3.816
X4.322Y-3.866
X4.322Y-3.916
X4.649Y-5.568
X4.7277Y-5.568
X4.8065Y-5.568
X4.8852Y-5.568
X5.174Y-2.596
X5.224Y-2.596
X5.274Y-2.596
T4
X7.076Y-2.9272
X7.176Y-2.9272
X7.176Y-4.088
X7.276Y-2.9272
X7.276Y-4.088
X7.376Y-2.9272
X7.376Y-4.088
X7.476Y-2.9272
X7.476Y-4.088
T5
X5.524Y-3.2
X5.624Y-3.2
X5.724Y-3.2
X5.824Y-3.2
X6.431Y-4.6405
X6.431Y-4.7405
X6.431Y-4.8405
X6.431Y-4.9405
X6.431Y-5.0405
X6.431Y-5.1405
X6.431Y-5.2405
X6.431Y-5.3405
X6.431Y-5.4405
X6.431Y-5.5405
X6.531Y-4.6405
X6.531Y-4.7405
X6.531Y-4.8405
X6.531Y-4.9405
X6.531Y-5.0405
X6.531Y-5.1405
X6.531Y-5.2405
X6.531Y-5.3405
X6.531Y-5.4405
X6.531Y-5.5405
X4.622Y-3.2
X4.722Y-3.2
X4.822Y-3.2
X4.922Y-3.2
X7.431Y-4.6405
X7.431Y-4.7405
X7.431Y-4.8405
X7.431Y-4.9405
X7.431Y-5.0405
X7.431Y-5.1405
X7.431Y-5.2405
X7.431Y-5.3405
X7.431Y-5.4405
X7.431Y-5.5405
X7.531Y-4.6405
X7.531Y-4.7405
X7.531Y-4.8405
X7.531Y-4.9405
X7.531Y-5.0405
X7.531Y-5.1405
X7.531Y-5.2405
X7.531Y-5.3405
X7.531Y-5.4405
X7.531Y-5.5405
T0
M30
